<svg xmlns="http://www.w3.org/2000/svg" viewBox="0 0 553.88 946.71"><defs><style>.a{fill:#92d3ff;}.b{fill:#8cb5bf;}.c{fill:#63966c;}.d{fill:#9fc6a2;}.e{fill:#75a378;}.f{fill:#e3a94b;}.g{fill:#f3d56d;}.h{fill:#edb956;}.i{fill:#fff;}.j{fill:#d7a856;}.k{fill:#474b59;}.l{fill:#3a3651;}.m{fill:#2b2a3c;}.n{fill:#4e476b;}.o{fill:#e3847a;}.p{fill:#b06c67;}.q{fill:#de5f4c;}.r{fill:#77635e;}.s{fill:#524643;}</style></defs><path class="a" d="M517.57,648.47C481.9,463.78,583.93,312,544.78,201.06,455.84-50.85,132.3,15.62,166.58,263.92,183,382.8,145.76,483,132.62,576.61c-20.27,144.48-14.34,229.45,172.54,286C477.62,914.85,541.7,773.43,517.57,648.47Z"/><path class="b" d="M450.7,912.87H142c-15.2,0-78.84,5.29-64.56,16.92C90.66,940.58,181.8,946.71,197,946.71H475.18c46.24,0,87.26-7.62,72.13-16.92h0C532.17,920.48,501,912.87,450.7,912.87Z"/><path class="c" d="M179,839.79s3.27-156.91-71.75-197.93S7.58,600,7.58,600-14.27,703.09,19.26,748.89c10.76,14.69,32.66,40.8,53.18,55.37a176.71,176.71,0,0,0,74.84,30.51Z"/><path class="d" d="M23.2,619.76a1.52,1.52,0,0,1,2.13.32c.23.31,19.11,26,41.94,59.86l-.11-30.33a1.53,1.53,0,1,1,3,0l.14,34.92c4.09,6.11,8.28,12.44,12.5,18.91Q94,720.58,103.49,736l10.64-38.22a1.53,1.53,0,0,1,2.94.82l-11.38,40.91,0,.06c7.27,12,13.69,23.07,19.22,33.24,13.5,24.82,21.72,44.09,24.41,57.3a1.52,1.52,0,0,1-1.19,1.8,1.41,1.41,0,0,1-.54,0,1.52,1.52,0,0,1-1.26-1.2c-3.74-18.3-18.72-49.18-43.72-90.33L53,732.57a1.53,1.53,0,1,1,.48-3l47,7.44q-9.24-15.07-20.2-31.89c-4.21-6.47-8.41-12.8-12.5-18.91l-31-13.77a1.53,1.53,0,1,1,1.24-2.79l26.52,11.79c-22.72-33.68-41.48-59.21-41.71-59.53A1.52,1.52,0,0,1,23.2,619.76Z"/><path class="e" d="M10.66,783.9c-35.85,49,19.81,116,150.65,53.44C161.31,837.34,46.51,734.89,10.66,783.9Z"/><path class="d" d="M42.92,809.68c-17.51-6.25-31.81-11.83-38.74-14.6.43-1,.89-2,1.39-2.92,5.29,2.09,14.55,5.69,26.11,9.94L21.54,774.45c.79-.41,1.6-.78,2.42-1.12l11,30c4.38,1.6,9,3.27,13.9,5l-8.66-37.63c.88,0,1.77.07,2.67.14l8.87,38.49c12.45,4.33,26.08,8.81,39.6,12.78L72.06,778.43c1.21.49,2.43,1,3.64,1.54l19,43.06c24.49,7.05,48.21,12.21,63.29,11.45,2.14,1.82,3.3,2.86,3.3,2.86l-.27.13c-17.28,2-47.84-5.22-77.75-14.35l-16.4,39.52c-.91,0-1.82,0-2.72,0l16.7-40.24c-6.23-1.92-12.41-3.93-18.43-5.94L36.82,858.31c-.86-.28-1.7-.56-2.53-.86l25.62-41.87c-4.79-1.62-9.47-3.24-13.95-4.82L10.73,842.1c-.63-.71-1.23-1.43-1.8-2.17Z"/><path class="b" d="M53.15,912.54s-20.6-.38-27.83,3.26,2.86,23.78,51.94,26.51,68.25,2.38,101.73,1.36,58.62-.21,58.62-9-9.51-19.43-32-18.86S53.15,912.54,53.15,912.54Z"/><path class="f" d="M219.09,888.1l-.36,24.27c-.23,3.54-2.64,6.9-6.85,10a47,47,0,0,1-8.2,4.66,95.6,95.6,0,0,1-12.13,4.41q-3.8,1.11-8,2.09c-15.46,3.57-34.85,5.63-55.78,5.47C78.5,938.6,39.34,926.09,40.31,911l.36-24.27s58.45,6.53,90,6.77c21.51.16,54.73-2.42,73.73-4.08l5.81-.52C215.74,888.44,219.09,888.1,219.09,888.1Z"/><path class="g" d="M219.09,887.84c-1,15-41.69,26.95-91,26.59-3.13,0-6.22-.1-9.26-.22a254.63,254.63,0,0,1-27.69-2.53C60.71,907.15,40,897.51,40.67,886.5c1-15,41.69-27,91-26.59a260.28,260.28,0,0,1,41,3.38l1.93.33c4,.7,7.72,1.5,11.25,2.38,3.33.82,6.47,1.72,9.38,2.68C210.42,873.7,219.57,880.46,219.09,887.84Z"/><path class="h" d="M208.45,887.76c-.83,13-36.76,23.36-80.08,23s-77.9-11.18-77.06-24.21,36.77-23.36,80.09-23S209.29,874.73,208.45,887.76ZM56.22,886.62c-.78,12.1,31.64,22.19,72.25,22.49s74.3-9.29,75.07-21.39-31.63-22.19-72.25-22.5S57,874.51,56.22,886.62Z"/><path class="f" d="M230.57,858.44l-.36,24.27c-.23,3.53-2.64,6.89-6.85,9.95a47,47,0,0,1-8.2,4.66A92.25,92.25,0,0,1,203,901.73c-2.52.75-5.19,1.44-8,2.09-15.46,3.58-34.85,5.64-55.78,5.48-49.27-.37-88.43-12.88-87.46-27.93l.36-24.27s58.45,6.53,90,6.77c21.5.16,54.73-2.42,73.73-4.08l5.8-.51C227.22,858.77,230.57,858.44,230.57,858.44Z"/><path class="g" d="M230.57,858.17c-1,15.05-41.69,27-91,26.59q-4.7,0-9.26-.22A254.63,254.63,0,0,1,102.66,882c-30.47-4.52-51.22-14.17-50.51-25.18,1-15.05,41.69-27,91-26.59a260.31,260.31,0,0,1,41,3.38L186,834c4,.7,7.72,1.5,11.25,2.38,3.33.82,6.47,1.72,9.38,2.68C221.9,844,231.05,850.79,230.57,858.17Z"/><path class="i" d="M206.64,839c-25.31,15.37-50.81,30.45-76.29,45.53A254.63,254.63,0,0,1,102.66,882c27.14-16.08,54.36-32.1,81.42-48.39L186,834c4,.7,7.72,1.5,11.25,2.38C200.59,837.15,203.73,838.05,206.64,839Z"/><path class="h" d="M219.93,858.09c-.83,13-36.76,23.36-80.09,23S62,869.94,62.79,856.91s36.76-23.36,80.09-23S220.77,845.06,219.93,858.09ZM67.7,857c-.78,12.1,31.64,22.19,72.25,22.5s74.3-9.3,75.07-21.4-31.63-22.19-72.25-22.5S68.48,844.85,67.7,857Z"/><path class="f" d="M213.09,825.68,212.73,850c-.23,3.53-2.64,6.89-6.85,10a47.61,47.61,0,0,1-8.2,4.65A92.08,92.08,0,0,1,185.55,869c-2.53.75-5.2,1.44-8,2.09-15.46,3.58-34.85,5.64-55.78,5.48-49.27-.37-88.42-12.88-87.46-27.93l.36-24.27s58.45,6.53,90,6.77c21.51.16,54.73-2.42,73.73-4.08l5.81-.51C209.74,826,213.09,825.68,213.09,825.68Z"/><path class="g" d="M213.1,825.41c-1,15.05-41.7,27-91,26.59q-4.69,0-9.26-.22a254.86,254.86,0,0,1-27.69-2.53C54.72,844.73,34,835.08,34.67,824.07c1-15.05,41.7-27,91-26.59a260.28,260.28,0,0,1,41,3.38l1.94.34c4,.69,7.71,1.49,11.24,2.37,3.33.82,6.47,1.72,9.39,2.68C204.42,811.27,213.57,818,213.1,825.41Z"/><path class="i" d="M189.17,806.25c-25.32,15.37-50.82,30.45-76.3,45.53a254.86,254.86,0,0,1-27.69-2.53c27.14-16.08,54.36-32.1,81.42-48.39l1.94.34c4,.69,7.71,1.49,11.24,2.37C183.11,804.39,186.25,805.29,189.17,806.25Z"/><path class="h" d="M202.46,825.33c-.84,13-36.77,23.36-80.09,23s-77.89-11.19-77.06-24.22,36.77-23.36,80.09-23S203.29,812.3,202.46,825.33ZM50.22,824.19c-.77,12.1,31.64,22.19,72.25,22.5s74.3-9.3,75.08-21.4-31.64-22.19-72.26-22.5S51,812.09,50.22,824.19Z"/><path class="j" d="M121,842.14v-4.28a43.14,43.14,0,0,1-12.8-1.87l2-2.84A39.28,39.28,0,0,0,122.29,835c5.94,0,10-1.74,10-4.16s-3.26-3.77-9.45-5c-8.54-1.7-13.81-3.65-13.81-7.33,0-3.52,4.94-6.19,12.63-6.83v-4.28h5.19v4.11a40.22,40.22,0,0,1,10.88,1.49l-2.09,2.79a36.32,36.32,0,0,0-10.54-1.44c-6.45,0-8.87,2-8.87,3.65,0,2.2,3.09,3.3,10.37,4.83,8.62,1.78,13,4,13,7.76,0,3.34-4.6,6.48-13.22,7.2v4.41Z"/><path class="i" d="M128.11,916.36c-30.78,0-52.21-5.64-52.44-5.71a1.86,1.86,0,0,1,1-3.59c.24.07,24.77,6.52,59,5.47a1.86,1.86,0,1,1,.11,3.72C133.16,916.33,130.6,916.36,128.11,916.36Z"/><path class="k" d="M306.66,31.75s-3.09,5.71-.39,10.58c2.39,4.33,19.78,18.51,23.17,17.7s15.92-26.82,14.49-32.56-15.67-8.38-20.16-5.8S306.66,31.75,306.66,31.75Z"/><path class="l" d="M403.29,107.93s116.79,58.78,137.38,119.14C566.82,303.74,461.26,400.66,420.54,393s41.75-154,41.75-154-58.54-45.23-68.06-68.41S403.29,107.93,403.29,107.93Z"/><path class="m" d="M461.67,241.18a2.27,2.27,0,0,0,1.65-.16c23.61-12,53.52-5.54,53.82-5.48a2.27,2.27,0,1,0,1-4.43c-1.29-.29-31.81-6.83-56.86,5.86a2.27,2.27,0,0,0,.41,4.21Z"/><path class="l" d="M458.44,924.72c-7.61-3.19-9.18-9.69-12.9-15.86-.25-.41-2.33-9.27-2.4-10-.34-3.06-10-11.17-13.46-4.81C422.81,906.62,412,887,413,892.26c2.94,15.58-1.73,40.7,4.24,42.4,12.72,3.63,70.83,7.85,71.33,1.79C488.85,932.82,471.61,930.25,458.44,924.72Z"/><path class="l" d="M199.27,892.26c1.45-5.24-30.13,3.57-30.74,6.63-.14.7-3,9.56-3.28,10-4.26,6.17-6.4,12.67-14.3,15.86-13.65,5.53-31.11,8.1-31.13,11.73,0,6.06,58.45,1.84,71.49-1.79C197.43,933,195,907.84,199.27,892.26Z"/><path class="n" d="M253.88,353c14.58-32.2,125.43-74,154.67-80.86,2.14,32.43,17.1,52.63,34.79,87.6,24.74,48.89,19.08,541,19.08,541s-7.76,5-27.22,5c-25.71,0-33.46-5-33.46-5L356.17,455.67S333.48,570,293.57,687.76c-18.2,53.69-77.82,213-77.82,213a66.88,66.88,0,0,1-25.94,5c-16,0-26.94-5-26.94-5l44.4-245.39S245.29,372,253.88,353Z"/><path class="l" d="M453.48,418.21c-1.44-16-3.08-29.52-5-39.85H367.68L243.16,436.65s12,6.49,75.39,3.31C375.1,437.13,421.36,434.35,453.48,418.21Z"/><path class="n" d="M239.44,282.4c.85-71.26-14.79-109.94-8-134.21,8.7-31.11,54.22-52.32,80.26-55.93,21.42-3,79.71,5.76,98.78,19.11,30.57,21.42,42.77,279.68,42.77,279.68s-23,23.44-82.51,35.05c-9.07,1.76.81-39.15-4.13-38.52-4.42.56-9,40.41-18.75,42.28-80.62,15.51-118.35,4.37-118.35,4.37S238.37,373.25,239.44,282.4Z"/><path class="i" d="M321.87,91.68s-4-.28-4.42,5.58,52.48,160.13,57.8,160.88-9-145.84-18-155S328.91,90.17,321.87,91.68Z"/><path class="o" d="M322.67,95c.51,5.61,37.09,24.52,30.37-1l-1.33-6.66-6.15-30.9-.72-3.62-16-8Z"/><path class="p" d="M331.78,56.65s2.27,5.41,4.16,7.74A35.17,35.17,0,0,0,349,73.82l-3.46-17.4A111.53,111.53,0,0,0,331.78,56.65Z"/><path class="q" d="M354.28,117.57l-6.43.45s2,37.51,2.35,49.75c.23,8.08.82,22,2,35.74,10.76,30.14,20.84,54.32,23,54.63,2.93.41-.08-43.83-4.89-85.21C364.11,150,354.28,117.57,354.28,117.57Z"/><path class="q" d="M344.58,115.84s1.37,7.23,7.35,5.11,5.86-6.11,3.49-7.85-8.1-2-8.48-1.5S344.58,115.84,344.58,115.84Z"/><path class="i" d="M323.87,85.17l24.55,21.13,3.79-16.47s5.52,6.5,7,9.11c2.34,4.14,4,18.59,4,18.59l-13.43-5.17-13.38,10.4s-17-26.31-17.84-28.43S323.87,85.17,323.87,85.17Z"/><path class="l" d="M352.57,475.61a2.61,2.61,0,0,1-.67-.08,2.83,2.83,0,0,1-2.08-3.41c7.89-32.39,18.43-42.64,18.88-43.07a2.83,2.83,0,0,1,3.89,4.1c-.17.16-9.89,10-17.28,40.31A2.82,2.82,0,0,1,352.57,475.61Z"/><path class="l" d="M173.85,892.48a.85.85,0,0,1-.23,0,1.12,1.12,0,0,1-.88-1.33c.26-1.21,25.45-120.91,26.92-137.12.83-9.11,7.12-43.77,13.2-77.28,4.81-26.52,9.36-51.57,10.25-58.93.51-4.21,1.7-13.12,3.2-24.39,4.23-31.81,11.32-85,11.52-95.83.25-14.51,8.4-52.38,8.74-54a1.13,1.13,0,0,1,1.34-.87,1.15,1.15,0,0,1,.87,1.35c-.08.39-8.44,39.25-8.69,53.54-.2,10.92-7,62.17-11.54,96.09-1.5,11.26-2.69,20.16-3.2,24.36-.9,7.43-5.45,32.51-10.27,59.07-5.79,31.9-12.35,68.06-13.17,77.08-1.49,16.34-25.92,132.44-27,137.37A1.13,1.13,0,0,1,173.85,892.48Z"/><path class="l" d="M367.77,387.45l-.35,0a2.81,2.81,0,0,1-2.45-3.15c.1-.81,10.18-81.45,8.61-123.25a2.83,2.83,0,0,1,5.65-.21c1.58,42.26-8.55,123.35-8.66,124.16A2.83,2.83,0,0,1,367.77,387.45Z"/><path class="l" d="M407.21,892.48h-.08a1.26,1.26,0,0,1-1.16-1.21c-.34-14.55-1.35-53-2-56.22-1-4.64-4.41-91.09-4-100.55.31-7-3.58-52-6.41-84.88-1.4-16.13-2.5-28.88-2.82-33.75-.24-3.69-.69-11.32-1.26-21-1.72-29.2-4.6-78.06-6-89.69-1.81-15.32-3.28-38.44-3.29-38.67a1,1,0,0,1,1.06-1.09,1.28,1.28,0,0,1,1.2,1.17c0,.23,1.48,23.29,3.28,38.54,1.39,11.7,4.27,60.6,6,89.83.57,9.63,1,17.26,1.26,20.94.31,4.85,1.47,18.22,2.81,33.71,2.84,32.92,6.74,78,6.42,85.17-.5,11.37,3.2,96.44,3.94,100,.85,4.05,2,54.5,2.07,56.64A1,1,0,0,1,407.21,892.48Z"/><path class="k" d="M345.37,16.22S346,8.09,337.6,2.91,319.21-.73,312.18,9s-11.54,17.42-15.52,18.69,2.49,10,11.36,6.93S341.43,21.36,345.37,16.22Z"/><path class="o" d="M325.39,28.73,327,49.27A16.75,16.75,0,0,0,344,63c6.38-.13,9.69-.26,16.59-4.17,5.75-3.25,6.44-10.35,3.14-18.29A80,80,0,0,0,348.66,17.8a15.35,15.35,0,0,0-7.34-4.55,4.25,4.25,0,0,0-2.83.25C332.66,16.21,326.51,20.69,325.39,28.73Z"/><path class="i" d="M344,42.37s5.74-2.35,14.17-6.93c0,0,2.49,6.77-2.76,9.56C353.17,46.21,349.2,46.69,344,42.37Z"/><path class="o" d="M326.62,40.26a21,21,0,0,1-2.89-3.41c-1.64-2.32-4.62-5.39-6.87-1.26-3.27,6,4.62,17.34,11,14.24C332.64,47.52,329.39,42.81,326.62,40.26Z"/><path class="p" d="M347.81,33.77a10.5,10.5,0,0,0,3.85-3.24c.78-1.07,2.27.33,1.5,1.39a11.68,11.68,0,0,1-4.25,3.58C347.74,36.08,346.63,34.35,347.81,33.77Z"/><path class="k" d="M338.57,25.69a4.14,4.14,0,0,0-3.23.57,5,5,0,0,0-2,2.55.6.6,0,0,0-.07.34h0a.4.4,0,0,0,.26.44.65.65,0,0,0,.86,0A13.82,13.82,0,0,1,338.6,27C339.3,26.75,339.17,25.72,338.57,25.69Z"/><path class="k" d="M349.94,19.29a.57.57,0,0,0-.18,0c-.43.14-1,.23-1.56.38l-.12,0,0,0c-.8.24-1.49.64-1.49,1.54a.44.44,0,0,0,.1.29.67.67,0,0,0,1,.43,32.24,32.24,0,0,1,2.92-1.51C351.27,20.16,350.66,19.09,349.94,19.29Z"/><path class="p" d="M333.88,60a50.18,50.18,0,0,0,24.05-3.9c4.06-1.84,6.4-3.72,7.71-5.39a9.91,9.91,0,0,1-5,8.15c-6.9,3.91-10.21,4-16.59,4.17A17.18,17.18,0,0,1,333.88,60Z"/><path class="o" d="M238.09,464.33s.55,10.92,2.47,13.33,7.54,6.39,5.19,9.24-11.52-2.09-14.1-5.11-5-7.41-4.91-9.35S238.09,464.33,238.09,464.33Z"/><path class="l" d="M242.85,509.28a4.82,4.82,0,0,1-6.35-5.54l3.08-14.27c-13.91.11-31.58.33-38.35.58-.68,3.38-1.55,9.8-2.1,15.24a4.82,4.82,0,1,1-9.59-1c0-.19.5-4.84,1.18-9.63,1.35-9.6,2.22-12.56,5.4-13.72,1-.36,2.29-.84,49.41-1.16a4.82,4.82,0,0,1,4.74,5.83l-4.36,20.15A4.81,4.81,0,0,1,242.85,509.28Z"/><path class="o" d="M220.87,457.86s-17.29,22.68-13.1,34.09c1.68,4.57,21.08,2.52,24.75,1.54s-3.35-6.79-3.77-8c-.8-2.18-1.29-1.84,3.22-7.53s9.42-13.33,7.41-16.82S226.5,449.43,220.87,457.86Z"/><polygon class="r" points="95.78 638.37 272.83 645.44 301.42 503.87 127.5 499.02 106.75 590.15 95.78 638.37"/><polygon class="s" points="299.23 634.82 301.42 503.87 272.83 645.44 299.23 634.82"/><polygon class="s" points="106.75 590.15 282.55 597.29 283.52 592.51 107.84 585.38 106.75 590.15"/><path class="n" d="M243.16,127.75s-32.45,26.63-32.45,87.15c0,34-2.38,138-2.38,138s-2.72,97.92,0,106.79,56.39,6.55,56.39,6.55S271.66,345.17,272,317,287.12,183.85,243.16,127.75Z"/><path class="l" d="M246.82,468.92c-2.32,0-4.44,0-6.06-.12a2.28,2.28,0,0,1,.26-4.55c5.3.29,16.83,0,21.54-.2l1.34-23.91c.06-1.15,6.48-116,9.79-168.17s-4.15-118-24.5-136.9a2.28,2.28,0,1,1,3.1-3.34c21.61,20.07,29.41,85.89,26,140.53-3.31,52.1-9.72,167-9.79,168.14l-1.57,28.05-2.07.08C264.27,468.55,254.48,468.92,246.82,468.92Zm17.9-2.67h0Z"/><path class="k" d="M339.14,35a7.14,7.14,0,0,1-.72,0,.68.68,0,1,1,.13-1.36,4.39,4.39,0,0,0,2.79-.5c.59-.61.54-1,.54-1a.66.66,0,0,1,.49-.81.7.7,0,0,1,.84.5,2.51,2.51,0,0,1-.89,2.31A4.73,4.73,0,0,1,339.14,35Z"/><path class="k" d="M351.75,28.34h-.4a.68.68,0,0,1,.11-1.36,3.32,3.32,0,0,0,2.06-.44.61.61,0,0,0,.2-.45.69.69,0,1,1,1.37,0,2,2,0,0,1-.65,1.43A4.23,4.23,0,0,1,351.75,28.34Z"/></svg>