<?xml version="1.0" encoding="utf-8"?>
<!-- Generator: Adobe Illustrator 24.1.2, SVG Export Plug-In . SVG Version: 6.00 Build 0)  -->
<svg version="1.1" id="Layer_1" xmlns="http://www.w3.org/2000/svg" xmlns:xlink="http://www.w3.org/1999/xlink" x="0px" y="0px"
	 viewBox="0 0 24 24" style="enable-background:new 0 0 24 24;" xml:space="preserve">
<style type="text/css">
	.st0{opacity:0.4;fill:#6A49F2;enable-background:new    ;}
	.st1{fill:#6A49F2;}
</style>
<path class="st0" d="M8.7,14H4c-1.1,0-2,0.9-2,2v6h6.7V14z"/>
<path class="st1" d="M13.3,10h-2.7c-1.1,0-2,0.9-2,2v10h6.7V12C15.3,10.9,14.4,10,13.3,10z"/>
<path class="st0" d="M20,17h-4.7v5H22v-3C22,17.9,21.1,17,20,17z"/>
<path class="st1" d="M15,4.8c0.3-0.3,0.4-0.7,0.3-1c-0.1-0.3-0.4-0.5-0.8-0.6l-1-0.2c0,0-0.1-0.1-0.2-0.1l-0.5-1.1
	c-0.4-0.8-1.3-0.8-1.7,0L10.6,3c0,0-0.1,0.1-0.2,0.1l-1,0.2C9.1,3.3,8.8,3.5,8.6,3.8c-0.1,0.3,0,0.7,0.3,1l0.7,0.8
	c0,0,0.1,0.2,0.1,0.2L9.6,6.7c-0.2,0.7,0.1,1,0.3,1.1C10,7.9,10.4,8.1,11,7.7l0.9-0.5c0,0,0.2,0,0.2,0L13,7.7
	C13.3,7.9,13.5,8,13.7,8c0.2,0,0.4-0.1,0.4-0.1c0.2-0.1,0.4-0.4,0.3-1.1l-0.2-0.9c0-0.1,0-0.2,0.1-0.2L15,4.8z"/>
</svg>
