<?xml version="1.0" encoding="utf-8"?>
<!-- Generator: Adobe Illustrator 24.1.2, SVG Export Plug-In . SVG Version: 6.00 Build 0)  -->
<svg version="1.1" id="Layer_1" xmlns="http://www.w3.org/2000/svg" xmlns:xlink="http://www.w3.org/1999/xlink" x="0px" y="0px"
	 viewBox="0 0 24 24" style="enable-background:new 0 0 24 24;" xml:space="preserve">
<style type="text/css">
	.st0{opacity:0.4;fill:#6A49F2;enable-background:new    ;}
	.st1{fill:#6A49F2;}
</style>
<path class="st0" d="M19.3,7.9v5.2c0,3.1-1.8,4.4-4.4,4.4H6.1c-0.4,0-0.9,0-1.3-0.1c-0.3,0-0.5-0.1-0.7-0.2
	c-1.5-0.6-2.4-1.9-2.4-4.1V7.9c0-3.1,1.8-4.4,4.4-4.4h8.8c2.2,0,3.9,0.9,4.3,3.1C19.3,7,19.3,7.4,19.3,7.9z"/>
<path class="st1" d="M22.3,10.9v5.2c0,3.1-1.8,4.4-4.4,4.4H9.1c-0.7,0-1.4-0.1-2-0.3c-1.2-0.4-2-1.4-2.3-2.8
	c0.4,0.1,0.8,0.1,1.3,0.1h8.8c2.6,0,4.4-1.3,4.4-4.4V7.9c0-0.5,0-0.9-0.1-1.3C21.1,7,22.3,8.4,22.3,10.9z"/>
<path class="st1" d="M10.5,13.1c1.5,0,2.6-1.2,2.6-2.6c0-1.5-1.2-2.6-2.6-2.6C9,7.9,7.9,9,7.9,10.5C7.9,12,9,13.1,10.5,13.1z"/>
<path class="st1" d="M4.8,8.3C4.4,8.3,4,8.6,4,9v3c0,0.4,0.3,0.8,0.8,0.8c0.4,0,0.8-0.3,0.8-0.8V9C5.5,8.6,5.2,8.3,4.8,8.3z"/>
<path class="st1" d="M16.2,8.3c-0.4,0-0.7,0.3-0.7,0.8v3c0,0.4,0.3,0.8,0.7,0.8c0.4,0,0.8-0.3,0.8-0.8V9C17,8.6,16.6,8.3,16.2,8.3z"
	/>
</svg>
