<?xml version="1.0" encoding="utf-8"?>
<!-- Generator: Adobe Illustrator 24.1.2, SVG Export Plug-In . SVG Version: 6.00 Build 0)  -->
<svg version="1.1" id="Layer_1" xmlns="http://www.w3.org/2000/svg" xmlns:xlink="http://www.w3.org/1999/xlink" x="0px" y="0px"
	 viewBox="0 0 24 24" style="enable-background:new 0 0 24 24;" xml:space="preserve">
<style type="text/css">
	.st0{opacity:0.4;fill:#6A49F2;enable-background:new    ;}
	.st1{fill:#6A49F2;}
</style>
<path class="st0" d="M22,9v7.5c0,2.3-1.9,4.1-4.1,4.1H6.2c-2.3,0-4.2-1.9-4.2-4.1V9H22z"/>
<path class="st1" d="M22,7.5V9H2V7.5c0-2.3,1.9-4.1,4.2-4.1h11.7C20.1,3.4,22,5.2,22,7.5z"/>
<path class="st1" d="M8,17.3H6c-0.4,0-0.8-0.3-0.8-0.8s0.3-0.8,0.8-0.8h2c0.4,0,0.8,0.3,0.8,0.8S8.4,17.3,8,17.3z"/>
<path class="st1" d="M14.5,17.3h-4c-0.4,0-0.8-0.3-0.8-0.8s0.3-0.8,0.8-0.8h4c0.4,0,0.8,0.3,0.8,0.8S14.9,17.3,14.5,17.3z"/>
</svg>
