<svg xmlns="http://www.w3.org/2000/svg" viewBox="0 0 852.97 832.47"><defs><style>.a{isolation:isolate;}.b{fill:#ffe9d4;opacity:0;}.c{fill:#393351;}.d{fill:#ce4949;}.e{fill:#5cbec6;}.f{fill:#3d92a5;}.g{fill:#50456d;}.h{fill:#ff867a;}.i{fill:#c66c67;}.j{fill:#fff;}.k{fill:#ffba57;}.l{mix-blend-mode:color-dodge;}.m{fill:#121210;}.n{fill:#f27b53;}.o{fill:#ffe164;}.p{fill:#cc5748;}</style></defs><g class="a"><path class="b" d="M20.49,416.23q0,8.63.35,17.17c.13,3.21.29,6.41.5,9.6l.15,2.35c15,216.3,195.14,387.12,415.24,387.12a419,419,0,0,0,60.7-4.4,413.08,413.08,0,0,0,97.2-26.6l2.58-1.07q9.7-4.06,19.15-8.58,11.5-5.52,22.62-11.71a417.24,417.24,0,0,0,97.94-75.57c.7-.71,1.39-1.43,2.06-2.15q13.39-14.11,25.43-29.46A414.51,414.51,0,0,0,853,416.23c0-178.58-112.47-330.89-270.44-390q-12.94-4.84-26.27-8.83c-3.12-.93-6.25-1.84-9.4-2.7q-11-3-22.26-5.42-5-1.1-10.09-2l-2.6-.49A417.31,417.31,0,0,0,187,83.2q-5,3.73-9.87,7.65h0a418,418,0,0,0-41.26,37.75,0,0,0,0,0,0,0q-5.69,5.94-11.12,12.1A414.65,414.65,0,0,0,28.88,332.65v0q-1.59,7.75-2.87,15.6-.78,4.78-1.46,9.59A419.29,419.29,0,0,0,20.49,416.23Z"/><path class="c" d="M455.39,186.43c-65.79,15.95-130.73,199.65-147.68,217.9-38.39,41.32-203.7,51.18-199.81,68.2s20.54,52.43,54.63,53c28.53.45,142.44,21.8,203.61-47.72,57.3-65.12,126.59-204.41,129.66-244.12C498.28,201.56,476.77,181.24,455.39,186.43Z"/><path class="d" d="M525.06,26.78s21.83-6.24,30.06-2.08,20.41,20.7,18.93,36.88S550,114.91,542.84,111.79,503.41,34.21,525.06,26.78Z"/><path class="e" d="M444.41,491.09s1.14,8.43,3.2,23.56c1.22,8.93,2.76,20.17,4.57,33.39,1,7.52,2.15,15.67,3.35,24.4,2.07,15,4.38,31.81,6.89,49.94,8.08,58.36,18.22,130.93,29,206.54,36.27-3.86,88.51-19,114.37-32.23-6.3-51.73-12.37-95.13-15.67-115l-.59-3.45c.21.68.59,1.81,1.13,3.38,4.13,12.14,18.62,53.12,37.17,104.51,39.36-19.89,90.84-56.61,122.76-96.48-5-22.09-13.45-51.05-17.79-68.49-.08-.33-.16-.65-.25-1-.37-1.5-.75-3-1.12-4.46,0-.11-.05-.22-.08-.33-.48-1.89-1-3.76-1.41-5.59q-.09-.28-.15-.57c-.37-1.41-.73-2.81-1.08-4.19l-.54-2c-.77-3-1.54-5.88-2.3-8.69-.1-.39-.2-.79-.31-1.18-.33-1.22-.65-2.42-1-3.61s-.69-2.54-1-3.79c-.16-.6-.33-1.19-.5-1.78-.36-1.32-.72-2.61-1.09-3.88-.21-.73-.41-1.46-.62-2.18q-1.86-6.47-3.6-12.11c-.38-1.26-.76-2.47-1.14-3.66-.2-.62-.39-1.23-.58-1.83-.55-1.71-1.1-3.35-1.62-4.92-.37-1.08-.73-2.11-1.09-3.13-.17-.5-.35-1-.52-1.48-3.11-8.68-5.86-14.81-8.28-18.33-1.38-2-74.93-16.58-143.5-28.08q-7.39-1.24-14.67-2.42l-5.57-.91c-3.65-.58-7.25-1.16-10.8-1.71-23.57-3.68-45-6.66-60.47-8.17C455.4,489.71,446.12,489.53,444.41,491.09Z"/><path class="f" d="M733.47,624.28c-7.79-31.25-14.46-54.89-20-70.41-30.2-3.54-144-15.58-182.5-.6-44.59,17.32-58.84,71.57-58.84,71.57S669.16,633.21,733.47,624.28Z"/><path class="g" d="M733.08,594c-6.72-133.77-37.78-353.55-65.57-390-25.25-33.11-78.73-53.35-128.79-51.14-54.27,2.38-106.68,31.74-120.18,62.75-12.07,27.74,7.54,124.85,18.95,217.66,12.15,98.91,16.58,192.94,16.58,192.94s43.19-3.18,95.59-7.75c4-.35,3.06-54.65,7.15-55,6.12-.54,17.31,52.84,23.56,52.27C654.38,608.92,733.4,600.19,733.08,594Z"/><path class="f" d="M703.48,643.45c.11.49,10.48,43.45,19.13,75.3.67-.68,1.26-1.12,1.9-1.81-8.48-31.43-18.46-73.29-18.57-73.77a1.46,1.46,0,0,0-1.53-1.11A1.08,1.08,0,0,0,703.48,643.45Z"/><path class="f" d="M590.63,684.81a4,4,0,0,1-3.44-2.1c-16.71-30.28-35.22-40.52-35.4-40.62a3.8,3.8,0,0,1-1.86-4.72,3.19,3.19,0,0,1,4.56-1.25c.85.45,20.85,11.51,38.71,43.88a3.16,3.16,0,0,1-1.26,4.53A3.12,3.12,0,0,1,590.63,684.81Z"/><path class="f" d="M572.34,675.48c0,.28,2.07,28.13,5.46,43.29,3,13.52,5.26,57.28,6.63,86.73.82-.34,2.31-.86,3.13-1.21-1.4-29.55-4.28-72.28-7.29-85.76-3.35-15-5.39-42.64-5.41-42.92a1.47,1.47,0,0,0-1.35-1.32A1.09,1.09,0,0,0,572.34,675.48Z"/><path class="h" d="M543.24,83.46l13,59.36c1,11.17-28.41,39.73-40.82,31.16-3.64-2.51-3.41-9.94-1-18.19l4.92-54.57Z"/><path class="h" d="M540.83,57.3l5.89,26.64c1.59,11.92-3.9,23.81-15.09,28.22-10.32,4.06-17.07,6.51-28.72,3.84-9.71-2.22-13.77-12.19-12.41-25.08,1.76-16.72,8.13-31.62,12-39.41,4.13-8.33,11.36-12.6,18.56-12.41C529.19,39.3,535.85,44.24,540.83,57.3Z"/><path class="i" d="M509.17,81.22a14.83,14.83,0,0,1-6.31-3.43c-1.39-1.27-3.08,1.11-1.71,2.37a16.75,16.75,0,0,0,7,3.79C509.92,84.43,511,81.71,509.17,81.22Z"/><path class="j" d="M519.22,89.66a187,187,0,0,0-22.05-1.24A1.18,1.18,0,0,0,496,89.74c.23,2.06,1,6.05,3.16,8.12,4.28,4,14.17,6.39,21-6.46A1.19,1.19,0,0,0,519.22,89.66Z"/><path class="k" d="M57.38,334.32c0-.33,0-.66,0-1,0-1.12.05-2.25.08-3.38s.1-2.54.16-3.8c0-.86.09-1.71.14-2.56s.1-1.66.16-2.5c.05-.69.11-1.38.16-2.07,0-.34,0-.67.09-1,.08-1.07.17-2.13.28-3.2s.23-2.21.35-3.31l.12-1c.06-.55.13-1.11.2-1.67,0-.25.07-.5.1-.75l.09-.75.07-.49.27-2c.27-1.81.55-3.62.85-5.41.25-1.49.52-3,.8-4.47.46-2.45,1-4.89,1.51-7.32.25-1.09.49-2.18.77-3.26q.06-.33.15-.66l.84-3.34h0c.28-1,.55-2.08.84-3.1l.3-1.1c.28-1,.57-2,.87-3h0c.35-1.19.71-2.38,1.09-3.56s.75-2.37,1.15-3.54h0c.39-1.18.8-2.35,1.21-3.52s.84-2.35,1.27-3.51h0c.37-1,.74-2,1.13-2.94,1.15-2.92,2.37-5.79,3.62-8.64,2-4.44,4-8.79,6.25-13.05.32-.61.63-1.22,1-1.81.39-.75.8-1.49,1.21-2.23l1.27-2.27q.26-.47.54-.93c.09-.18.2-.35.3-.53a.22.22,0,0,1,.05-.08c.32-.56.64-1.11,1-1.66q1.18-2,2.43-4c.44-.71.89-1.41,1.34-2.12l.89-1.37c.42-.66.86-1.31,1.3-2q.49-.75,1-1.5l.78-1.12c.44-.62.87-1.24,1.32-1.86l1.07-1.47c.5-.69,1-1.38,1.54-2.07l1.73-2.29c2.71-3.51,5.47-7,8.4-10.28h0l1.39-1.56.07-.08,1.34-1.47c.05,0,.09-.1.14-.15l.64-.69.64-.68a2.39,2.39,0,0,1,.22-.23c.32-.34.63-.68,1-1l.26-.27c.08-.08.15-.17.24-.25l.17-.17c.37-.39.76-.78,1.15-1.17.93-1,1.87-1.89,2.81-2.81l2.3-2.18c.73-.69,1.46-1.37,2.2-2,1-.92,2-1.83,3.06-2.71.51-.46,1-.89,1.55-1.34,1.95-1.68,3.94-3.3,5.95-4.87s4.22-3.25,6.38-4.79c.72-.52,1.44-1,2.17-1.53.91-.63,1.83-1.24,2.76-1.85a2.9,2.9,0,0,1,.29-.19h0c.82-.54,1.65-1.08,2.48-1.6s1.88-1.17,2.82-1.74,1.89-1.14,2.84-1.69h0c.91-.53,1.83-1.05,2.76-1.57l.24-.14,2.77-1.5h0l2.81-1.46.32-.15c.92-.46,1.83-.92,2.76-1.36a162.14,162.14,0,0,1,16.68-6.92c1.41-.5,2.83-1,4.24-1.42s2.85-.89,4.28-1.3c.71-.21,1.42-.42,2.14-.61,1.43-.39,2.87-.76,4.31-1.12,2.17-.52,4.34-1,6.51-1.44,1-.21,2-.4,3.06-.58l2.68-.45c1.34-.22,2.7-.41,4-.6s2.71-.34,4.06-.49c3.61-.38,7.25-.65,10.9-.8h0l2.22-.07.91,0h1.33l1.83,0a158.39,158.39,0,0,1,33.94,3.69l2.53.57,2.35.56,2.68.7c.84.22,1.68.45,2.51.7,1.43.41,2.85.84,4.27,1.3s2.84.92,4.25,1.42a162.14,162.14,0,0,1,16.68,6.92l2.44,1.19.87.44c.87.44,1.73.89,2.58,1.34h0c.83.44,1.67.9,2.49,1.35l.83.46.25.14c.74.41,1.48.83,2.21,1.26.95.55,1.9,1.11,2.84,1.69s1.88,1.15,2.82,1.74,1.67,1.07,2.5,1.61l.09.07a2.19,2.19,0,0,1,.37.25l.44.28c.72.47,1.43,1,2.14,1.44,2.91,2,5.75,4.13,8.54,6.32.7.54,1.4,1.1,2.08,1.65s1.43,1.14,2.13,1.74l1,.83,1,.83c.68.58,1.36,1.16,2,1.75l2.4,2.15,1.32,1.23,1,1,.21.18.93.89.43.42.19.19,1.36,1.33a3.7,3.7,0,0,1,.28.28.12.12,0,0,1,.05,0,1.58,1.58,0,0,1,.23.22c.23.22.45.45.67.68l.3.3a4.64,4.64,0,0,1,.38.39l.41.41c.76.77,1.5,1.54,2.24,2.33q1.52,1.59,3,3.22c.49.54,1,1.09,1.46,1.64.24.27.48.54.71.82.44.5.89,1,1.32,1.53l.31.35c.72.86,1.44,1.72,2.16,2.6,1,1.19,2,2.4,2.9,3.61.67.86,1.32,1.72,2,2.58l.07.11c.49.64,1,1.29,1.45,1.94s1.05,1.44,1.57,2.17c.07.08.12.16.18.24.55.77,1.09,1.54,1.62,2.32.88,1.27,1.76,2.56,2.6,3.85.43.65.85,1.3,1.27,1.95l.84,1.32.69,1.09,0,0c.26.43.52.86.79,1.29l.14.23,1.21,2c.57,1,1.13,1.92,1.68,2.89l.16.28c.06.09.11.2.16.29.25.44.5.87.74,1.32s.5.88.74,1.33.64,1.17,1,1.76.67,1.24,1,1.87q.69,1.29,1.35,2.61,1.06,2.1,2.08,4.24l.54,1.14c.18.38.36.77.53,1.15.06.13.11.25.18.39a1.34,1.34,0,0,1,.06.12c.39.86.77,1.73,1.15,2.6.06.13.12.27.17.4.34.79.69,1.59,1,2.39.42,1,.84,2,1.25,3,.64,1.58,1.3,3.16,1.92,4.76.21.53.41,1.06.61,1.6q.87,2.34,1.69,4.69c.23.69.47,1.37.7,2.06.12.34.23.68.34,1s.22.69.34,1l.78,2.45.69,2.25c.15.53.31,1,.47,1.58.37,1.27.74,2.55,1.09,3.84l.63,2.41c.21.8.42,1.6.62,2.41s.4,1.62.58,2.42.38,1.62.56,2.43c.23,1,.44,2,.65,3,.1.45.19.91.28,1.36.05.22.09.44.13.66.17.77.31,1.54.46,2.31s.31,1.65.45,2.46.29,1.64.42,2.47c.05.24.09.5.13.75s.11.68.15,1,.11.66.16,1c.12.74.23,1.48.34,2.21s.23,1.66.34,2.48c.16,1.25.32,2.49.46,3.74s.28,2.51.4,3.76.24,2.48.34,3.72v.06h0v0c0,.22,0,.45.05.68.09,1,.16,2,.23,3.06.08,1.26.15,2.52.22,3.79s.1,2.53.14,3.8.07,2.54.1,3.81,0,2.56,0,3.83c0,2.14,0,4.26-.09,6.38,0,.59,0,1.16-.05,1.75l0,.6c0,.13,0,.25,0,.38a.76.76,0,0,1,0,.15c0,.87-.07,1.73-.12,2.59,0,.29,0,.58,0,.87s0,.37,0,.55c0,.87-.1,1.75-.16,2.61s-.12,1.69-.19,2.53c0,.2,0,.38,0,.57v0h0v.06c-.09,1-.18,2.07-.28,3.09s-.19,1.9-.29,2.85c-.13,1.13-.26,2.27-.4,3.41,0,0,0,.06,0,.09,0,.19-.05.38-.07.57-.11.82-.21,1.63-.32,2.44s-.27,1.88-.4,2.81c0,.13-.05.26-.06.39-.16,1-.31,2-.49,3q-.19,1.23-.42,2.46c-.25,1.39-.5,2.78-.77,4.15-.18.87-.36,1.73-.53,2.6s-.37,1.73-.56,2.58c-.23,1-.46,2-.71,3,0,.14-.07.28-.1.42-.08.37-.18.73-.26,1.09l-.06.22c-.24,1-.49,2-.74,2.94s-.5,1.92-.77,2.88a.13.13,0,0,1,0,.06.93.93,0,0,0,0,.13c-.13.46-.27.93-.39,1.39l-.06.2c-.48,1.71-1,3.4-1.51,5.09a1.39,1.39,0,0,1-.06.19l-.54,1.72-.06.18-.11.34c-.1.3-.19.6-.29.9l-.45,1.35c-.25.74-.5,1.48-.76,2.22s-.41,1.2-.63,1.8c-.34,1-.69,1.93-1.05,2.89-.18.47-.35.94-.53,1.4l-.54,1.4c-.36.94-.73,1.87-1.1,2.79s-.63,1.56-1,2.34c-.23.53-.45,1.06-.67,1.58l-.68,1.58q-.94,2.19-1.95,4.33c-.16.34-.31.69-.49,1s-.34.74-.51,1.11c-.68,1.43-1.37,2.83-2.08,4.24q-.66,1.32-1.35,2.61-.48.94-1,1.86c-.31.6-.63,1.19-1,1.77s-.6,1.09-.91,1.63-.6,1.08-.91,1.62l-1.27,2.18c-.16.29-.33.57-.49.85l-1.11,1.83c-.27.43-.54.88-.82,1.32l-.82,1.32-.84,1.31c-.42.66-.84,1.31-1.27,2-.84,1.29-1.72,2.58-2.6,3.85s-1.77,2.54-2.68,3.79-1.83,2.5-2.77,3.73c-.69.9-1.39,1.79-2.1,2.68a.64.64,0,0,1-.1.13c-.69.88-1.4,1.76-2.12,2.64l-1.86,2.23-.17.2c-.81,1-1.64,1.91-2.47,2.86l-.89,1h0l-.24.26,0,0-.06.07,0,.05c-.4.44-.79.88-1.2,1.31l-.08.1-1,1.06c-.06.06-.11.13-.18.19s-.25.26-.37.4l-.47.49-.23.25-.18.18,0,0s0,0,0,0l0,0h0v0l-.07.06c-.36.39-.73.77-1.09,1.14l-.21.22-.74.74-.95,1h0a.69.69,0,0,1-.14.15l-.82.81c-.44.45-.89.88-1.34,1.32l-1.7,1.61-1.08,1s0,0,0,0l-.15.14c-.65.61-1.31,1.22-2,1.81s-1.45,1.3-2.18,1.93-1.6,1.38-2.4,2.05c-.28.25-.57.48-.86.72q-3.1,2.6-6.31,5c-.53.41-1.07.81-1.61,1.21l-.26.2-.63.46-.73.53c-.29.23-.6.44-.9.66l-.55.38-.17.13-1.8,1.25c-.67.45-1.32.9-2,1.34l-.15.1-1.14.75-.12.08c-.15.1-.3.2-.46.29-.75.5-1.52,1-2.28,1.46l-1.62,1-.34.21c-.09.05-.17.11-.26.15l-.14.09-1,.61-.6.36-.14.08-1.2.71-1.5.85c-.61.35-1.23.69-1.85,1l-.06,0-.11.06c-.16.08-.32.18-.49.26l-.26.14-.08,0c-1,.56-2.08,1.11-3.13,1.65l-1.81.91-2,1-2,.92c-1.31.61-2.62,1.19-3.94,1.77-.53.23-1.06.46-1.6.67l-.36.15s0,0,0,0c-.39.17-.79.33-1.2.49l-.73.29-.27.11-1.71.67-.52.2-1.48.56-.14,0c-.64.24-1.28.48-1.93.7l-1.94.67-2,.67L283,532c-.41.14-.81.25-1.21.38l-2,.6c-1.12.32-2.24.64-3.36.94-.19,0-.37.11-.57.15-1.19.32-2.37.62-3.57.91l-2.28.53-2.28.5c-1.33.28-2.67.55-4,.79l-2.16.38-2.13.34a.48.48,0,0,1-.18,0c-.57.1-1.14.18-1.72.26l-.31,0-1.09.16-1.08.14-1.43.18c-1.12.13-2.24.25-3.35.35-.51,0-1,.11-1.53.14l-.73.07-.25,0-.86.07-2.34.16-1.86.1h-.23c-.33,0-.66,0-1,0l-.3,0-1.32,0-2.19,0h-.27l-2.26,0-2.25,0h-.17l-.82,0-.86,0h-.95c-.48,0-1,0-1.42-.06l-2.52-.11-2.21-.14c-1.49-.1-3-.23-4.44-.38l-2.22-.23q-2.24-.26-4.47-.57c-2.8-.4-5.59-.86-8.37-1.41-2.29-.46-4.57-1-6.86-1.52-1.44-.35-2.88-.72-4.31-1.11l-2.15-.61c-1.33-.39-2.67-.79-4-1.21s-2.66-.87-4-1.33l-2.64-.94q-4.75-1.74-9.42-3.79h0c-1-.44-2-.91-3.06-1.38l-2.06-1-2-1c-.32-.17-.66-.33-1-.49l-1.63-.84-.28-.15L158.89,520,157,518.94c-.89-.5-1.79-1-2.68-1.53s-1.52-.89-2.28-1.35-1.51-.91-2.26-1.38-1.69-1.06-2.52-1.61a177.86,177.86,0,0,1-16.94-12.49c-.7-.58-1.4-1.15-2.08-1.74-3.16-2.71-6.22-5.57-9.23-8.52-2.8-2.75-5.56-5.58-8.23-8.54-.44-.48-.86-1-1.29-1.45q-1.34-1.51-2.64-3.06c-.63-.74-1.25-1.49-1.86-2.23s-1.31-1.61-2-2.43l-.47-.6c-.64-.8-1.26-1.61-1.89-2.42-.77-1-1.53-2-2.29-3.07-.62-.84-1.23-1.69-1.83-2.54s-1.34-1.91-2-2.87-1.31-1.92-2-2.89c-.85-1.3-1.69-2.6-2.51-3.93s-1.64-2.64-2.43-4a212.33,212.33,0,0,1-16.3-34.15c-.43-1.17-.85-2.33-1.27-3.51s-.82-2.34-1.21-3.53-.73-2.19-1.07-3.28c0-.17-.11-.33-.16-.5-.3-.95-.59-1.9-.87-2.86s-.6-2-.88-3c-.17-.59-.33-1.19-.5-1.78-.26-1-.52-1.92-.77-2.88s-.54-2.1-.79-3.16c-.37-1.51-.73-3-1.07-4.56-.19-.85-.38-1.72-.56-2.58s-.36-1.73-.53-2.6c-.59-3-1.13-6-1.59-9.08-.08-.53-.17-1-.24-1.56s-.17-1.18-.25-1.77c-.18-1.23-.34-2.45-.49-3.68-.11-1-.23-2-.34-2.94-.24-2.24-.45-4.47-.63-6.72-.05-.67-.11-1.34-.15-2,0-.44-.07-.88-.09-1.33-.06-.84-.11-1.68-.16-2.52-.05-1.05-.11-2.1-.15-3.16v0c0-.85-.07-1.71-.08-2.55,0-.37,0-.73,0-1.09,0-.74,0-1.48,0-2.22,0-1.22,0-2.43,0-3.66S57.37,335.41,57.38,334.32Z"/><g class="l"><path class="m" d="M392.61,431.5,133.28,172.17a186.33,186.33,0,0,0-23.84,22.68c-2.93,3.33-5.7,6.78-8.4,10.29-3,3.85-5.8,7.77-8.48,11.83q-2.55,3.89-4.94,7.91c-.45.75-.89,1.51-1.32,2.26L350.44,491.28q5.4-5.2,10.46-10.95,6.12-6.94,11.59-14.46a205.45,205.45,0,0,0,19.09-32.15C391.93,433,392.26,432.24,392.61,431.5Z"/></g><path class="n" d="M411,307.31q-1.32-9.94-3.5-19.68-1.1-4.86-2.4-9.67-2.62-9.6-6.1-18.94c-.8-2.15-1.67-4.25-2.53-6.36-1.55-3.79-3.16-7.54-4.9-11.19a204.89,204.89,0,0,0-19.09-32.14q-5.46-7.52-11.59-14.48a186.24,186.24,0,0,0-25.09-23.68c-2.8-2.19-5.64-4.32-8.55-6.32a171.31,171.31,0,0,0-22.88-13.26,164.4,164.4,0,0,0-16.68-6.92q-4.23-1.48-8.52-2.72c-3.33-1-6.69-1.79-10.07-2.53a158.39,158.39,0,0,0-33.94-3.69q-3.16,0-6.31.14a158.6,158.6,0,0,1,27.69,3.55c3.37.74,6.74,1.56,10.07,2.53q4.28,1.23,8.51,2.72a163.46,163.46,0,0,1,16.68,6.92,171.42,171.42,0,0,1,22.89,13.26c2.9,2,5.74,4.13,8.54,6.32a185.72,185.72,0,0,1,25.1,23.68q6.12,7,11.58,14.48A203.36,203.36,0,0,1,379,241.47c1.75,3.65,3.36,7.4,4.91,11.19.86,2.11,1.73,4.21,2.53,6.36q3.48,9.33,6.09,18.94,1.31,4.8,2.4,9.67,2.19,9.72,3.5,19.68a230.3,230.3,0,0,1,2,30.28,227.81,227.81,0,0,1-5.48,50,219.94,219.94,0,0,1-8.49,28.6q-3.36,9-7.44,17.56a203.91,203.91,0,0,1-19.09,32.15q-5.46,7.5-11.58,14.46a186.46,186.46,0,0,1-20.83,20.25c-4.16,3.46-8.42,6.73-12.81,9.75a171.55,171.55,0,0,1-22.89,13.28,161.22,161.22,0,0,1-32,11.41,158.07,158.07,0,0,1-31.07,4.31c2.15.08,4.31.13,6.47.13A158,158,0,0,0,272.34,535a161.44,161.44,0,0,0,32-11.41,171.44,171.44,0,0,0,22.88-13.28c4.4-3,8.66-6.29,12.81-9.75a186.46,186.46,0,0,0,20.83-20.25q6.12-6.94,11.59-14.46a205.45,205.45,0,0,0,19.09-32.15q4.07-8.54,7.43-17.56a220,220,0,0,0,8.5-28.6,227.8,227.8,0,0,0,5.47-50A232,232,0,0,0,411,307.31Z"/><path class="o" d="M43,334.51c0-.86,0-1.7,0-2.55,0-.63,0-1.27.06-1.9,0-1.1.07-2.2.11-3.29s.1-2.19.17-3.28c0-.43,0-.85.07-1.27s.05-.85.08-1.27.06-1,.1-1.44l.21-2.7c.12-1.45.25-2.89.4-4.33,0-.45.09-.91.14-1.36,0-.23,0-.45.07-.68.16-1.5.34-3,.54-4.49.11-.85.22-1.7.34-2.55l.3-2.14c.13-.83.25-1.66.39-2.49s.26-1.67.4-2.49.3-1.79.47-2.67c.23-1.3.47-2.58.73-3.87.21-1.09.44-2.17.66-3.24.17-.8.34-1.61.52-2.4.24-1.09.49-2.17.74-3.25L50,279c.31-1.24.62-2.48.95-3.71q1-3.87,2.14-7.67c.33-1.11.67-2.21,1-3.32s.76-2.4,1.16-3.59.8-2.39,1.21-3.56v0c.42-1.19.84-2.37,1.28-3.54s.87-2.35,1.32-3.51c.55-1.42,1.1-2.83,1.68-4.22q1.17-2.9,2.42-5.71c.56-1.27,1.13-2.54,1.71-3.79.49-1.08,1-2.15,1.51-3.2h0c.36-.75.73-1.5,1.1-2.24.06-.11.11-.23.17-.34.34-.68.68-1.37,1-2.05l.4-.77c.25-.5.51-1,.78-1.52l.39-.74a1.62,1.62,0,0,1,.1-.18c.22-.42.43-.83.66-1.24a.31.31,0,0,1,0-.1c.22-.42.44-.82.67-1.22l.16-.31c.45-.82.9-1.64,1.36-2.45,1.68-2.95,3.4-5.86,5.19-8.71s3.63-5.65,5.53-8.4c.48-.69,1-1.38,1.44-2.05s1-1.36,1.46-2c.3-.43.62-.86.93-1.28l.92-1.23c.38-.5.75-1,1.13-1.49,1-1.33,2-2.63,3.06-3.93S95,188.28,96,187c.8-.94,1.6-1.88,2.41-2.81s1.63-1.85,2.46-2.77q2.46-2.74,5-5.39,3.42-3.51,7-6.85c.4-.37.81-.76,1.21-1.12l1.05-1c.44-.41.89-.81,1.34-1.21q3.63-3.24,7.4-6.29l1.74-1.39h0c1-.8,2-1.58,3-2.34l1.53-1.14c.66-.49,1.33-1,2-1.45l.34-.26c.77-.56,1.55-1.1,2.33-1.65.08,0,.15-.11.23-.15l.39-.29,2.83-1.9,1.17-.77q4-2.64,8.17-5c1.38-.8,2.77-1.59,4.17-2.35,2.8-1.54,5.64-3,8.52-4.38s5.78-2.68,8.73-3.91l1.1-.45c.55-.23,1.11-.44,1.66-.66s1.11-.45,1.67-.66c.85-.32,1.69-.64,2.55-1,.65-.24,1.29-.48,1.95-.7,1.59-.57,3.21-1.11,4.82-1.63q1.39-.45,2.79-.87h0l.88-.26c.42-.13.85-.26,1.28-.37s1.09-.32,1.65-.47l2.32-.62,1.17-.31,2-.5c1.17-.29,2.34-.56,3.52-.81l1.09-.24,1.28-.26c.3-.07.61-.14.92-.19l1.44-.28,1.17-.22.55-.1,1.11-.19c1.48-.27,3-.5,4.47-.71q.75-.12,1.5-.21c1.16-.17,2.33-.31,3.5-.45l2.42-.26,2.44-.23,2-.16c.65-.06,1.29-.09,1.94-.13.83-.06,1.68-.1,2.52-.14.69,0,1.37-.07,2.07-.09l2.06-.06c1.39,0,2.77-.06,4.16-.06,71.81,0,134.42,44.7,167.43,110.93a232.73,232.73,0,0,1,12.81,31.26h0a244.58,244.58,0,0,1,12,76q0,9-.63,17.78h0A242.15,242.15,0,0,1,418,405.21a227.85,227.85,0,0,1-33.32,69.58c-27.9,39.13-67.47,67.1-112.71,77.05q-7.41,1.63-15,2.6a170.65,170.65,0,0,1-21.79,1.39l-2.79,0q-3.28,0-6.56-.24l-1-.05c-1.49-.09-3-.2-4.47-.33l-2-.18c-1-.09-1.92-.2-2.87-.31s-1.62-.18-2.43-.29q-2.91-.37-5.79-.86l-2.18-.37c-.74-.14-1.49-.27-2.22-.42-1.16-.21-2.32-.45-3.47-.7-.43-.08-.87-.18-1.29-.28q-1.81-.39-3.63-.84l-1-.25-1.62-.41-.34-.09-2.64-.72c-1-.27-2-.56-3-.86-.79-.23-1.58-.47-2.36-.73-.54-.16-1.08-.33-1.61-.51l-2-.68c-.41-.13-.82-.27-1.22-.42-.68-.23-1.36-.47-2-.72s-1.05-.38-1.58-.58c-1-.37-2-.76-3-1.16l-1.4-.56-.36-.15-2.09-.86c-.72-.3-1.42-.6-2.13-.92-.42-.17-.84-.36-1.25-.55s-.83-.36-1.25-.56c-.66-.29-1.32-.6-2-.91l-1.28-.61c-.56-.27-1.12-.53-1.67-.81l-1.22-.61c-1.32-.66-2.65-1.34-3.95-2-.42-.21-.82-.43-1.23-.65-1.21-.66-2.41-1.33-3.61-2-.65-.37-1.31-.76-2-1.15s-1.39-.81-2.08-1.23a.24.24,0,0,1-.08-.06c-.73-.43-1.46-.88-2.17-1.33l-.38-.23L139.66,527c-.91-.59-1.82-1.19-2.72-1.81l-2.15-1.48c-.63-.43-1.26-.88-1.89-1.33-.38-.26-.74-.53-1.11-.8l-1.12-.82c-.61-.44-1.22-.89-1.82-1.35-.16-.12-.33-.24-.49-.38l-1-.8-.21-.16-.65-.5-.18-.14-1.08-.85c-2.53-2-5-4.06-7.44-6.21-.69-.6-1.38-1.22-2.07-1.84s-1.63-1.47-2.43-2.23l-1.19-1.12-2.15-2.06-.86-.84-1.16-1.16c-.12-.12-.25-.24-.35-.36l-1.39-1.41h0q-3.6-3.7-7-7.62c-.5-.57-1-1.13-1.48-1.71l-.76-.89c-.5-.58-1-1.17-1.49-1.77s-1-1.19-1.47-1.79-.86-1.05-1.28-1.58-.87-1.09-1.29-1.64-1-1.22-1.42-1.84q-1.35-1.76-2.66-3.55c-.36-.49-.72-1-1.07-1.49-1.83-2.52-3.59-5.1-5.31-7.71-.55-.84-1.09-1.68-1.64-2.54-.28-.44-.56-.88-.83-1.32l-.2-.31-.34-.56c-.3-.47-.59-1-.89-1.44a.15.15,0,0,1,0-.09c-.12-.19-.25-.38-.36-.58s-.38-.62-.56-.93-.38-.63-.56-.95c-.46-.77-.91-1.53-1.35-2.3a2.39,2.39,0,0,0-.13-.21c-.4-.7-.8-1.41-1.19-2.12l-.33-.59c-.27-.48-.54-1-.8-1.46-.39-.69-.76-1.39-1.13-2.09q-2.28-4.28-4.39-8.68c-.28-.59-.56-1.17-.83-1.76L64.9,439c-.32-.67-.63-1.35-.93-2-.63-1.38-1.24-2.78-1.84-4.18-.24-.55-.47-1.11-.71-1.67l-.81-2c-.45-1.1-.88-2.2-1.31-3.31a.77.77,0,0,1-.07-.17c-.41-1-.8-2.06-1.18-3.09-.54-1.44-1.06-2.88-1.56-4.33l-.66-1.88-.63-1.88c-.32-1-.64-1.94-.94-2.92a1.7,1.7,0,0,1-.1-.32c-.31-1-.62-2-.91-3-.52-1.72-1-3.45-1.5-5.2-.21-.74-.42-1.48-.61-2.22L50.66,399l-.6-2.38c-.19-.79-.39-1.59-.57-2.39-.38-1.58-.73-3.17-1.08-4.75v-.06c-.35-1.61-.68-3.23-1-4.85-.16-.82-.31-1.63-.46-2.44s-.28-1.52-.41-2.29c-.1-.57-.19-1.14-.29-1.72-.16-1-.32-1.91-.46-2.87,0-.3-.1-.59-.14-.89v-.06L45.45,373c-.07-.56-.16-1.12-.23-1.69s-.16-1.11-.23-1.67c0-.18,0-.36-.07-.54l-.21-1.72c-.11-.95-.21-1.9-.32-2.85,0-.35-.08-.7-.11-1.06-.11-1-.21-2.06-.31-3.1,0-.49-.09-1-.13-1.51,0-.26,0-.53-.07-.78v0c-.08-1.06-.17-2.13-.24-3.2s-.13-2-.19-3c0-.69-.07-1.39-.1-2.09,0-.5-.06-1-.08-1.52-.14-3.51-.22-7.06-.22-10.62C42.94,336.57,43,335.54,43,334.51Zm16.71-29.68-.27,2c0,.41-.11.83-.16,1.24,0,.25-.07.5-.1.75-.07.56-.14,1.12-.2,1.67l-.12,1c-.12,1.1-.24,2.2-.35,3.31s-.2,2.13-.28,3.2c0,.34-.07.67-.09,1-.05.69-.11,1.38-.16,2.07-.06.84-.11,1.67-.16,2.5s-.1,1.7-.14,2.56c-.06,1.26-.12,2.53-.16,3.8s-.06,2.26-.08,3.38c0,.33,0,.66,0,1,0,1.09,0,2.18,0,3.27s0,2.44,0,3.66c0,.74,0,1.48,0,2.22,0,.36,0,.72,0,1.09,0,.84.05,1.7.08,2.55v0c0,1.06.1,2.11.15,3.16,0,.84.1,1.68.16,2.52,0,.45,0,.89.09,1.33,0,.67.1,1.34.15,2,.18,2.25.39,4.48.63,6.72.11,1,.23,2,.34,2.94.15,1.23.31,2.45.49,3.68.08.59.16,1.18.25,1.77s.16,1,.24,1.56c.46,3,1,6.07,1.59,9.08.17.87.35,1.73.53,2.6s.37,1.73.56,2.58c.34,1.53.7,3,1.07,4.56.25,1.06.52,2.11.79,3.16s.51,1.92.77,2.88c.17.59.33,1.19.5,1.78.28,1,.58,2,.88,3s.57,1.91.87,2.86c0,.17.11.33.16.5.34,1.09.7,2.19,1.07,3.28s.79,2.36,1.21,3.53.84,2.34,1.27,3.51a212.33,212.33,0,0,0,16.3,34.15q1.18,2,2.43,4c.82,1.33,1.66,2.63,2.51,3.93.64,1,1.29,1.94,2,2.89s1.32,1.92,2,2.87,1.21,1.7,1.83,2.54c.76,1,1.52,2.05,2.29,3.07.63.81,1.25,1.62,1.89,2.42l.47.6c.64.82,1.29,1.62,2,2.43s1.23,1.49,1.86,2.23q1.31,1.55,2.64,3.06c.43.48.85,1,1.29,1.45a180.55,180.55,0,0,0,36.48,31.29c.83.55,1.67,1.09,2.52,1.61s1.51.93,2.26,1.38,1.52.92,2.28,1.35,1.79,1,2.68,1.53l1.94,1.06,2.19,1.16.28.15,1.63.84c.33.16.67.32,1,.49l2,1,2.06,1c1,.47,2,.94,3.06,1.38h0q4.66,2,9.42,3.79l2.64.94c1.32.46,2.65.91,4,1.33s2.67.82,4,1.21l2.15.61c1.43.39,2.87.76,4.31,1.11,2.29.56,4.57,1.06,6.86,1.52,2.78.55,5.57,1,8.37,1.41q2.24.32,4.47.57l2.22.23c1.48.15,2.95.28,4.44.38l2.21.14,2.52.11c.47,0,.94,0,1.42.06h.95l1.65,0s0,0,0,0h.17l2.25,0,2.26,0h.27l2.19,0,1.32,0,.3,0c.33,0,.66,0,1,0h.23l1.86-.1c.79,0,1.57-.1,2.34-.16l.86-.07.25,0c1.88-.14,3.77-.32,5.65-.55h0l1.37-.16a157,157,0,0,0,33.43-8c.65-.22,1.29-.46,1.93-.7l.14,0,1.48-.56c.74-.27,1.49-.57,2.23-.87a1,1,0,0,0,.27-.11c.24-.08.49-.19.73-.29.41-.16.81-.32,1.2-.49,0,0,0,0,0,0l.36-.15c.54-.21,1.07-.44,1.6-.67,1.32-.58,2.63-1.16,3.94-1.77.66-.3,1.3-.62,2-.93l2-1,1.81-.91c1-.54,2.09-1.09,3.13-1.65l.08,0,.26-.14c.17-.08.33-.18.49-.26l.11-.06.06,0c.62-.34,1.24-.68,1.85-1l1.5-.85,1.2-.71.14-.08.6-.36,1-.61.14-.09c.09,0,.17-.1.26-.15l.34-.21,1.62-1c.76-.47,1.53-1,2.28-1.46.16-.09.31-.19.46-.29l.12-.08,1.14-.75.15-.1c.67-.44,1.32-.89,2-1.34l1.8-1.25.17-.13.55-.38c.3-.22.61-.43.9-.66s.49-.34.73-.53l.63-.46.26-.2c.54-.4,1.08-.8,1.61-1.21q3.83-2.87,7.5-6h0c4-3.35,7.8-6.91,11.52-10.64q.84-.83,1.65-1.68l.21-.22c.37-.38.74-.75,1.09-1.14l.07-.06v0h0l0,0s0,0,0,0l0,0,.18-.18.23-.25.47-.49c.12-.14.25-.27.37-.4s.12-.13.18-.19l1-1.06.08-.1c.41-.43.8-.87,1.2-1.31l.05-.05.05-.07,0,0,.24-.26h0l.89-1c.83-.95,1.66-1.9,2.47-2.86l.17-.2L365.4,475c.72-.88,1.43-1.76,2.12-2.64a.64.64,0,0,0,.1-.13c.71-.89,1.41-1.78,2.1-2.68q1.41-1.84,2.77-3.73t2.68-3.79c.88-1.27,1.76-2.56,2.6-3.85.43-.65.85-1.3,1.27-2l.84-1.31.82-1.32c.28-.44.55-.89.82-1.32l1.11-1.83c.16-.28.33-.56.49-.85l1.27-2.18c.31-.54.61-1.08.91-1.62s.6-1.08.91-1.63.64-1.17,1-1.77.67-1.23,1-1.86q.69-1.29,1.35-2.61c.71-1.41,1.4-2.81,2.08-4.24.17-.37.35-.73.51-1.11s.33-.69.49-1q1-2.15,1.95-4.33l.68-1.58c.22-.52.44-1.05.67-1.58.33-.78.64-1.56,1-2.34s.74-1.85,1.1-2.79l.54-1.4c.18-.46.35-.93.53-1.4.36-1,.71-1.93,1.05-2.89q.33-.9.63-1.8c.26-.74.51-1.48.76-2.22l.45-1.35c.1-.3.19-.6.29-.9l.11-.34.06-.18.54-1.72a1.39,1.39,0,0,0,.06-.19c.53-1.69,1-3.38,1.51-5.09l.06-.2c.12-.46.26-.93.39-1.39a.93.93,0,0,1,0-.13.13.13,0,0,0,0-.06c.27-1,.52-1.92.77-2.88s.5-2,.74-2.94l.06-.22c.08-.36.18-.72.26-1.09,0-.14.07-.28.1-.42.25-1,.48-2,.71-3,.19-.85.38-1.72.56-2.58s.35-1.73.53-2.6c.27-1.37.52-2.76.77-4.15q.22-1.23.42-2.46c.18-1,.33-2,.49-3,0-.13,0-.26.06-.39.14-.94.27-1.87.4-2.81s.22-1.62.32-2.44c0-.19,0-.38.07-.57,0,0,0-.06,0-.09.14-1.14.27-2.28.4-3.41.1-1,.2-1.89.29-2.85s.19-2.06.28-3.09v-.06h0v0c0-.19,0-.37,0-.57.08-.84.14-1.68.19-2.53s.12-1.74.16-2.61c0-.18,0-.36,0-.55.06-1.06.11-2.11.14-3.17a2.71,2.71,0,0,0,0-.29.76.76,0,0,0,0-.15c0-.13,0-.25,0-.38l0-.6c0-.59,0-1.16.05-1.75.06-2.12.1-4.24.1-6.38,0-1.27,0-2.55,0-3.83,0-2.54-.12-5.08-.24-7.61-.07-1.27-.14-2.53-.22-3.79-.07-1-.14-2-.23-3.06,0-.23,0-.46-.05-.68v0h0v-.06c-.1-1.24-.21-2.48-.34-3.72s-.25-2.51-.4-3.76-.3-2.49-.46-3.74c-.11-.82-.23-1.65-.34-2.48s-.22-1.47-.34-2.21c-.05-.32-.1-.65-.16-1s-.1-.67-.15-1-.08-.51-.13-.75c-.13-.83-.28-1.65-.42-2.47s-.29-1.64-.45-2.46-.29-1.54-.46-2.31c0-.22-.08-.44-.13-.66-.09-.45-.18-.91-.28-1.36-.21-1-.42-2-.65-3-.18-.81-.36-1.62-.56-2.43s-.38-1.61-.58-2.42-.41-1.61-.62-2.41-.42-1.6-.63-2.41c-.35-1.29-.72-2.57-1.09-3.84-.16-.53-.32-1.05-.47-1.58l-.69-2.25-.78-2.45c-.12-.34-.23-.69-.34-1s-.22-.7-.34-1c-.23-.69-.47-1.37-.7-2.06q-.82-2.35-1.69-4.69c-.2-.54-.4-1.07-.61-1.6q-2.55-6.71-5.51-13.15a1.34,1.34,0,0,0-.06-.12c-.07-.14-.12-.26-.18-.39-.17-.38-.35-.77-.53-1.15s-.36-.76-.54-1.14q-1-2.15-2.08-4.24-.66-1.32-1.35-2.61c-.32-.63-.65-1.25-1-1.87s-.63-1.18-1-1.76-.49-.89-.74-1.33-.49-.88-.74-1.32c-.05-.09-.1-.2-.16-.29l-.16-.28c-.55-1-1.11-1.93-1.68-2.89l-1.21-2-.14-.23c-.27-.43-.53-.86-.79-1.29l0,0-.69-1.09-.84-1.32c-.42-.65-.84-1.3-1.27-1.95-.84-1.29-1.72-2.58-2.6-3.85-.53-.78-1.07-1.55-1.62-2.32-.06-.08-.11-.16-.18-.24-.52-.73-1-1.45-1.57-2.17s-1-1.3-1.45-1.94l-.07-.11c-.66-.86-1.31-1.72-2-2.58-.95-1.21-1.92-2.42-2.9-3.61-.72-.88-1.44-1.74-2.16-2.6l-.31-.35c-.43-.51-.88-1-1.32-1.53-.23-.28-.47-.55-.71-.82-.48-.55-1-1.09-1.46-1.64q-1.47-1.64-3-3.22c-.74-.79-1.48-1.56-2.24-2.33a5.28,5.28,0,0,0-.41-.41,2.76,2.76,0,0,0-.38-.39l-.3-.3c-.22-.23-.44-.46-.67-.68a1.58,1.58,0,0,0-.23-.22s0,0-.05,0a3.7,3.7,0,0,0-.28-.28l-1.45-1.43-.1-.09-.43-.42-.93-.89c-.59-.56-1.18-1.11-1.78-1.65l-.79-.73c-.27-.25-.53-.49-.8-.72a173.62,173.62,0,0,0-18.36-14.55c-.71-.49-1.42-1-2.14-1.44l-.44-.28a2.19,2.19,0,0,0-.37-.25l-.09-.07c-.83-.54-1.66-1.09-2.5-1.61s-1.87-1.17-2.82-1.74-1.89-1.14-2.84-1.69c-.73-.43-1.47-.85-2.21-1.26l-.25-.14-.83-.46c-.82-.45-1.66-.91-2.49-1.35h0c-.85-.45-1.71-.9-2.58-1.34l-.87-.44-2.44-1.19a162.14,162.14,0,0,0-16.68-6.92c-1.41-.5-2.83-1-4.25-1.42s-2.84-.89-4.27-1.3c-.83-.25-1.67-.48-2.51-.7a157.66,157.66,0,0,0-41.5-5.53c-.53,0-1,0-1.58,0H232c-.53,0-1,0-1.58,0q-6.27.16-12.47.85c-1.35.15-2.71.3-4.06.49s-2.69.37-4,.6l-2.68.45c-1,.18-2,.37-3.06.58-2.17.43-4.34.92-6.51,1.44-1.44.36-2.88.73-4.31,1.12-.72.19-1.43.4-2.14.61-1.43.41-2.85.84-4.28,1.3s-2.83.92-4.24,1.42A162.14,162.14,0,0,0,166,151.59c-.93.44-1.84.89-2.76,1.36l-.32.15c-.94.48-1.88,1-2.81,1.46h0c-.93.49-1.85,1-2.77,1.5l-.24.14c-.93.51-1.85,1-2.76,1.57h0c-.95.55-1.9,1.11-2.84,1.69s-1.89,1.15-2.82,1.74-1.66,1.05-2.48,1.6h0a2.9,2.9,0,0,0-.29.19c-.93.61-1.85,1.22-2.76,1.85-.73.5-1.45,1-2.17,1.53a179,179,0,0,0-24.37,20.85c-.41.41-.81.81-1.2,1.23-.09.08-.16.17-.24.25l-.26.27c-.33.33-.64.67-1,1a2.39,2.39,0,0,0-.22.23l-.64.68-.64.69s-.09.11-.14.15c-.45.48-.9,1-1.34,1.47l-.07.08-1.39,1.56h0a193.42,193.42,0,0,0-13.8,17.59c-.09.13-.18.25-.26.38L94.6,214q-.52.75-1,1.5c-.44.65-.88,1.3-1.3,2l-.89,1.37c-.45.71-.9,1.41-1.34,2.12q-1.24,2-2.43,4c-.33.55-.65,1.1-1,1.66a.22.22,0,0,0-.05.08c-.1.18-.21.35-.3.53s-.37.62-.54.93c-.43.76-.86,1.51-1.27,2.27s-.82,1.48-1.21,2.23c-.33.59-.64,1.2-1,1.81a207.7,207.7,0,0,0-9.87,21.69c-.39,1-.76,2-1.13,2.94h0c-.43,1.16-.86,2.33-1.27,3.51s-.82,2.34-1.21,3.52h0c-.4,1.17-.78,2.36-1.15,3.54S67,272,66.6,273.17h0c-.3,1-.59,2-.87,3l-.3,1.1c-.29,1-.57,2.07-.84,3.1h0c-.29,1.11-.57,2.23-.84,3.34q-.09.33-.15.66c-.28,1.08-.52,2.17-.77,3.26-.54,2.43-1,4.87-1.51,7.32-.28,1.49-.55,3-.8,4.47C60.22,301.21,59.94,303,59.67,304.83Z"/><path class="n" d="M78.41,211.26q2.67-4.27,5.53-8.4Q89.66,194.61,96,187q4.77-5.68,9.9-11,3.42-3.51,7-6.85c1.18-1.12,2.38-2.21,3.59-3.29q3.63-3.24,7.4-6.28a190.15,190.15,0,0,1,15.6-11.35q4-2.64,8.17-5c1.38-.81,2.77-1.59,4.17-2.36q4.2-2.3,8.52-4.37t8.73-3.9a171.52,171.52,0,0,1,66.09-13.25H192.23C86.07,119.36,0,217.07,0,337.59c0,47.08,13.13,90.68,35.47,126.34q2.67,4.27,5.53,8.4a214.18,214.18,0,0,0,18.6,23.24q3.34,3.62,6.83,7,5.23,5.14,10.79,9.86c2.46,2.1,5,4.13,7.53,6.09q5.76,4.41,11.8,8.35a180.43,180.43,0,0,0,34,17.45c1.49.57,3,1.13,4.49,1.66a171.32,171.32,0,0,0,57.16,9.81h42.94C129,555.83,42.94,458.12,42.94,337.59c0-43.31,11.12-83.68,30.29-117.62Q75.72,215.55,78.41,211.26Z"/><path class="p" d="M125.66,158.23q6.18-4.86,12.68-9.18h-43q-6.51,4.32-12.68,9.18Z"/><path class="p" d="M106.16,499.38H63.22q1.59,1.64,3.21,3.23c2.07,2,4.18,4,6.33,5.95h42.93Q110.8,504.14,106.16,499.38Z"/><path class="p" d="M66.36,233.13Q68.6,228.47,71,224H28.09q-2.43,4.52-4.67,9.18Z"/><path class="p" d="M72.79,454.44H29.85c1.74,3.11,3.55,6.18,5.43,9.18H78.22C76.34,460.62,74.53,457.55,72.79,454.44Z"/><path class="p" d="M47,382.16q-.84-4.55-1.5-9.18H2.52c.44,3.09,1,6.15,1.5,9.18Z"/><path class="p" d="M45.6,301.26H2.65c-.44,3-.84,6.1-1.17,9.18H44.42Q44.93,305.82,45.6,301.26Z"/><path class="h" d="M541.54,79.42a29,29,0,0,0,2.32-5.75c1.14-3.79,3.7-9.14,8.49-4.7,6.95,6.47-.21,26.29-10,25C535.05,93,539,84,541.54,79.42Z"/><path class="d" d="M519.29,59.08a6.41,6.41,0,0,1,5,.31A7.79,7.79,0,0,1,527.81,63a.94.94,0,0,1,.15.5h0a.62.62,0,0,1-.32.71,1,1,0,0,1-1.32.08,21.31,21.31,0,0,0-6.85-3.14C518.36,60.81,518.39,59.23,519.29,59.08Z"/><path class="d" d="M497.54,57.38a1.14,1.14,0,0,1,.26-.09c.69-.08,1.57-.33,2.43-.47l.18,0h.07c1.27-.17,2.49-.06,3.06,1.2a.71.71,0,0,1,0,.47,1,1,0,0,1-1.07,1.21,49.87,49.87,0,0,0-5-.24C496.25,59.44,496.4,57.56,497.54,57.38Z"/><path class="c" d="M516.71,71.38c-.1,1.45.54,2.68,1.43,2.74s1.69-1.07,1.79-2.53-.55-2.69-1.44-2.75S516.8,69.92,516.71,71.38Z"/><path class="c" d="M497.33,68.86c-.1,1.45.55,2.69,1.44,2.74s1.69-1.07,1.78-2.53-.55-2.69-1.44-2.75S497.43,67.4,497.33,68.86Z"/><path class="j" d="M503.61,177.93s-3,36.56-4.42,70.45S526.34,452,526.34,452s26.16-280.6,23.48-286.84S503.94,173.76,503.61,177.93Z"/><path class="c" d="M557.7,555.83a2.58,2.58,0,0,0,2.46-3.29c-.37-1.25-37-126.22-35.2-160.61a2.56,2.56,0,1,0-5.11-.26C518,426.92,553.72,548.82,555.24,554A2.56,2.56,0,0,0,557.7,555.83Z"/><path class="c" d="M446.53,519.67c1.92,21.78,3.44,41.57,4.58,58,25.59-10.49,89-39.8,122.81-84.57,43-56.95,82-198.83,82-198.83Z"/><path class="j" d="M517.17,169.84s28.66-12.94,38.31-30.45c0,0,9.59,13.64,10,16.76.29,2.16-30.69,28.75-30.69,28.75l-17.66-9.09-18,6s2.78-14.07,8.66-23.22c4.12-6.42,7.07-8.65,7.07-8.65s.35,8.83.45,11.75C515.45,164.08,517.17,169.84,517.17,169.84Z"/><path class="i" d="M543.81,101.16s-11.3,9-31.91,10c-11.61.57-17.09-2.05-19.65-4.46A14.89,14.89,0,0,0,502.91,116a35.64,35.64,0,0,0,15,.57l-1.22,13.49C535.28,126.39,543.81,101.16,543.81,101.16Z"/><path class="d" d="M528,26s-22.67,2.24-25.35,13.09,52.49,24.29,52.49,24.29-19.77-19.81-22-25.6S533.7,22.68,528,26Z"/><path class="h" d="M263.29,541.65s-26.8-8.72-31.92-12.6S223.3,515,220,523s10.25,15,13,18.44-20.35,10.53-27,9.2-15-6.62-14,.13,14.88,17.09,16.06,20.46,24.74,14.31,37.07,9.7,31.47-10.62,29.66-20.86S265.52,542.38,263.29,541.65Z"/><path class="g" d="M628.9,201.7c-65.79,16-130.73,199.66-147.68,217.9-38.39,41.33-230.75,104.26-226.86,121.28s5.08,52.56,39.18,53.1c28.53.45,185-31.4,246.11-100.92C597,427.94,666.24,288.65,669.31,248.94,671.79,216.84,650.28,196.52,628.9,201.7Z"/><path class="c" d="M534.44,445.19a2.57,2.57,0,0,0,2.14-4c-14.44-21.78-53.57-24.08-55.23-24.16a2.56,2.56,0,0,0-.27,5.11c.38,0,38.22,2.26,51.23,21.88A2.54,2.54,0,0,0,534.44,445.19Z"/></g></svg>