<svg xmlns="http://www.w3.org/2000/svg" viewBox="0 0 821.3 803.03"><defs><style>.a,.g{fill:#fff;}.a{opacity:0;}.b{fill:#cc5252;}.c{fill:#50456d;}.d{fill:#393351;}.e{fill:#7f635d;}.f{fill:#ed6966;}.h{fill:#ff867a;}.i{fill:#c66c67;}.j{fill:#434a59;}.k{fill:#d47328;}.l{fill:#ffae43;}</style></defs><path class="a" d="M800,400c0,5.53-.11,11-.34,16.5q-.18,4.62-.47,9.22c-.05.75-.11,1.51-.15,2.26C784.67,635.84,611.51,800,400,800a403.5,403.5,0,0,1-58.33-4.22,397.48,397.48,0,0,1-93.41-25.57l-2.48-1q-9.33-3.91-18.4-8.25-11.07-5.31-21.75-11.26a401.69,401.69,0,0,1-94.12-72.61c-.67-.69-1.33-1.38-2-2.08Q96.67,661.43,85.1,646.68A398.3,398.3,0,0,1,0,400C0,228.38,108.08,82,259.89,25.23q12.44-4.66,25.24-8.49,4.5-1.35,9-2.59,10.59-2.89,21.39-5.21c3.22-.71,6.46-1.35,9.7-2,.83-.17,1.67-.32,2.5-.47A400.95,400.95,0,0,1,640,80q4.8,3.58,9.49,7.34h0s0,0,0,0a401.81,401.81,0,0,1,39.65,36.27s0,0,0,0q5.45,5.7,10.68,11.62A399.73,399.73,0,0,1,775.11,260.8a395.56,395.56,0,0,1,16.83,58.88h0q1.51,7.46,2.76,15,.75,4.59,1.4,9.22A403.63,403.63,0,0,1,800,400Z"/><path class="b" d="M256.35,173.8s-43.72,60-54.65,142.57S84.17,440.45,87.93,525.64c1.89,42.67,67.55,72.92,106,51.58s89.75-195.74,116-268.46S294.05,161.88,256.35,173.8Z"/><path class="c" d="M554.79,769c-7.94-68.13-16.31-139.46-16.37-145-131.68,4.38-285.22-13.94-338.89-21.06-1.19,28.49-1.57,46.19-1.33,46.3-.22,21.27.45,69.88,1.5,97.52,0,0,66.15,45.66,170.76,55.45C417.49,806.61,456.72,793.1,554.79,769Z"/><path class="c" d="M370.46,799.53c47,4.41,124.47-2.93,184.33-30.58-7.94-68.13-16.31-142.13-16.37-147.63"/><path class="d" d="M538.42,621.32c-73,2.43-152.78-2.13-218.5-7.88l-96.16,6.31s45.65,28,143,35.66c69,5.43,139.81,3.16,175.24,1.38C539.77,636.84,538.45,623.86,538.42,621.32Z"/><path class="e" d="M435.45,74.81c-4.72,7.16-22.58,23.9-24.58,23.91s-26.13-56.67-26.13-56.67.11-18.67,11.26-20.11c0,0,1.79-8.33,12.05-9.85s23.9,14,28.21,23.09,6.78,10.87,7.36,15.18S439,69.43,435.45,74.81Z"/><path class="f" d="M538.42,621.32c13.5-40.27,5.11-109.49,4.47-163.84-1.37-115.19,17.23-188.3,6.27-227.52-14.07-50.3-87.64-84.58-129.74-90.42-34.63-4.81-128.86,9.32-159.68,30.9-22.82,16-32.35,150.33-45.28,264.8-9.47,83.82-28.7,155.09-16.62,171C213.36,637.91,406.74,625.7,538.42,621.32Z"/><path class="g" d="M387,127c19.74-3.17,34.63-.08,45.36,10.93s9.85,26.15,5.87,28.79-77.67-5.36-77.67-5.36S367.25,130.12,387,127Z"/><path class="h" d="M381.18,158.44c-.21-8.47.1-16.36,1.46-21.05l2.1-9.24,9.69-42.81,1.14-5,22.64-10.56,6.71,70.2c-.21,1.8-6.38,10.53-13.86,20.53C404.82,161.71,395.19,162,381.18,158.44Z"/><path class="g" d="M381.18,158.44c14,3.52,23.64,3.27,29.88,2.05-11.83,15.83-26.94,34.87-26.94,34.87S381.59,175.69,381.18,158.44Z"/><path class="i" d="M411.38,84.63s-5.81,29.13-19.08,37.92c-4.68,3.1-5.46,4.88-7.56,5.6l9.69-42.81C402.72,85,411.38,84.63,411.38,84.63Z"/><path class="h" d="M415.91,53l3.58,25.58c1,10.76-6,19.45-13.56,23.66-8.05,4.45-15.92,4.83-26.28,2-8.62-2.36-11.88-11.46-10.17-23,2.21-14.93,7.83-28,11.06-35.08,2.13-4.68,2.13-11.24,15.7-10.21C401.81,44,412.87,40.65,415.91,53Z"/><path class="h" d="M415.64,66.58a28.85,28.85,0,0,0,3.35-5c1.83-3.38,5.34-8,9-2.8,5.36,7.55-3.44,24.07-12.55,20.91C408.7,77.31,412.32,70.46,415.64,66.58Z"/><path class="j" d="M401.29,58a1.9,1.9,0,0,0-3.56-.61,1.42,1.42,0,0,0-.59.8,4.38,4.38,0,0,0,.09,2.77,1.92,1.92,0,0,0,2.92.72A3.72,3.72,0,0,0,401.29,58Z"/><path class="j" d="M382.19,54.63a2,2,0,0,0-3.09.34,4.3,4.3,0,0,0-.68,2.84,1.88,1.88,0,0,0,2.08,1.79,1.77,1.77,0,0,0,1.59-1.49c.15-.59.32-1.18.48-1.77A1.65,1.65,0,0,0,382.19,54.63Z"/><path class="e" d="M404.57,54a48.16,48.16,0,0,0-5.38-1.43c-2-.33-2,0-2.09-.71s.15-2.52.95-2.48,6.9,1,7.38,2.31S405.71,54,404.57,54Z"/><path class="e" d="M378.69,50.36a27.3,27.3,0,0,1,4.16-.21c1.53.11,1.44.39,1.67-.24s.64-2.44.06-2.57-5.11-.47-5.81.63S377.88,50.16,378.69,50.36Z"/><path class="e" d="M383.28,69.76s-4.28-1.29-6.95.67-5.71,1.61-6.78,3.75-2.31,10.25-2.67,15.06-.54,11.05,5.88,14.09,13,6.41,20.24,4.63,12.83-3.83,16.67-7.4,3.47-21.48,5.48-28.08,7.65-15.46,5.5-18-4.92,4.44-6.35,7.83-4.1,10.16-8.2,11.77S397.83,70,393,70.34,384.8,71.22,383.28,69.76Z"/><path class="f" d="M514.89,182.29S734.81,336.52,733.17,432.21s-99.56,130.49-175,116-74.88-56.79-60.7-103.34,100.06-31.53,100.06-31.53-74.9-63.65-92.95-108.44S514.89,182.29,514.89,182.29Z"/><path class="g" d="M398.11,75.65a66,66,0,0,1-21.78.59s-2.64,7.6,4.86,10.25C387.91,88.86,395.07,85.56,398.11,75.65Z"/><path class="b" d="M685.05,451.23A4.45,4.45,0,0,1,682,450c-33-32.2-97.34-31.57-98-31.56h-.07a4.42,4.42,0,0,1-.08-8.84c2.77,0,68.68-.72,104.31,34.07a4.41,4.41,0,0,1-3.08,7.57Z"/><path class="i" d="M386.16,71.71a4.7,4.7,0,0,0,1-.1,1.43,1.43,0,0,0-.71-2.77c-.14,0-1.64.29-3.09-1.51a3.85,3.85,0,0,1-1-2.4,1.44,1.44,0,0,0-1.29-1.53,1.4,1.4,0,0,0-1.54,1.23,7.16,7.16,0,0,0,6.64,7.08Z"/><path class="b" d="M546,549.91a5.14,5.14,0,0,1-.78-.07c-2.2-.39-54.08-9.87-71.3-37.15-20.61-32.68-7.77-52.48-7.21-53.3a4.41,4.41,0,0,1,7.34,4.9c-.46.73-9.95,16.28,7.34,43.69,15.13,24,64.87,33.07,65.37,33.16a4.42,4.42,0,0,1-.76,8.77Z"/><path class="k" d="M334.81,478l228.65-28.45A16.75,16.75,0,0,0,578,430.84L575.92,414l16.3,13.61a25.33,25.33,0,0,0,35.37-2.87l13.13-15.17,2.95,23.67a6.23,6.23,0,0,0,7,5.41L679.9,435a6.23,6.23,0,0,0,5.41-7l-3.54-28.45,20.82-2.59,3.5,28.12a6.57,6.57,0,0,0,7.33,5.7l33.72-4.19a6.53,6.53,0,0,0,4-2l54.79-58.42a56.89,56.89,0,0,0,15-46l-4-32-498,62a160.25,160.25,0,0,0-157.17-77C74.63,283.87,11.92,363.61,22.11,450.78A160.23,160.23,0,0,0,334.81,478Zm-225-79.41a42.2,42.2,0,1,1-36.67,47.09A42.2,42.2,0,0,1,109.79,398.57Z"/><path class="l" d="M331.65,450.9l228.66-28.45a16.75,16.75,0,0,0,14.55-18.69L572.77,387l16.3,13.61a25.33,25.33,0,0,0,35.37-2.87l13.13-15.17,2.94,23.67a6.23,6.23,0,0,0,7,5.41L676.74,408a6.23,6.23,0,0,0,5.42-6.95l-3.54-28.45L699.44,370l3.5,28.12a6.57,6.57,0,0,0,7.32,5.7L744,399.6a6.58,6.58,0,0,0,4-2l53.3-56.83A61.56,61.56,0,0,0,817.44,291l-.11-.91a29.17,29.17,0,0,0-32.55-25.35l-469,58.36a160.25,160.25,0,0,0-157.17-77C71.47,256.79,8.76,336.53,19,423.71a160.23,160.23,0,0,0,312.7,27.19Zm-225-79.41A42.2,42.2,0,1,1,70,418.58,42.2,42.2,0,0,1,106.64,371.49Z"/><path class="k" d="M296.43,378.38c-.6-5.17-6.26-8.79-1.09-9.39l451.31-52.56a9.45,9.45,0,0,1,2.19,18.77L300.5,387.42C295.34,388,297,383.54,296.43,378.38Z"/><path class="k" d="M192.35,531.23A126,126,0,1,1,302.9,391.53,126.13,126.13,0,0,1,192.35,531.23Zm-1.14-9.75A116.15,116.15,0,1,0,62.4,419.54,116.29,116.29,0,0,0,191.21,521.48Z"/><path class="h" d="M522,469.24c-5.69,5.12-35,7-47.66,7.62a6.93,6.93,0,0,1-7.27-5.53c-1.23-6.67-1.88-17.59,5-24.24,5.2-5,17.61-5.5,17.61-5.5s0-2.45,10-3.66c7-.84,9.74,6.87,10.78,11.57-.3-3.68.14-9.5,4.88-13.47C522.76,429.82,529.31,462.66,522,469.24Z"/><path class="h" d="M76,585.37c5.7,5.12,35,7,47.66,7.62a6.92,6.92,0,0,0,7.27-5.53c1.24-6.67,1.88-17.59-5-24.23-5.19-5-17.61-5.5-17.61-5.5s0-2.46-10-3.66c-7-.85-9.74,6.86-10.78,11.56.29-3.68-.15-9.5-4.88-13.46C75.22,546,68.68,578.79,76,585.37Z"/><path class="d" d="M369,799.7a6.16,6.16,0,0,1-6-4.64c-6.31-26-16.31-56.23-21.14-59.84-5.37-3.78-37.26-9.73-65-13.3a6.05,6.05,0,0,1-5.32-6.76,6.16,6.16,0,0,1,6.94-5.19c9.94,1.28,60,8,70.61,15.48,10.87,7.65,22.6,53.09,25.94,66.83a6,6,0,0,1-4.6,7.25A6.42,6.42,0,0,1,369,799.7Z"/><path class="d" d="M537.16,767.28c-.3-16.39-9.68-59-10.08-60.81a2.21,2.21,0,0,0-2.61-1.64,2.14,2.14,0,0,0-1.68,2.55c.09.43,9.69,44,10,60C533,779.67,537.38,779.35,537.16,767.28Z"/><path class="d" d="M341.13,795.75c.39-20.15-.64-51.46-.66-51.77a2.5,2.5,0,0,0-5,.18c0,.3,1.07,30.73.67,50.73l5,.86"/></svg>