<svg xmlns="http://www.w3.org/2000/svg" viewBox="0 0 800 800"><defs><style>.a,.k{fill:#fff;}.a{opacity:0;}.b{fill:none;}.c{fill:#af7b58;}.d{fill:#d47328;}.e{fill:#2b8267;}.f{fill:#24515b;}.g{fill:#ffae43;}.h{fill:#ffe9d4;}.i{fill:#ff867a;}.j{fill:#c66c67;}.l{fill:#3a4b66;}.m{fill:#ff5f4a;}.n{fill:#ffe9d9;}.o{fill:#f2c3a7;}.p{fill:#f27872;}</style></defs><path class="a" d="M800,400c0,5.53-.11,11-.34,16.5q-.18,4.62-.47,9.22c-.05.75-.11,1.51-.15,2.26C784.67,635.84,611.51,800,400,800a403.5,403.5,0,0,1-58.33-4.22,397.48,397.48,0,0,1-93.41-25.57l-2.48-1q-9.33-3.91-18.4-8.25-11.07-5.31-21.75-11.26a401.69,401.69,0,0,1-94.12-72.61c-.67-.69-1.33-1.38-2-2.08Q96.67,661.43,85.1,646.68A398.3,398.3,0,0,1,0,400C0,228.38,108.08,82,259.89,25.23q12.44-4.66,25.24-8.49,4.5-1.35,9-2.59,10.59-2.89,21.39-5.21c3.22-.71,6.46-1.35,9.7-2,.83-.17,1.67-.32,2.5-.47A400.95,400.95,0,0,1,640,80q4.8,3.58,9.49,7.34h0s0,0,0,0a401.81,401.81,0,0,1,39.65,36.27s0,0,0,0q5.45,5.7,10.68,11.62A399.73,399.73,0,0,1,775.11,260.8a395.56,395.56,0,0,1,16.83,58.88h0q1.51,7.46,2.76,15,.75,4.59,1.4,9.22A403.63,403.63,0,0,1,800,400Z"/><path class="b" d="M635.28,400c-7.66-4.09-33.9-18.41-58.2-35.44,1.91,14.54,3.67,30.55,5.17,48.21,23-5.83,44.15-9.68,52-11A2.63,2.63,0,0,1,635.28,400Z"/><path class="b" d="M296.23,224.86c-4.3-2.83-8.88-5.77-13.58-8.67C244,192.3,234.2,193.61,233.32,193.8c-3.17,1.55-3.95,3.47-4.3,5.16-1.38,6.64,3.65,17.92,9.23,24.33,2.51,2.41,16.95,9.2,40.19,16.23l.27.08,4.71-3.24A137.7,137.7,0,0,1,296.23,224.86Z"/><path class="c" d="M414.24,73.22c3.8,5.12,8.25,14.31,11.33,18.3,1.38,1.79,2.19,5.24,2.82,9.06,2.38-2.3,5.64-4.09,7.59.55s-.91,10.67-5.09,14.35c.66,4.58-.79,10.61-2,16,.17,1.19.34,2.42.51,3.67A27.59,27.59,0,0,0,446,122.22c6.06-11.06,12.19-30.32,13.15-32.29s7-6.35,7.19-9.25-3.17-8.61-6.74-13.66-8.78-2-15.16-1.56S428.6,62.4,420,62.92c-3.81.22-8.11,1.89-11.73,3.67A44.28,44.28,0,0,1,414.24,73.22Z"/><path class="d" d="M147.22,479.83c2.38-3.81,10.63-5.92,18.88-6.38V332.88c-58.89,61.94-95.56,136.74-16.84,195.65C147,514.26,143.13,486.37,147.22,479.83Z"/><path class="d" d="M273.12,256.91c-3.55-1.07-8.09-2.5-13-4.18q-4,2.93-8.21,6h20.66C272.75,258.12,272.93,257.51,273.12,256.91Z"/><path class="d" d="M282.55,237.25l.87-.89-4.71,3.24,1.61.48A20.08,20.08,0,0,1,282.55,237.25Z"/><path class="d" d="M161.89,537.21c1.37.87,2.78,1.74,4.21,2.6v-3.12C164.66,536.93,163.25,537.1,161.89,537.21Z"/><path class="e" d="M566.75,696.88c-30.84,5-88.37,7.3-165.38-.45C282.86,684.5,261.65,655,261.65,655l.72-.07a64.82,64.82,0,0,1-8.8-5.7c-3.58,28.46-3.85,71.37-1.9,122.33a397.24,397.24,0,0,0,90,24.2A403.5,403.5,0,0,0,400,800h1.93c-6.07-42.79-12.69-82.85-15.47-88-.64-.6-5.63-4.09-35.53-5.82-16.44-.95-32.09-.87-32.25-.87h0a4.48,4.48,0,0,1,0-8.95c.17,0,16.85-.09,34,.95,32.37,2,39.11,6.13,41.43,10,1.18,1.94,3.95,6.48,12.68,64,1.52,10,3,20,4.19,28.63a398,398,0,0,0,164.44-40.24C572.21,736.48,569.3,715.35,566.75,696.88Z"/><path class="f" d="M262.37,655l-.72.07s21.21,29.48,139.72,41.41c77,7.75,134.54,5.43,165.38.45h0c-1.46-10.57-2.81-20.27-4-29C504.64,680.19,325.1,689.24,262.37,655Z"/><path class="g" d="M583.34,638.78c-.09,1.08-.17,2.15-.26,3.21C583.17,640.93,583.25,639.86,583.34,638.78Z"/><path class="g" d="M584.83,615.2c-.07,1.32-.14,2.64-.21,3.94C584.69,617.84,584.76,616.52,584.83,615.2Z"/><path class="g" d="M584.62,619.17c-.07,1.27-.14,2.54-.22,3.79C584.48,621.71,584.55,620.44,584.62,619.17Z"/><path class="g" d="M584.14,627.37c-.08,1.2-.16,2.39-.24,3.56C584,629.76,584.06,628.57,584.14,627.37Z"/><path class="g" d="M585,611.1c-.07,1.31-.13,2.61-.2,3.91C584.91,613.71,585,612.41,585,611.1Z"/><path class="g" d="M583.9,631.06c-.08,1.17-.16,2.32-.24,3.47C583.74,633.38,583.82,632.23,583.9,631.06Z"/><path class="g" d="M584.38,623.4c-.07,1.23-.15,2.44-.22,3.65C584.23,625.84,584.31,624.63,584.38,623.4Z"/><path class="g" d="M339.46,243a16.34,16.34,0,0,1,3.34,5c7-.7,19.86-3.24,37.08-8.44,23.24-7,37.68-13.82,40.18-16.23,3.83-4.39,3.4-5.71,2.45-8.58a31.79,31.79,0,0,1-.9-3.17,20.72,20.72,0,0,1-.23-5.73c.25-4.73.46-8.48-8.77-12.9-.69-.12-10-1.13-42.46,22.53-13.2,9.61-25.25,19.68-31,24.6C339.3,241,339.4,242,339.46,243Z"/><path class="g" d="M283.42,236.36l-.87.89a20.08,20.08,0,0,0-2.23,2.83c14.52,4.31,25.77,6.67,32.83,7.61a16.33,16.33,0,0,1,5.91-6.91l0-.24c-4.74-3.39-13-9.23-22.86-15.68A137.7,137.7,0,0,0,283.42,236.36Z"/><path class="g" d="M407.73,611.73c85,4,146.41-3.7,177.7-9.21l-.18,4.12c1-22.81,1.6-47.07,1.78-65.8,80.88,2.53,183.68-34.27,188.93-99.26,12.72-157.71-287-240.83-287-240.83h0A189.85,189.85,0,0,0,444.1,186c1.09-10.64,1.81-24.66-.58-29.18s-6.32-3-11.35-1.46a33.37,33.37,0,0,1-8.94,1.86c-6.4.2-17.24-1.33-25-2.48-3.35-.49-6.14-.92-7.74-1.1-5.31-.59-6,.6-5.82,7.44.14,4.6-2.25,17.46-3.82,25.38,23.35-13.89,33.35-12.92,39.47-10,20.36,9.67,19.56,24.17,19.23,30.37,0,.39-.05.9-.06,1.24s.21.66.31,1c1.5,4.56,4.61,14.05-6.08,26.28-7.67,8.76-37.74,18.39-50.32,22.13L379,258.74H527.5V309H501.88a3.18,3.18,0,0,1-3.18,3.18v24.74c3.59,27.6,8.4,65.67,12.76,103.59,8.47-6.79,22.42-12.92,38-18.2,3,8.48,7.39,24.9,8.15,50.64a268.65,268.65,0,0,1-6.24,63.83c-12-2.53-22.87-6.23-32-11.16l.87.46c2.43,29.15,3.25,50.5,1,55-7.73,15.92-236.92-8.65-278.22-13.21.09-1.93.19-3.88.28-5.81h0c-.72,15-1.39,29.68-2,43.92q.42-9.3.86-18.85C262,593.73,313,607.28,407.73,611.73ZM526.47,326.47a2.61,2.61,0,0,1,3.46-3.91L566.55,355a2.61,2.61,0,1,1-3.46,3.91Zm50.61,38.12c24.3,17,50.54,31.35,58.2,35.44a2.57,2.57,0,0,1,1.25-.5,158.75,158.75,0,0,1,32.06.31c16.75,1.77,40.74,7,59.88,21.65a2.61,2.61,0,0,1-3.18,4.14c-34.83-26.74-87.63-21-88.16-20.92a2.6,2.6,0,0,1-2.89-2.29,2.42,2.42,0,0,1,0-.66c-7.85,1.36-29,5.21-52,11C580.75,395.14,579,379.13,577.08,364.59Z"/><path class="g" d="M240.8,617.62c.17-3.79.35-7.6.52-11.47C241.15,610,241,613.83,240.8,617.62Z"/><path class="g" d="M585.24,606.78c-.06,1.32-.12,2.64-.19,4C585.12,609.42,585.18,608.1,585.24,606.78Z"/><path class="g" d="M360.72,199.81c5.53-4,10.53-7.38,15.09-10.27-21,4.45-43.36,12.09-63.46,24.19,6.77,4.55,12.47,8.55,16.34,11.31C335.27,219.45,347.39,209.44,360.72,199.81Z"/><path class="g" d="M583.62,635c-.08,1.12-.16,2.22-.25,3.3C583.46,637.26,583.54,636.16,583.62,635Z"/><path class="g" d="M581.43,658.2c-.11.83-.22,1.65-.32,2.44C581.21,659.85,581.32,659,581.43,658.2Z"/><path class="g" d="M583.07,642.1c-.09,1.06-.18,2.09-.27,3.12C582.89,644.19,583,643.16,583.07,642.1Z"/><path class="g" d="M581.79,655.26q-.15,1.28-.3,2.49Q581.64,656.54,581.79,655.26Z"/><path class="g" d="M582.76,645.75c-.09,1-.18,2-.28,2.91C582.58,647.71,582.67,646.74,582.76,645.75Z"/><path class="g" d="M582.14,652.05c-.1.93-.2,1.83-.3,2.72C581.94,653.88,582,653,582.14,652.05Z"/><path class="g" d="M582.44,649.14c-.1,1-.19,1.92-.29,2.84C582.25,651.06,582.34,650.11,582.44,649.14Z"/><path class="g" d="M273.12,256.91c-.19.6-.37,1.21-.55,1.83h6.77l-4.42-1.29Z"/><path class="h" d="M421.33,94l.06.59s-.41,3.26-1,6.38a29.93,29.93,0,0,1-1.16,4.45c-1.21,3.07-3.15,5,0,5.81,1.84.48,4.42-4.06,6.11-7.43.65-.64,1.27-1.31,1.87-2,.36-.41.77-.84,1.2-1.26-.63-3.82-1.44-7.27-2.82-9.06-3.08-4-7.53-13.18-11.33-18.3a44.28,44.28,0,0,0-6-6.63c-3.07-2.7-6.56-4.74-10-4.68-6,.11-12.95,4.79-10.64,13a15.43,15.43,0,0,0,4.57,7.81C401.74,72.24,418.15,75.92,421.33,94Z"/><path class="h" d="M430.89,115.48a13.72,13.72,0,0,1-3.9,2.46c.44,3.14,1.12,7.93,1.9,13.55C430.1,126.09,431.55,120.06,430.89,115.48Z"/><path class="d" d="M500.18,460.86s.88.12,2.25.46c.26-3.53.49-6.22.55-7.65a9.54,9.54,0,0,1,.14-1.31c0-.14.05-.27.08-.41.06-.3.13-.61.22-.92,0-.14.08-.29.13-.43.1-.32.22-.64.35-1,.05-.11.09-.23.14-.34.19-.43.4-.85.63-1.27l.15-.24c.2-.35.41-.69.64-1,.09-.14.19-.27.29-.41.21-.29.42-.58.65-.87l.33-.41q.42-.49.87-1c.08-.08.14-.17.22-.25.38-.4.79-.81,1.21-1.21l.37-.34c.32-.29.64-.58,1-.87l.5-.42.58-.48c-4.36-37.92-9.17-76-12.76-103.59V460.51Z"/><path class="d" d="M517.44,524.54l-.65-.38c-.44-.26-.88-.52-1.31-.79l-.57-.35c-.61-.38-1.21-.77-1.8-1.16-3.91-2.6-6.55-7.38-8.3-13.24a47.2,47.2,0,0,1-6.11,2.81v50.66H243.37c-.09,1.93-.19,3.88-.28,5.81,41.3,4.56,270.49,29.13,278.22,13.21,2.2-4.53,1.38-25.88-1-55l-.87-.46-.61-.33Z"/><path class="i" d="M423.23,157.21a33.37,33.37,0,0,0,8.94-1.86c-.92-6.86-1.89-13.9-2.77-20.19-.17-1.25-.34-2.48-.51-3.67-.78-5.62-1.46-10.41-1.9-13.55a13.72,13.72,0,0,0,3.9-2.46c4.18-3.68,7-9.86,5.09-14.35s-5.21-2.85-7.59-.55c-.43.42-.84.85-1.2,1.26-.6.69-1.22,1.36-1.87,2-1.69,3.37-4.27,7.91-6.11,7.43-3.15-.8-1.21-2.74,0-5.81a29.93,29.93,0,0,0,1.16-4.45c.61-3.12,1-6.37,1-6.38l-.06-.59c-3.18-18.12-19.59-21.8-29.15-11.27-.18.21-.37.41-.55.63,1.66-.1,4.35-.18,4.56.25a1.41,1.41,0,0,1-.49,2c-.78.48-4.56.67-5.92.29-.73,1.15-1.55,2.48-2.42,4a1.25,1.25,0,0,1,2.08.87l0,1.41a1.23,1.23,0,0,1-2.46,0l0-1.41a1.36,1.36,0,0,1,0-.29,97.57,97.57,0,0,0-10.68,26.81C374,128,378,134.42,383.12,137.74a27.17,27.17,0,0,0,17.42,4.53c1.92-.1,3.88-.33,5.9-.59,6.61-.87,14-4.79,16.79-11.26h0s-2.15,14.08-12.17,18.52a49.08,49.08,0,0,1-12.45,3.68l-.39,2.11C406,155.88,416.83,157.41,423.23,157.21ZM406.5,93a1.23,1.23,0,0,1,1.67-.47c.63.35.35,2.38.39,2.75a1.24,1.24,0,0,1-1.21,1.25,1.27,1.27,0,0,1-1.26-1.21A4.53,4.53,0,0,1,406.5,93Zm-1.73-7.93c.63-.53,7.57,1.39,7.57,1.39,1.26.38.83,1.79.18,2.42s-7.34-.89-8.12-1.71S404.14,85.59,404.77,85.06Zm-14.1,14.38a1.49,1.49,0,0,0,1.4,1.61,1.54,1.54,0,0,1,1.1,1.86,1.58,1.58,0,0,1-1.86,1.1,4.47,4.47,0,0,1-3.7-4.51C387.69,97.53,390.75,97.47,390.67,99.44ZM384.09,113c-3.73-2.8-1.37-9.16-1.37-9.16a67.28,67.28,0,0,0,19.37,2C397,113.08,387.82,115.75,384.09,113Z"/><path class="j" d="M423.23,130.42h0c-2.81,6.47-10.18,10.39-16.79,11.26-2,.26-4,.49-5.9.59l-1.93,10.35a49.08,49.08,0,0,0,12.45-3.68C421.08,144.5,423.23,130.42,423.23,130.42Z"/><path class="k" d="M402.09,105.78a67.28,67.28,0,0,1-19.37-2s-2.36,6.36,1.37,9.16S397,113.08,402.09,105.78Z"/><path class="j" d="M391.31,104a1.58,1.58,0,0,0,1.86-1.1,1.54,1.54,0,0,0-1.1-1.86,1.49,1.49,0,0,1-1.4-1.61c.08-2-3-1.91-3.06.06A4.47,4.47,0,0,0,391.31,104Z"/><path class="l" d="M407.35,96.52a1.24,1.24,0,0,0,1.21-1.25c0-.37.24-2.4-.39-2.75a1.23,1.23,0,0,0-1.67.47,4.53,4.53,0,0,0-.41,2.32A1.27,1.27,0,0,0,407.35,96.52Z"/><path class="l" d="M387,92.25a1.23,1.23,0,0,0,2.46,0l0-1.41a1.25,1.25,0,0,0-2.08-.87,1.05,1.05,0,0,0-.36.62,1.36,1.36,0,0,0,0,.29Z"/><path class="h" d="M404.4,87.16c.78.82,7.46,2.35,8.12,1.71s1.08-2-.18-2.42c0,0-6.94-1.92-7.57-1.39S403.62,86.34,404.4,87.16Z"/><path class="h" d="M395.7,85.66a1.41,1.41,0,0,0,.49-2c-.21-.43-2.9-.35-4.56-.25-.76,0-1.3.09-1.3.09-1.14.06-1.32,1.44-1,2.18,0,.11.23.2.49.28C391.14,86.33,394.92,86.14,395.7,85.66Z"/><path class="g" d="M515.48,523.37c.43.27.87.53,1.31.79C516.35,523.9,515.91,523.64,515.48,523.37Z"/><path class="g" d="M517.44,524.54l1.34.75Z"/><path class="g" d="M505.46,446.76c.09-.14.19-.27.29-.41C505.65,446.49,505.55,446.62,505.46,446.76Z"/><path class="g" d="M506.4,445.48l.33-.41Z"/><path class="g" d="M507.6,444.08c.08-.08.14-.17.22-.25C507.74,443.91,507.68,444,507.6,444.08Z"/><path class="g" d="M503.42,451c0-.14.08-.29.13-.43C503.5,450.74,503.46,450.89,503.42,451Z"/><path class="g" d="M504.67,448l.15-.24Z"/><path class="g" d="M503.12,452.36c0-.14.05-.27.08-.41C503.17,452.09,503.14,452.22,503.12,452.36Z"/><path class="g" d="M513.11,521.86c.59.39,1.19.78,1.8,1.16C514.3,522.64,513.7,522.25,513.11,521.86Z"/><path class="g" d="M510.38,441.41l.5-.42Z"/><path class="g" d="M503.9,449.64c.05-.11.09-.23.14-.34C504,449.41,504,449.53,503.9,449.64Z"/><path class="g" d="M509,442.62l.37-.34Z"/><path class="d" d="M564.82,359.59a2.61,2.61,0,0,0,1.73-4.57l-36.62-32.46a2.61,2.61,0,0,0-3.46,3.91l36.62,32.46A2.62,2.62,0,0,0,564.82,359.59Z"/><path class="d" d="M634.25,401.76a2.42,2.42,0,0,0,0,.66,2.6,2.6,0,0,0,2.89,2.29c.53-.06,53.33-5.82,88.16,20.92a2.61,2.61,0,0,0,3.18-4.14c-19.14-14.7-43.13-19.88-59.88-21.65a158.75,158.75,0,0,0-32.06-.31,2.57,2.57,0,0,0-1.25.5A2.63,2.63,0,0,0,634.25,401.76Z"/><path class="m" d="M274.92,257.45l4.42,1.29h39.31V401.32H166.1V419.5H318.65V562.09h18.19V419.5H498.7V401.32H336.84V258.74H379l4.41-1.29c12.58-3.74,42.65-13.37,50.32-22.13,10.69-12.23,7.58-21.72,6.08-26.28-.1-.33-.23-.71-.31-1s0-.85.06-1.24c.33-6.2,1.13-20.7-19.23-30.37-6.12-2.91-16.12-3.88-39.47,10q-2.41,1.44-5,3.09c-4.56,2.89-9.56,6.28-15.09,10.27-13.33,9.63-25.45,19.64-32,25.23-3.87-2.76-9.57-6.76-16.34-11.31-6.43-4.32-13.82-9.14-21.52-13.86-43.35-26.58-57.28-26.31-65.2-22.55-7.77,3.69-12.75,9.9-14.42,18-3.28,15.81,7.33,33.11,13.4,40,5.38,6.16,21.84,12.74,35.51,17.41,4.91,1.68,9.45,3.11,13,4.18Zm95.23-42c32.48-23.66,41.77-22.65,42.46-22.53,9.23,4.42,9,8.17,8.77,12.9a20.72,20.72,0,0,0,.23,5.73,31.79,31.79,0,0,0,.9,3.17c.95,2.87,1.38,4.19-2.45,8.58-2.5,2.41-16.94,9.2-40.18,16.23-17.22,5.2-30.05,7.74-37.08,8.44a16.34,16.34,0,0,0-3.34-5c-.06-1-.16-2-.31-3C344.9,235.12,357,225.05,370.15,215.44Zm-91.71,24.08c-23.24-7-37.68-13.82-40.19-16.23-5.58-6.41-10.61-17.69-9.23-24.33.35-1.69,1.13-3.61,4.3-5.16.88-.19,10.64-1.5,49.33,22.39,4.7,2.9,9.28,5.84,13.58,8.67,9.81,6.45,18.12,12.29,22.86,15.68l0,.24a16.33,16.33,0,0,0-5.91,6.91c-7.06-.94-18.31-3.3-32.83-7.61l-1.61-.48Z"/><path class="n" d="M166.1,305.82H318.65V258.74H137.3V309h25.62A3.18,3.18,0,0,1,166.1,305.82Z"/><path class="n" d="M336.84,258.74v47.08H498.7a3.18,3.18,0,0,1,3.18,3.18H527.5V258.74Z"/><polygon class="n" points="318.65 401.32 318.65 312.19 166.1 312.19 166.1 312.19 166.1 401.32 318.65 401.32"/><path class="n" d="M318.65,562.09V419.5H166.1v53.95c11-.61,22,1.71,19,6.8-3.27,5.7-9.55,7.3-13.66,7.71,5.4.16,14.47,1.55,15.13,9,.93,10.6-1.76,11.1-1.76,11.1s2.25,13-2,19.4c-3.8,5.65-10.44,8.19-16.69,9.27v25.4Z"/><path class="n" d="M336.84,312.18v89.14H498.7V419.5H336.84V562.09H498.7V511.43c-15.31,5.82-35,5.21-48,2.23-21.43-4.92-37.14-11.77-18-19.62,9.37-3.85,34.21-11.84,39.22-20.41s-8.73-8.05-14.1-20.22,9.21-2.94,15.82-.09c5.51,2.37,20.36,6,25.1,7.19V312.18Z"/><path class="o" d="M498.7,305.82H336.84v6.36H498.7a3.18,3.18,0,0,0,3.18-3.18h0A3.18,3.18,0,0,0,498.7,305.82Z"/><path class="o" d="M318.65,312.18v-6.36H166.1a3.18,3.18,0,0,0-3.18,3.18h0a3.18,3.18,0,0,0,3.18,3.18H318.65Z"/><path class="n" d="M510.38,441.41c-.34.29-.66.58-1,.87l-.37.34c-.42.4-.83.81-1.21,1.21-.08.08-.14.17-.22.25q-.45.5-.87,1l-.33.41c-.23.29-.44.58-.65.87-.1.14-.2.27-.29.41-.23.34-.44.68-.64,1l-.15.24c-.23.42-.44.84-.63,1.27-.05.11-.09.23-.14.34-.13.32-.25.64-.35,1-.05.14-.09.29-.13.43-.09.31-.16.62-.22.92,0,.14-.06.27-.08.41a9.54,9.54,0,0,0-.14,1.31c-.06,1.43-.29,4.12-.55,7.65,6.42,1.57,24,7.93,17.44,29.52-2.47,8.11-8,13.86-15.06,17.78,1.75,5.86,4.39,10.64,8.3,13.24.59.39,1.19.78,1.8,1.16l.57.35c.43.27.87.53,1.31.79l.65.38,1.34.75.61.33c9.14,4.93,20,8.63,32,11.16A268.65,268.65,0,0,0,557.64,473c-.76-25.74-5.12-42.16-8.15-50.64-15.61,5.28-29.56,11.41-38,18.2l-.58.48Z"/><path class="i" d="M519.87,490.84c6.56-21.59-11-27.95-17.44-29.52-1.37-.34-2.25-.46-2.25-.46l-1.48-.35c-4.74-1.15-19.59-4.82-25.1-7.19-6.61-2.85-21.2-12.09-15.82.09s19.11,11.64,14.1,20.22S442,490.19,432.66,494c-19.13,7.85-3.42,14.7,18,19.62,13,3,32.72,3.59,48-2.23a47.2,47.2,0,0,0,6.11-2.81C511.88,504.7,517.4,499,519.87,490.84Z"/><path class="f" d="M394.05,707.23c-2.32-3.82-9.06-8-41.43-10-17.15-1-33.83-.95-34-.95a4.48,4.48,0,0,0,0,8.95h0c.16,0,15.81-.08,32.25.87,29.9,1.73,34.89,5.22,35.53,5.82,2.78,5.17,9.4,45.23,15.47,88,3,0,6-.06,9-.14-1.23-8.64-2.67-18.59-4.19-28.63C398,713.71,395.23,709.17,394.05,707.23Z"/><path class="n" d="M562.73,667.9c11.33-2.4,18-4.91,18.38-7.26.1-.79.21-1.61.32-2.44l.06-.45q.15-1.21.3-2.49c0-.16,0-.33.05-.49.1-.89.2-1.79.3-2.72V652c.1-.92.19-1.87.29-2.84,0-.16,0-.32,0-.48.1-.95.19-1.92.28-2.91,0-.17,0-.35,0-.53.09-1,.18-2.06.27-3.12V642c.09-1.06.17-2.13.26-3.21l0-.44c.09-1.08.17-2.18.25-3.3,0-.17,0-.34,0-.51.08-1.15.16-2.3.24-3.47v-.13c.08-1.17.16-2.36.24-3.56,0-.11,0-.22,0-.32.07-1.21.15-2.42.22-3.65l0-.44c.08-1.25.15-2.52.22-3.79v0c.07-1.3.14-2.62.21-3.94,0-.06,0-.13,0-.19.07-1.3.13-2.6.2-3.91v-.36c.07-1.32.13-2.64.19-4v-.14l.18-4.12c-31.29,5.51-92.71,13.21-177.7,9.21-94.72-4.45-145.76-18-165.54-24.57q-.44,9.54-.86,18.85s0,.09,0,.14c-.17,3.87-.35,7.68-.52,11.47-.1,2.29-.21,4.58-.31,6.83-.45,9.8,4.34,18,13.08,24.8a64.82,64.82,0,0,0,8.8,5.7C325.1,689.24,504.64,680.19,562.73,667.9Z"/><path class="p" d="M182.79,527.42c4.29-6.38,2-19.4,2-19.4s2.69-.5,1.76-11.1c-.66-7.41-9.73-8.8-15.13-9,4.11-.41,10.39-2,13.66-7.71,2.94-5.09-8-7.41-19-6.8-8.25.46-16.5,2.57-18.88,6.38-4.09,6.54-.26,34.43,2,48.7.83,5.13,1.46,8.5,1.46,8.5a56.59,56.59,0,0,0,11.17.18c1.36-.11,2.77-.28,4.21-.52C172.35,535.61,179,533.07,182.79,527.42Z"/></svg>