<svg width="248" height="96" viewBox="0 0 248 96" fill="none" xmlns="http://www.w3.org/2000/svg">
<g filter="url(#filter0_d_1234_47)">
<rect x="18" y="12" width="212" height="60" rx="12" fill="white"/>
<path d="M74.4033 34C73.9706 34 73.6233 33.9491 73.3615 33.8473C73.1033 33.7455 72.9052 33.5945 72.767 33.3945C72.6288 33.1945 72.5379 32.9491 72.4943 32.6582C72.4506 32.3636 72.4288 32.0255 72.4288 31.6436V26.2164H73.1106V31.6436C73.1106 31.9818 73.1215 32.26 73.1433 32.4782C73.1652 32.6964 73.2197 32.8691 73.307 32.9964C73.3943 33.12 73.5233 33.2073 73.6943 33.2582C73.8688 33.3055 74.1052 33.3291 74.4033 33.3291H74.4797V34H74.4033ZM80.8765 34C80.6001 34 80.3619 33.9673 80.1619 33.9018C79.9656 33.8327 79.791 33.7291 79.6383 33.5909C79.5656 33.5291 79.5019 33.46 79.4474 33.3836C79.3856 33.5145 79.3074 33.6345 79.2128 33.7436C79.1219 33.8491 79.0183 33.94 78.9019 34.0164C78.7856 34.0927 78.6619 34.1509 78.531 34.1909C78.4001 34.2345 78.2656 34.2564 78.1274 34.2564C77.9492 34.2564 77.771 34.2345 77.5928 34.1909C77.4147 34.1473 77.2292 34.0855 77.0365 34.0055C76.8438 33.9291 76.6401 33.8364 76.4256 33.7273C76.211 33.6145 75.9783 33.4909 75.7274 33.3564C75.4401 33.7855 75.0492 34 74.5547 34H74.2874V33.3291H74.5547C74.6965 33.3291 74.8165 33.3 74.9147 33.2418C75.0165 33.18 75.1092 33.0818 75.1928 32.9473C75.2801 32.8055 75.3528 32.6364 75.411 32.44C75.4728 32.24 75.5347 32.0309 75.5965 31.8127C75.6328 31.6782 75.6692 31.5436 75.7056 31.4091C75.7456 31.2745 75.7892 31.1418 75.8365 31.0109C75.8838 30.88 75.9347 30.7527 75.9892 30.6291C76.0474 30.5055 76.1147 30.3873 76.191 30.2745C76.5619 29.7255 77.0892 29.4509 77.7728 29.4509C78.0456 29.4509 78.3056 29.5218 78.5528 29.6636C78.8001 29.8018 79.0183 30.0036 79.2074 30.2691C79.3819 30.5018 79.5147 30.7618 79.6056 31.0491C79.6965 31.3364 79.7419 31.6273 79.7419 31.9218C79.7419 32.4927 79.8583 32.8855 80.091 33.1C80.1783 33.18 80.2819 33.2382 80.4019 33.2745C80.5256 33.3109 80.6838 33.3291 80.8765 33.3291H80.991V34H80.8765ZM78.1274 33.5855C78.2401 33.5855 78.3528 33.5564 78.4656 33.4982C78.5783 33.44 78.6801 33.3455 78.771 33.2145C78.8619 33.0836 78.9347 32.9127 78.9892 32.7018C79.0438 32.4873 79.071 32.2273 79.071 31.9218C79.071 31.7036 79.0347 31.4836 78.9619 31.2618C78.8928 31.0364 78.7947 30.8364 78.6674 30.6618C78.631 30.6109 78.5838 30.5545 78.5256 30.4927C78.471 30.4309 78.4056 30.3727 78.3292 30.3182C78.2528 30.2636 78.1674 30.2182 78.0728 30.1818C77.9819 30.1418 77.8819 30.1218 77.7728 30.1218C77.5328 30.1218 77.3328 30.1655 77.1728 30.2527C77.0128 30.3364 76.8765 30.4582 76.7638 30.6182C76.6547 30.7782 76.5601 30.9745 76.4801 31.2073C76.4001 31.4364 76.3219 31.6964 76.2456 31.9873C76.2056 32.1218 76.1674 32.2527 76.131 32.38C76.0947 32.5073 76.0565 32.6309 76.0165 32.7509C76.2492 32.8745 76.4638 32.9891 76.6601 33.0945C76.8601 33.1964 77.0456 33.2855 77.2165 33.3618C77.391 33.4345 77.5547 33.4909 77.7074 33.5309C77.8456 33.5673 77.9747 33.5855 78.0947 33.5855H78.1274ZM80.7624 33.3291H81.7933C81.9279 33.3291 82.0624 33.3073 82.197 33.2636C82.3351 33.22 82.4606 33.1509 82.5733 33.0564C82.686 32.9618 82.777 32.8382 82.846 32.6855C82.9188 32.5291 82.9551 32.3382 82.9551 32.1127V30.3182H83.626V32.1127C83.626 32.9127 84.0624 33.3182 84.9351 33.3291C85.0697 33.3291 85.2042 33.3073 85.3388 33.2636C85.477 33.22 85.6024 33.1509 85.7151 33.0564C85.8279 32.9618 85.9188 32.8382 85.9879 32.6855C86.0606 32.5291 86.097 32.3382 86.097 32.1127V30.3182H86.7679V32.1127C86.7679 32.9127 87.2042 33.3182 88.077 33.3291V33.3236C88.2079 33.3236 88.3388 33.3036 88.4697 33.2636C88.6042 33.22 88.7242 33.1509 88.8297 33.0564C88.9388 32.9582 89.0279 32.8327 89.097 32.68C89.166 32.5236 89.2006 32.3327 89.2006 32.1073C89.2006 31.9764 89.1897 31.8309 89.1679 31.6709C89.146 31.5073 89.117 31.3418 89.0806 31.1745C89.0479 31.0036 89.0115 30.8382 88.9715 30.6782C88.9351 30.5182 88.8988 30.3764 88.8624 30.2527C88.8297 30.1255 88.8024 30.0236 88.7806 29.9473C88.7588 29.8673 88.7479 29.8255 88.7479 29.8218L89.386 29.6255C89.3897 29.6364 89.4042 29.6855 89.4297 29.7727C89.4551 29.86 89.486 29.9709 89.5224 30.1055C89.5588 30.24 89.597 30.3927 89.637 30.5636C89.677 30.7345 89.7133 30.9109 89.746 31.0927C89.7824 31.2709 89.8115 31.4491 89.8333 31.6273C89.8588 31.8018 89.8715 31.9618 89.8715 32.1073C89.8715 32.2927 89.8533 32.4618 89.817 32.6145C89.7842 32.7636 89.7388 32.8964 89.6806 33.0127C89.626 33.1291 89.5642 33.2309 89.4951 33.3182C89.4297 33.4055 89.3642 33.4782 89.2988 33.5364C89.1388 33.6818 88.957 33.7945 88.7533 33.8745C88.5497 33.9509 88.3333 33.9909 88.1042 33.9945V34C87.4533 34 86.9479 33.82 86.5879 33.46C86.5588 33.4309 86.5315 33.4 86.506 33.3673C86.4806 33.3345 86.4551 33.3 86.4297 33.2636C86.3897 33.3218 86.3479 33.3745 86.3042 33.4218C86.2606 33.4655 86.2188 33.5055 86.1788 33.5418C86.0115 33.6909 85.817 33.8055 85.5951 33.8855C85.3733 33.9618 85.1442 34 84.9079 34C84.2497 34 83.7406 33.82 83.3806 33.46C83.3515 33.4309 83.3242 33.4 83.2988 33.3673C83.2733 33.3345 83.2479 33.3 83.2224 33.2636C83.1824 33.3218 83.1406 33.3745 83.097 33.4218C83.0533 33.4655 83.0115 33.5055 82.9715 33.5418C82.8042 33.6909 82.6133 33.8055 82.3988 33.8855C82.1879 33.9618 81.9642 34 81.7279 34H80.7624V33.3291ZM85.4206 28.5018C85.2533 28.5018 85.1097 28.4418 84.9897 28.3218C84.8697 28.2018 84.8097 28.0582 84.8097 27.8909C84.8097 27.7236 84.8697 27.58 84.9897 27.46C85.1097 27.34 85.2533 27.28 85.4206 27.28C85.5879 27.28 85.7315 27.34 85.8515 27.46C85.9715 27.58 86.0315 27.7236 86.0315 27.8909C86.0315 28.0582 85.9715 28.2018 85.8515 28.3218C85.7315 28.4418 85.5879 28.5018 85.4206 28.5018ZM87.5915 28.5018C87.4242 28.5018 87.2806 28.4418 87.1606 28.3218C87.0406 28.2018 86.9806 28.0582 86.9806 27.8909C86.9806 27.7236 87.0406 27.58 87.1606 27.46C87.2806 27.34 87.4242 27.28 87.5915 27.28C87.7588 27.28 87.9024 27.34 88.0224 27.46C88.1424 27.58 88.2024 27.7236 88.2024 27.8909C88.2024 28.0582 88.1424 28.2018 88.0224 28.3218C87.9024 28.4418 87.7588 28.5018 87.5915 28.5018ZM86.506 27.0127C86.3388 27.0127 86.1951 26.9545 86.0751 26.8382C85.9551 26.7182 85.8951 26.5727 85.8951 26.4018C85.8951 26.2345 85.9551 26.0909 86.0751 25.9709C86.1951 25.8509 86.3388 25.7909 86.506 25.7909C86.677 25.7909 86.8206 25.8509 86.937 25.9709C87.057 26.0909 87.117 26.2345 87.117 26.4018C87.117 26.5727 87.057 26.7182 86.937 26.8382C86.8206 26.9545 86.677 27.0127 86.506 27.0127ZM105.03 30.1655C105.091 30.4418 105.146 30.7345 105.193 31.0436C105.244 31.3491 105.273 31.6436 105.281 31.9273V31.9927C105.281 32.28 105.233 32.5527 105.139 32.8109C105.044 33.0691 104.901 33.2964 104.708 33.4927C104.548 33.6564 104.368 33.7818 104.168 33.8691C103.971 33.9564 103.766 34 103.551 34H96.8588C96.626 34 96.4042 33.9618 96.1933 33.8855C95.986 33.8055 95.8024 33.6891 95.6424 33.5364C95.577 33.4782 95.5115 33.4073 95.446 33.3236C95.3806 33.2364 95.3206 33.1345 95.266 33.0182C95.2151 32.9018 95.1715 32.7691 95.1351 32.62C95.1024 32.4709 95.086 32.3036 95.086 32.1182C95.086 31.9982 95.0951 31.8691 95.1133 31.7309C95.1315 31.5891 95.1533 31.4491 95.1788 31.3109C95.2079 31.1691 95.2388 31.0327 95.2715 30.9018C95.3042 30.7673 95.3333 30.6491 95.3588 30.5473C95.3879 30.4418 95.4115 30.3564 95.4297 30.2909C95.4515 30.2218 95.4642 30.1836 95.4679 30.1764L96.106 30.3782L96.0842 30.4655C96.066 30.5273 96.0424 30.6055 96.0133 30.7C95.9879 30.7945 95.9606 30.9036 95.9315 31.0273C95.9024 31.1473 95.8733 31.2709 95.8442 31.3982C95.8188 31.5255 95.797 31.6527 95.7788 31.78C95.7642 31.9036 95.757 32.0164 95.757 32.1182C95.757 32.3436 95.7897 32.5327 95.8551 32.6855C95.9206 32.8382 96.0042 32.9636 96.106 33.0618C96.2115 33.1564 96.3297 33.2255 96.4606 33.2691C96.5915 33.3091 96.7242 33.3291 96.8588 33.3291H103.551C103.806 33.3291 104.031 33.2273 104.228 33.0236C104.355 32.8964 104.451 32.7382 104.517 32.5491C104.579 32.3745 104.61 32.1836 104.61 31.9764V31.9436C104.602 31.6818 104.575 31.4055 104.528 31.1145C104.481 30.82 104.428 30.54 104.37 30.2745L105.03 30.1655ZM99.1224 29.56C98.9551 29.56 98.8115 29.5018 98.6915 29.3855C98.5715 29.2655 98.5115 29.12 98.5115 28.9491C98.5115 28.7818 98.5715 28.6382 98.6915 28.5182C98.8115 28.3982 98.9551 28.3382 99.1224 28.3382C99.2897 28.3382 99.4333 28.3982 99.5533 28.5182C99.6733 28.6382 99.7333 28.7818 99.7333 28.9491C99.7333 29.12 99.6733 29.2655 99.5533 29.3855C99.4333 29.5018 99.2897 29.56 99.1224 29.56ZM101.293 29.56C101.126 29.56 100.982 29.5018 100.862 29.3855C100.742 29.2655 100.682 29.12 100.682 28.9491C100.682 28.7818 100.742 28.6382 100.862 28.5182C100.982 28.3982 101.126 28.3382 101.293 28.3382C101.461 28.3382 101.604 28.3982 101.724 28.5182C101.844 28.6382 101.904 28.7818 101.904 28.9491C101.904 29.12 101.844 29.2655 101.724 29.3855C101.604 29.5018 101.461 29.56 101.293 29.56ZM111.981 30.64C111.981 31.0836 111.993 31.4727 112.019 31.8073C112.048 32.1418 112.102 32.4218 112.182 32.6473C112.262 32.8727 112.373 33.0436 112.515 33.16C112.661 33.2727 112.85 33.3291 113.082 33.3291H113.262V34H113.082C112.879 34 112.699 33.9727 112.542 33.9182C112.386 33.8636 112.246 33.7891 112.122 33.6945C112.002 33.6 111.899 33.4873 111.811 33.3564C111.724 33.2255 111.651 33.0836 111.593 32.9309C111.484 33.1418 111.348 33.3164 111.184 33.4545C111.021 33.5927 110.83 33.7018 110.611 33.7818C110.393 33.8618 110.144 33.9182 109.864 33.9509C109.584 33.9836 109.273 34 108.931 34H106.733V33.3291H108.931C109.306 33.3145 109.624 33.2836 109.886 33.2364C110.151 33.1891 110.371 33.1218 110.546 33.0345C110.724 32.9436 110.864 32.8309 110.966 32.6964C111.068 32.5582 111.144 32.3927 111.195 32.2C111.246 32.0036 111.277 31.7764 111.288 31.5182C111.302 31.26 111.31 30.9655 111.31 30.6345V26.2109H111.981V30.64ZM107.393 32.1891V26.2164H108.075V32.1891H107.393ZM117.106 33.5855C117.218 33.5855 117.331 33.5564 117.444 33.4982C117.56 33.44 117.662 33.3455 117.749 33.2145C117.84 33.0836 117.913 32.9127 117.968 32.7018C118.026 32.4873 118.055 32.2273 118.055 31.9218C118.055 31.7036 118.018 31.4836 117.946 31.2618C117.877 31.0364 117.778 30.8364 117.651 30.6618C117.615 30.6109 117.568 30.5545 117.509 30.4927C117.455 30.4309 117.389 30.3727 117.313 30.3182C117.237 30.2636 117.151 30.2182 117.057 30.1818C116.962 30.1418 116.86 30.1218 116.751 30.1218C116.515 30.1218 116.317 30.1655 116.157 30.2527C115.997 30.3364 115.86 30.4582 115.748 30.6182C115.638 30.7782 115.544 30.9745 115.464 31.2073C115.384 31.4364 115.304 31.6964 115.224 31.9873C115.188 32.1218 115.151 32.2527 115.115 32.38C115.078 32.5073 115.038 32.6309 114.995 32.7509C115.228 32.8673 115.444 32.9782 115.644 33.0836C115.844 33.1891 116.029 33.28 116.2 33.3564C116.371 33.4327 116.531 33.4909 116.68 33.5309C116.808 33.5673 116.929 33.5855 117.046 33.5855H117.106ZM116.751 29.4509C117.028 29.4509 117.288 29.5218 117.531 29.6636C117.778 29.8018 117.998 30.0036 118.191 30.2691C118.362 30.5018 118.493 30.7618 118.584 31.0491C118.678 31.3364 118.726 31.6273 118.726 31.9218C118.726 32.1109 118.713 32.3 118.688 32.4891C118.662 32.6745 118.622 32.8545 118.568 33.0291C118.517 33.2036 118.448 33.3655 118.36 33.5145C118.277 33.6636 118.175 33.7927 118.055 33.9018C117.935 34.0109 117.797 34.0964 117.64 34.1582C117.484 34.2236 117.306 34.2564 117.106 34.2564C116.924 34.2564 116.746 34.2327 116.571 34.1855C116.397 34.1418 116.213 34.08 116.02 34C115.831 33.92 115.629 33.8255 115.415 33.7164C115.2 33.6073 114.964 33.4873 114.706 33.3564C114.426 33.7855 114.037 34 113.538 34H113.053V33.3291H113.538C113.68 33.3291 113.8 33.3 113.898 33.2418C114 33.18 114.091 33.0818 114.171 32.9473C114.258 32.8055 114.333 32.6364 114.395 32.44C114.457 32.24 114.518 32.0309 114.58 31.8127C114.653 31.5436 114.731 31.2764 114.815 31.0109C114.902 30.7455 115.022 30.5 115.175 30.2745C115.549 29.7255 116.075 29.4509 116.751 29.4509ZM122.521 34C122.088 34 121.741 33.9491 121.479 33.8473C121.221 33.7455 121.022 33.5945 120.884 33.3945C120.746 33.1945 120.655 32.9491 120.611 32.6582C120.568 32.3636 120.546 32.0255 120.546 31.6436V26.2164H121.228V31.6436C121.228 31.9818 121.239 32.26 121.261 32.4782C121.282 32.6964 121.337 32.8691 121.424 32.9964C121.511 33.12 121.641 33.2073 121.811 33.2582C121.986 33.3055 122.222 33.3291 122.521 33.3291H122.597V34H122.521ZM127.423 34C127.383 34 127.335 33.9945 127.281 33.9836C127.23 33.9727 127.165 33.9491 127.085 33.9127C127.008 33.8764 126.914 33.8255 126.801 33.76C126.692 33.6909 126.561 33.6018 126.408 33.4927C126.357 33.4564 126.305 33.4182 126.25 33.3782C126.195 33.3345 126.139 33.2909 126.081 33.2473C125.623 33.4982 125.119 33.6873 124.57 33.8145C124.021 33.9382 123.408 34 122.732 34H122.399V33.3291H122.732C123.332 33.3291 123.857 33.28 124.308 33.1818C124.763 33.08 125.161 32.9473 125.503 32.7836C125.448 32.74 125.394 32.6964 125.339 32.6527C125.285 32.6055 125.228 32.5564 125.17 32.5055C124.963 32.3309 124.763 32.1582 124.57 31.9873C124.377 31.8164 124.206 31.6655 124.057 31.5345C123.912 31.4 123.794 31.2909 123.703 31.2073L123.566 31.0818L123.457 30.9782V30.8309C123.457 30.3473 123.59 29.9764 123.855 29.7182C124.132 29.4564 124.537 29.3255 125.072 29.3255H126.91C127.059 29.3255 127.203 29.3436 127.341 29.38C127.479 29.4164 127.612 29.4691 127.739 29.5382C127.994 29.6873 128.179 29.8836 128.295 30.1273C128.372 30.2836 128.41 30.4455 128.41 30.6127C128.41 30.6709 128.397 30.7727 128.372 30.9182C128.346 31.06 128.248 31.2327 128.077 31.4364C127.877 31.6836 127.665 31.9291 127.439 32.1727C127.214 32.4127 126.959 32.64 126.675 32.8545L126.73 32.8982C126.854 32.9891 126.959 33.0636 127.046 33.1218C127.134 33.1764 127.205 33.2182 127.259 33.2473C127.314 33.2764 127.354 33.2964 127.379 33.3073C127.408 33.3182 127.426 33.3255 127.434 33.3291H129.446V34H127.423ZM124.134 30.6891C124.192 30.7436 124.268 30.8164 124.363 30.9073C124.461 30.9945 124.572 31.0945 124.695 31.2073C124.819 31.3164 124.954 31.4345 125.099 31.5618C125.245 31.6855 125.394 31.8127 125.546 31.9436C125.652 32.0345 125.752 32.12 125.846 32.2C125.941 32.28 126.034 32.3564 126.125 32.4291C126.437 32.2145 126.706 31.9836 126.932 31.7364C127.161 31.4891 127.372 31.2473 127.565 31.0109C127.594 30.9745 127.621 30.9345 127.646 30.8909C127.675 30.8473 127.697 30.8 127.712 30.7491C127.726 30.6982 127.732 30.6455 127.728 30.5909C127.728 30.5327 127.715 30.4745 127.69 30.4164C127.628 30.2891 127.526 30.1873 127.385 30.1109C127.243 30.0345 127.085 29.9964 126.91 29.9964H125.072C124.894 29.9964 124.745 30.0127 124.625 30.0455C124.508 30.0745 124.414 30.12 124.341 30.1818C124.272 30.24 124.221 30.3127 124.188 30.4C124.159 30.4836 124.141 30.58 124.134 30.6891ZM133.278 33.5855C133.39 33.5855 133.503 33.5564 133.616 33.4982C133.732 33.44 133.834 33.3455 133.921 33.2145C134.012 33.0836 134.085 32.9127 134.139 32.7018C134.198 32.4873 134.227 32.2273 134.227 31.9218C134.227 31.7036 134.19 31.4836 134.118 31.2618C134.049 31.0364 133.95 30.8364 133.823 30.6618C133.787 30.6109 133.739 30.5545 133.681 30.4927C133.627 30.4309 133.561 30.3727 133.485 30.3182C133.409 30.2636 133.323 30.2182 133.229 30.1818C133.134 30.1418 133.032 30.1218 132.923 30.1218C132.687 30.1218 132.489 30.1655 132.329 30.2527C132.169 30.3364 132.032 30.4582 131.919 30.6182C131.81 30.7782 131.716 30.9745 131.636 31.2073C131.556 31.4364 131.476 31.6964 131.396 31.9873C131.359 32.1218 131.323 32.2527 131.287 32.38C131.25 32.5073 131.21 32.6309 131.167 32.7509C131.399 32.8673 131.616 32.9782 131.816 33.0836C132.016 33.1891 132.201 33.28 132.372 33.3564C132.543 33.4327 132.703 33.4909 132.852 33.5309C132.979 33.5673 133.101 33.5855 133.218 33.5855H133.278ZM132.923 29.4509C133.199 29.4509 133.459 29.5218 133.703 29.6636C133.95 29.8018 134.17 30.0036 134.363 30.2691C134.534 30.5018 134.665 30.7618 134.756 31.0491C134.85 31.3364 134.898 31.6273 134.898 31.9218C134.898 32.1109 134.885 32.3 134.859 32.4891C134.834 32.6745 134.794 32.8545 134.739 33.0291C134.689 33.2036 134.619 33.3655 134.532 33.5145C134.449 33.6636 134.347 33.7927 134.227 33.9018C134.107 34.0109 133.969 34.0964 133.812 34.1582C133.656 34.2236 133.478 34.2564 133.278 34.2564C133.096 34.2564 132.918 34.2327 132.743 34.1855C132.569 34.1418 132.385 34.08 132.192 34C132.003 33.92 131.801 33.8255 131.587 33.7164C131.372 33.6073 131.136 33.4873 130.878 33.3564C130.598 33.7855 130.209 34 129.71 34H129.225V33.3291H129.71C129.852 33.3291 129.972 33.3 130.07 33.2418C130.172 33.18 130.263 33.0818 130.343 32.9473C130.43 32.8055 130.505 32.6364 130.567 32.44C130.629 32.24 130.69 32.0309 130.752 31.8127C130.825 31.5436 130.903 31.2764 130.987 31.0109C131.074 30.7455 131.194 30.5 131.347 30.2745C131.721 29.7255 132.247 29.4509 132.923 29.4509ZM153.207 29.6255C153.211 29.6364 153.226 29.6855 153.251 29.7727C153.277 29.86 153.307 29.9709 153.344 30.1055C153.38 30.24 153.418 30.3927 153.458 30.5636C153.498 30.7345 153.535 30.9109 153.567 31.0927C153.604 31.2709 153.633 31.4491 153.655 31.6273C153.68 31.8018 153.693 31.9618 153.693 32.1073C153.693 32.2927 153.675 32.4618 153.638 32.6145C153.606 32.7636 153.56 32.8964 153.502 33.0127C153.447 33.1291 153.386 33.2309 153.317 33.3182C153.251 33.4055 153.186 33.4782 153.12 33.5364C152.96 33.6818 152.778 33.7945 152.575 33.8745C152.371 33.9509 152.155 33.9909 151.926 33.9945V34C151.275 34 150.769 33.82 150.409 33.46C150.38 33.4309 150.353 33.4 150.327 33.3673C150.302 33.3345 150.277 33.3 150.251 33.2636C150.211 33.3218 150.169 33.3745 150.126 33.4218C150.082 33.4655 150.04 33.5055 150 33.5418C149.833 33.6909 149.642 33.8055 149.427 33.8855C149.217 33.9618 148.993 34 148.757 34C148.164 34 147.7 33.8455 147.366 33.5364V34.2782C147.366 35.1 147.173 35.7327 146.787 36.1764C146.547 36.4564 146.238 36.6636 145.86 36.7982C145.471 36.9436 144.998 37.0164 144.442 37.0164H143.138C142.615 37.0164 142.138 36.9018 141.709 36.6727C141.284 36.4436 140.938 36.1182 140.673 35.6964C140.582 35.5509 140.502 35.3982 140.433 35.2382C140.367 35.0782 140.315 34.9073 140.275 34.7255C140.198 34.4091 140.16 34.0745 140.16 33.7218C140.16 33.66 140.162 33.6 140.166 33.5418C140.209 32.6327 140.486 31.6473 140.995 30.5855L141.6 30.8745C141.378 31.3327 141.204 31.7745 141.077 32.2C140.953 32.6255 140.877 33.0273 140.847 33.4055C140.837 33.5327 140.831 33.6564 140.831 33.7764C140.831 34.0164 140.858 34.2709 140.913 34.54C140.967 34.8127 141.077 35.08 141.24 35.3418C141.444 35.6618 141.709 35.9091 142.037 36.0836C142.367 36.2582 142.735 36.3455 143.138 36.3455H144.442C145.318 36.3455 145.931 36.1436 146.28 35.74C146.557 35.42 146.695 34.9327 146.695 34.2782V30.3182H147.366V31.5182C147.366 32.2309 147.506 32.7273 147.786 33.0073C147.891 33.1164 148.022 33.1982 148.178 33.2527C148.338 33.3036 148.531 33.3291 148.757 33.3291C148.891 33.3291 149.026 33.3073 149.16 33.2636C149.298 33.22 149.424 33.1509 149.537 33.0564C149.649 32.9618 149.74 32.8382 149.809 32.6855C149.882 32.5291 149.918 32.3382 149.918 32.1127V30.3182H150.589V32.1127C150.589 32.9127 151.026 33.3182 151.898 33.3291V33.3236C152.029 33.3236 152.16 33.3036 152.291 33.2636C152.426 33.22 152.546 33.1509 152.651 33.0564C152.76 32.9582 152.849 32.8327 152.918 32.68C152.987 32.5236 153.022 32.3327 153.022 32.1073C153.022 31.9764 153.011 31.8309 152.989 31.6709C152.967 31.5073 152.938 31.3418 152.902 31.1745C152.869 31.0036 152.833 30.8382 152.793 30.6782C152.757 30.5182 152.72 30.3764 152.684 30.2527C152.651 30.1255 152.624 30.0236 152.602 29.9473C152.58 29.8673 152.569 29.8255 152.569 29.8218L153.207 29.6255ZM149.029 28.5509C148.862 28.5509 148.718 28.4909 148.598 28.3709C148.478 28.2509 148.418 28.1073 148.418 27.94C148.418 27.7727 148.478 27.6291 148.598 27.5091C148.718 27.3891 148.862 27.3291 149.029 27.3291C149.197 27.3291 149.34 27.3891 149.46 27.5091C149.58 27.6291 149.64 27.7727 149.64 27.94C149.64 28.1073 149.58 28.2509 149.46 28.3709C149.34 28.4909 149.197 28.5509 149.029 28.5509ZM151.2 28.5509C151.033 28.5509 150.889 28.4909 150.769 28.3709C150.649 28.2509 150.589 28.1073 150.589 27.94C150.589 27.7727 150.649 27.6291 150.769 27.5091C150.889 27.3891 151.033 27.3291 151.2 27.3291C151.367 27.3291 151.511 27.3891 151.631 27.5091C151.751 27.6291 151.811 27.7727 151.811 27.94C151.811 28.1073 151.751 28.2509 151.631 28.3709C151.511 28.4909 151.367 28.5509 151.2 28.5509ZM150.115 27.0618C149.947 27.0618 149.804 27.0036 149.684 26.8873C149.564 26.7673 149.504 26.6218 149.504 26.4509C149.504 26.2836 149.564 26.14 149.684 26.02C149.804 25.9 149.947 25.84 150.115 25.84C150.286 25.84 150.429 25.9 150.546 26.02C150.666 26.14 150.726 26.2836 150.726 26.4509C150.726 26.6218 150.666 26.7673 150.546 26.8873C150.429 27.0036 150.286 27.0618 150.115 27.0618ZM153.252 37.0164V36.3509H154.01C154.865 36.3509 155.49 36.1273 155.886 35.68C156.25 35.2655 156.432 34.6455 156.432 33.82V30.3182H157.103V33.82C157.103 34.8745 156.841 35.6709 156.317 36.2091C155.797 36.7473 155.028 37.0164 154.01 37.0164H153.252ZM156.656 28.5673C156.488 28.5673 156.345 28.5091 156.225 28.3927C156.105 28.2727 156.045 28.1273 156.045 27.9564C156.045 27.7891 156.105 27.6455 156.225 27.5255C156.345 27.4055 156.488 27.3455 156.656 27.3455C156.826 27.3455 156.97 27.4055 157.086 27.5255C157.206 27.6455 157.266 27.7891 157.266 27.9564C157.266 28.1273 157.206 28.2727 157.086 28.3927C156.97 28.5091 156.826 28.5673 156.656 28.5673ZM158.303 37.0164V36.3509H159.061C159.915 36.3509 160.541 36.1273 160.937 35.68C161.301 35.2655 161.483 34.6455 161.483 33.82V30.3182H162.154V33.82C162.154 34.8745 161.892 35.6709 161.368 36.2091C160.848 36.7473 160.079 37.0164 159.061 37.0164H158.303ZM164.575 34H163.894V26.2164H164.575V34Z" fill="#3E3F66"/>
<path opacity="0.9" d="M88.6717 54C88.2237 54.928 87.9997 55.736 87.9997 56.424C87.9997 57.152 88.2197 57.704 88.6597 58.08C89.0997 58.456 89.7277 58.644 90.5437 58.644C91.1597 58.644 91.6837 58.532 92.1157 58.308C92.5477 58.092 92.8677 57.808 93.0757 57.456C93.2917 57.112 93.3997 56.748 93.3997 56.364C93.3997 56.02 93.3277 55.568 93.1837 55.008C93.0397 54.448 92.8797 53.912 92.7037 53.4L93.7237 52.908C93.9637 53.604 94.1397 54.232 94.2517 54.792C94.3717 55.352 94.4317 55.876 94.4317 56.364C94.4317 56.98 94.2757 57.564 93.9637 58.116C93.6517 58.668 93.1997 59.112 92.6077 59.448C92.0237 59.792 91.3357 59.964 90.5437 59.964C89.7917 59.964 89.1437 59.812 88.5997 59.508C88.0557 59.212 87.6397 58.808 87.3517 58.296C87.0717 57.784 86.9317 57.208 86.9317 56.568C86.9317 56.088 87.0117 55.576 87.1717 55.032C87.3317 54.488 87.5197 54 87.7357 53.568L88.6717 54ZM89.8717 53.04C89.8717 53.04 90.0797 52.832 90.4957 52.416L90.8077 52.104L91.1197 52.416C91.5357 52.832 91.7437 53.04 91.7437 53.04L91.4317 53.352C91.0157 53.768 90.8077 53.976 90.8077 53.976C90.8077 53.976 90.5997 53.768 90.1837 53.352L89.8717 53.04ZM98.0595 57C97.2115 57 96.6155 56.78 96.2715 56.34C95.9355 55.892 95.7675 55.184 95.7675 54.216C95.7675 53.336 95.7435 52.336 95.6955 51.216C95.6555 50.088 95.5955 49.256 95.5155 48.72L96.6555 48.468C96.7195 48.924 96.7715 49.652 96.8115 50.652C96.8515 51.644 96.8715 52.568 96.8715 53.424V53.952C96.8635 54.432 96.8835 54.788 96.9315 55.02C96.9795 55.252 97.0875 55.42 97.2555 55.524C97.4235 55.628 97.6915 55.68 98.0595 55.68H98.1195L98.1915 56.34L98.1195 57H98.0595ZM98.0285 55.68H98.2445C98.5645 55.68 98.8605 55.588 99.1325 55.404C99.4045 55.22 99.6365 54.94 99.8285 54.564C100.18 53.876 100.536 53.332 100.896 52.932C101.256 52.532 101.648 52.32 102.072 52.296C102.496 52.272 102.864 52.384 103.176 52.632C103.496 52.88 103.74 53.208 103.908 53.616C104.076 54.024 104.16 54.452 104.16 54.9C104.16 55.34 104.076 55.744 103.908 56.112C103.74 56.472 103.492 56.744 103.164 56.928C103.004 57.016 102.82 57.06 102.612 57.06C101.98 57.06 101.056 56.656 99.8405 55.848L100.356 54.756C100.852 55.092 101.3 55.356 101.7 55.548C102.1 55.74 102.408 55.836 102.624 55.836C102.688 55.836 102.752 55.82 102.816 55.788C102.936 55.724 103.028 55.62 103.092 55.476C103.156 55.324 103.188 55.152 103.188 54.96C103.188 54.592 103.092 54.256 102.9 53.952C102.708 53.648 102.46 53.496 102.156 53.496C101.916 53.496 101.66 53.66 101.388 53.988C101.124 54.316 100.832 54.82 100.512 55.5C100.272 55.996 99.9565 56.372 99.5645 56.628C99.1725 56.876 98.7245 57 98.2205 57H98.0045L98.0285 55.68ZM105.011 59.304C106.323 59.024 107.287 58.652 107.903 58.188C108.519 57.732 108.827 57.156 108.827 56.46C108.827 56.004 108.767 55.548 108.647 55.092C108.527 54.636 108.351 54.256 108.119 53.952C107.895 53.64 107.631 53.468 107.327 53.436C107.151 53.412 106.979 53.472 106.811 53.616C106.651 53.752 106.519 53.932 106.415 54.156C106.319 54.38 106.271 54.596 106.271 54.804C106.271 54.972 106.303 55.104 106.367 55.2C106.495 55.392 106.787 55.52 107.243 55.584C107.707 55.648 108.307 55.68 109.043 55.68H110.219L110.291 56.34L110.219 57L108.743 57.012C107.871 57.012 107.163 56.944 106.619 56.808C106.083 56.664 105.707 56.372 105.491 55.932C105.355 55.644 105.287 55.328 105.287 54.984C105.287 54.552 105.379 54.12 105.563 53.688C105.755 53.256 106.007 52.9 106.319 52.62C106.639 52.34 106.983 52.2 107.351 52.2C107.823 52.2 108.243 52.408 108.611 52.824C108.987 53.232 109.275 53.76 109.475 54.408C109.683 55.048 109.787 55.692 109.787 56.34C109.787 57.38 109.399 58.26 108.623 58.98C107.855 59.7 106.783 60.196 105.407 60.468L105.011 59.304ZM110.063 55.68H110.567C111.407 55.68 111.999 55.604 112.343 55.452C112.687 55.292 112.859 55.044 112.859 54.708C112.851 54.484 112.767 54.12 112.607 53.616C112.447 53.112 112.315 52.756 112.211 52.548L113.207 52.008C113.367 52.328 113.523 52.756 113.675 53.292C113.835 53.828 113.915 54.296 113.915 54.696C113.915 55.456 113.651 56.032 113.123 56.424C112.595 56.808 111.803 57 110.747 57H110.063V55.68ZM110.291 50.496C110.691 50.096 110.891 49.896 110.891 49.896L111.203 49.584L112.103 50.496L111.203 51.396L110.291 50.496ZM112.427 50.496C112.827 50.096 113.027 49.896 113.027 49.896L113.339 49.584L114.239 50.496L113.339 51.396L112.427 50.496ZM120.348 54C119.9 54.928 119.676 55.736 119.676 56.424C119.676 57.152 119.896 57.704 120.336 58.08C120.776 58.456 121.404 58.644 122.22 58.644C122.836 58.644 123.36 58.532 123.792 58.308C124.224 58.092 124.544 57.808 124.752 57.456C124.968 57.112 125.076 56.748 125.076 56.364C125.076 56.02 125.004 55.568 124.86 55.008C124.716 54.448 124.556 53.912 124.38 53.4L125.4 52.908C125.64 53.604 125.816 54.232 125.928 54.792C126.048 55.352 126.108 55.876 126.108 56.364C126.108 56.98 125.952 57.564 125.64 58.116C125.328 58.668 124.876 59.112 124.284 59.448C123.7 59.792 123.012 59.964 122.22 59.964C121.468 59.964 120.82 59.812 120.276 59.508C119.732 59.212 119.316 58.808 119.028 58.296C118.748 57.784 118.608 57.208 118.608 56.568C118.608 56.088 118.688 55.576 118.848 55.032C119.008 54.488 119.196 54 119.412 53.568L120.348 54ZM121.548 53.04C121.548 53.04 121.756 52.832 122.172 52.416L122.484 52.104L122.796 52.416C123.212 52.832 123.42 53.04 123.42 53.04L123.108 53.352C122.692 53.768 122.484 53.976 122.484 53.976C122.484 53.976 122.276 53.768 121.86 53.352L121.548 53.04ZM126.96 59.304C128.272 59.024 129.236 58.652 129.852 58.188C130.468 57.732 130.776 57.156 130.776 56.46C130.776 56.004 130.716 55.548 130.596 55.092C130.476 54.636 130.3 54.256 130.068 53.952C129.844 53.64 129.58 53.468 129.276 53.436C129.1 53.412 128.928 53.472 128.76 53.616C128.6 53.752 128.468 53.932 128.364 54.156C128.268 54.38 128.22 54.596 128.22 54.804C128.22 54.972 128.252 55.104 128.316 55.2C128.444 55.392 128.736 55.52 129.192 55.584C129.656 55.648 130.256 55.68 130.992 55.68H132.168L132.24 56.34L132.168 57L130.692 57.012C129.82 57.012 129.112 56.944 128.568 56.808C128.032 56.664 127.656 56.372 127.44 55.932C127.304 55.644 127.236 55.328 127.236 54.984C127.236 54.552 127.328 54.12 127.512 53.688C127.704 53.256 127.956 52.9 128.268 52.62C128.588 52.34 128.932 52.2 129.3 52.2C129.772 52.2 130.192 52.408 130.56 52.824C130.936 53.232 131.224 53.76 131.424 54.408C131.632 55.048 131.736 55.692 131.736 56.34C131.736 57.38 131.348 58.26 130.572 58.98C129.804 59.7 128.732 60.196 127.356 60.468L126.96 59.304ZM132.012 55.68H132.108C132.732 55.68 133.216 55.652 133.56 55.596C133.904 55.54 134.152 55.46 134.304 55.356C134.464 55.244 134.572 55.088 134.628 54.888C134.66 54.784 134.676 54.636 134.676 54.444C134.676 54.228 134.656 53.984 134.616 53.712C134.576 53.432 134.552 53.26 134.544 53.196L135.54 52.992C135.652 53.528 135.708 54.176 135.708 54.936C135.748 55.168 135.852 55.352 136.02 55.488C136.196 55.616 136.432 55.68 136.728 55.68H136.812L136.884 56.34L136.812 57H136.728C136.336 57 135.988 56.888 135.684 56.664C135.388 56.44 135.168 56.152 135.024 55.8L135.288 55.848C135.112 56.272 134.788 56.572 134.316 56.748C133.844 56.916 133.108 57 132.108 57H132.012V55.68ZM135.42 59.592C135.42 59.592 135.316 59.696 135.108 59.904L134.208 58.992L135.108 58.092L136.02 58.992L135.42 59.592ZM133.284 59.592C133.284 59.592 133.18 59.696 132.972 59.904L132.072 58.992L132.972 58.092L133.884 58.992L133.284 59.592ZM140.252 57C139.892 57 139.556 56.892 139.244 56.676C138.94 56.452 138.696 56.148 138.512 55.764C138.328 55.38 138.236 54.952 138.236 54.48C138.244 54.288 138.212 53.4 138.14 51.816C138.068 50.232 138.008 49.2 137.96 48.72L139.1 48.48C139.148 48.96 139.192 49.904 139.232 51.312C139.28 52.712 139.308 53.504 139.316 53.688L139.34 54.492C139.388 55.284 139.692 55.68 140.252 55.68H140.384L140.456 56.34L140.384 57H140.252ZM136.688 55.68H137C137.448 55.68 137.768 55.588 137.96 55.404C138.152 55.212 138.244 54.904 138.236 54.48L139.076 54.576C139.076 55.304 138.896 55.892 138.536 56.34C138.184 56.78 137.676 57 137.012 57H136.688V55.68ZM140.262 55.68H140.358C140.982 55.68 141.466 55.652 141.81 55.596C142.154 55.54 142.402 55.46 142.554 55.356C142.714 55.244 142.822 55.088 142.878 54.888C142.91 54.784 142.926 54.636 142.926 54.444C142.926 54.228 142.906 53.984 142.866 53.712C142.826 53.432 142.802 53.26 142.794 53.196L143.79 52.992C143.902 53.528 143.958 54.176 143.958 54.936C143.998 55.168 144.102 55.352 144.27 55.488C144.446 55.616 144.682 55.68 144.978 55.68H145.062L145.134 56.34L145.062 57H144.978C144.586 57 144.238 56.888 143.934 56.664C143.638 56.44 143.418 56.152 143.274 55.8L143.538 55.848C143.362 56.272 143.038 56.572 142.566 56.748C142.094 56.916 141.358 57 140.358 57H140.262V55.68ZM142.842 59.568C142.842 59.568 142.738 59.672 142.53 59.88L141.63 58.968L142.53 58.068L143.442 58.968L142.842 59.568ZM140.706 59.568C140.706 59.568 140.602 59.672 140.394 59.88L139.494 58.968L140.394 58.068L141.306 58.968L140.706 59.568ZM144.962 55.68H145.178C145.498 55.68 145.794 55.588 146.066 55.404C146.338 55.22 146.57 54.94 146.762 54.564C147.114 53.876 147.47 53.332 147.83 52.932C148.19 52.532 148.582 52.32 149.006 52.296C149.43 52.272 149.798 52.384 150.11 52.632C150.43 52.88 150.674 53.208 150.842 53.616C151.01 54.024 151.094 54.452 151.094 54.9C151.094 55.34 151.01 55.744 150.842 56.112C150.674 56.472 150.426 56.744 150.098 56.928C149.938 57.016 149.754 57.06 149.546 57.06C148.914 57.06 147.99 56.656 146.774 55.848L147.29 54.756C147.786 55.092 148.234 55.356 148.634 55.548C149.034 55.74 149.342 55.836 149.558 55.836C149.622 55.836 149.686 55.82 149.75 55.788C149.87 55.724 149.962 55.62 150.026 55.476C150.09 55.324 150.122 55.152 150.122 54.96C150.122 54.592 150.026 54.256 149.834 53.952C149.642 53.648 149.394 53.496 149.09 53.496C148.85 53.496 148.594 53.66 148.322 53.988C148.058 54.316 147.766 54.82 147.446 55.5C147.206 55.996 146.89 56.372 146.498 56.628C146.106 56.876 145.658 57 145.154 57H144.938L144.962 55.68Z" fill="#32236F"/>
<path opacity="0.9" d="M160.328 48.704C159.38 49.616 158.612 50.552 158.024 51.512C157.436 52.472 157.07 53.414 156.926 54.338C156.89 54.554 156.872 54.752 156.872 54.932C156.872 55.436 156.98 55.82 157.196 56.084C157.412 56.348 157.712 56.48 158.096 56.48C158.516 56.48 158.816 56.276 158.996 55.868C159.176 55.448 159.266 55.034 159.266 54.626L160.886 54.356C160.922 54.872 161.018 55.358 161.174 55.814C161.342 56.258 161.63 56.48 162.038 56.48C162.806 56.48 163.19 55.952 163.19 54.896C163.19 53.708 162.62 52.526 161.48 51.35C160.352 50.174 158.924 49.076 157.196 48.056L158.51 45.77C160.406 47.102 161.978 48.554 163.226 50.126C164.474 51.698 165.098 53.42 165.098 55.292C165.098 56.072 164.978 56.756 164.738 57.344C164.498 57.92 164.162 58.37 163.73 58.694C163.298 59.006 162.806 59.162 162.254 59.162C161.474 59.162 160.796 58.814 160.22 58.118C159.644 57.422 159.326 56.258 159.266 54.626L160.886 54.356C160.838 56.108 160.568 57.35 160.076 58.082C159.584 58.802 158.888 59.162 157.988 59.162C157.052 59.162 156.302 58.802 155.738 58.082C155.186 57.362 154.91 56.42 154.91 55.256C154.91 55.112 154.922 54.872 154.946 54.536C155.078 53.228 155.57 51.86 156.422 50.432C157.274 48.992 158.21 47.78 159.23 46.796L160.328 48.704Z" fill="#32236F"/>
<rect x="178" y="20" width="44" height="44" rx="8" fill="#6A49F2" fill-opacity="0.1"/>
<path opacity="0.4" d="M208.517 37.2397V43.2481C208.517 46.8414 206.463 48.3814 203.383 48.3814H193.128C192.603 48.3814 192.102 48.3348 191.635 48.2298C191.343 48.1831 191.063 48.1015 190.807 48.0081C189.057 47.3548 187.995 45.8381 187.995 43.2481V37.2397C187.995 33.6464 190.048 32.1064 193.128 32.1064H203.383C205.997 32.1064 207.875 33.2148 208.377 35.7464C208.458 36.2131 208.517 36.6914 208.517 37.2397Z" fill="#6A49F2"/>
<path d="M212.016 40.7404V46.7487C212.016 50.3421 209.963 51.882 206.883 51.882H196.628C195.765 51.882 194.983 51.7654 194.306 51.5087C192.918 50.9954 191.973 49.9338 191.635 48.2304C192.101 48.3354 192.603 48.382 193.128 48.382H203.383C206.463 48.382 208.516 46.8421 208.516 43.2487V37.2404C208.516 36.692 208.47 36.2021 208.376 35.7471C210.593 36.2137 212.016 37.777 212.016 40.7404Z" fill="#6A49F2"/>
<path d="M198.25 43.33C199.951 43.33 201.33 41.951 201.33 40.2499C201.33 38.5489 199.951 37.1699 198.25 37.1699C196.549 37.1699 195.17 38.5489 195.17 40.2499C195.17 41.951 196.549 43.33 198.25 43.33Z" fill="#6A49F2"/>
<path d="M191.577 37.625C191.099 37.625 190.702 38.0217 190.702 38.5V42C190.702 42.4783 191.099 42.875 191.577 42.875C192.055 42.875 192.452 42.4783 192.452 42V38.5C192.452 38.0217 192.067 37.625 191.577 37.625Z" fill="#6A49F2"/>
<path d="M204.912 37.625C204.434 37.625 204.037 38.0217 204.037 38.5V42C204.037 42.4783 204.434 42.875 204.912 42.875C205.39 42.875 205.787 42.4783 205.787 42V38.5C205.787 38.0217 205.402 37.625 204.912 37.625Z" fill="#6A49F2"/>
</g>
<defs>
<filter id="filter0_d_1234_47" x="0" y="0" width="248" height="96" filterUnits="userSpaceOnUse" color-interpolation-filters="sRGB">
<feFlood flood-opacity="0" result="BackgroundImageFix"/>
<feColorMatrix in="SourceAlpha" type="matrix" values="0 0 0 0 0 0 0 0 0 0 0 0 0 0 0 0 0 0 127 0" result="hardAlpha"/>
<feMorphology radius="2" operator="dilate" in="SourceAlpha" result="effect1_dropShadow_1234_47"/>
<feOffset dy="6"/>
<feGaussianBlur stdDeviation="8"/>
<feComposite in2="hardAlpha" operator="out"/>
<feColorMatrix type="matrix" values="0 0 0 0 0.415686 0 0 0 0 0.286275 0 0 0 0 0.94902 0 0 0 0.2 0"/>
<feBlend mode="normal" in2="BackgroundImageFix" result="effect1_dropShadow_1234_47"/>
<feBlend mode="normal" in="SourceGraphic" in2="effect1_dropShadow_1234_47" result="shape"/>
</filter>
</defs>
</svg>
