<?xml version="1.0" encoding="utf-8"?>
<!-- Generator: Adobe Illustrator 24.1.2, SVG Export Plug-In . SVG Version: 6.00 Build 0)  -->
<svg version="1.1" id="Layer_1" xmlns="http://www.w3.org/2000/svg" xmlns:xlink="http://www.w3.org/1999/xlink" x="0px" y="0px"
	 viewBox="0 0 2204.8 1626.6" style="enable-background:new 0 0 2204.8 1626.6;" xml:space="preserve">
<style type="text/css">
	.st0{fill:#FFE9D4;}
	.st1{fill:#50456D;}
	.st2{fill:#CE4949;}
	.st3{fill:#FFAE43;}
	.st4{fill:#FF5F4A;}
	.st5{fill:#F27C79;}
	.st6{fill:#F2C3A7;}
	.st7{fill:#FF867A;}
	.st8{fill:#AF7B58;}
	.st9{fill:#895F42;}
	.st10{fill:#393351;}
	.st11{fill:#C66C67;}
	.st12{fill:#FFFFFF;}
	.st13{fill:#4A704A;}
	.st14{fill:#CE926A;}
	.st15{fill:#F2F2F2;}
	.st16{fill:#EBEBEB;}
	.st17{fill:#7F635D;}
	.st18{fill:#FFBA57;}
	.st19{fill:#F27B53;}
	.st20{fill:#FFE164;}
</style>
<g>
	<path class="st0" d="M1375.8,1463.5c0,0-1022.8-5.3-1082.7,14.4s457.8,48.9,1390.5,29.9c279.3-5.7,299.8-33.8,64-39.9
		S1375.8,1463.5,1375.8,1463.5z"/>
	<path class="st1" d="M1270,1484.4c-0.1,4.5-3.4,8.2-7.6,8.2h-7.9c-4,0-7.3-3.4-7.5-7.8v-0.4l-64.8-520h-10.6l64.9,521.4
		c0.7,10.4,8.6,18.5,18,18.5h7.9c10,0,18.1-9,18.1-20.1v-0.4l-33-519.4H1237L1270,1484.4z"/>
	<path class="st0" d="M1128.1,134.5c16.2,13.4,9.9,301.4,7.4,331.5s-111.2,21.6-111.2,21.6s20.2,70.2,40.8,83.5
		c0,0-71.4-35.4-94.9-67.7l-238-18c-27.7-2.1-50-23.5-53.3-51.1c-10.7-91-30.8-282.9-12-302.9C672.5,125.4,1112,121.1,1128.1,134.5z
		"/>
	<rect x="1405.8" y="922.1" class="st1" width="94.5" height="12.8"/>
	<path class="st1" d="M1423,668.2c9.5-2.8,19.6,1,24.9,9.4c0.3,0.5,0.7,1,1,1.6s0.6,0.9,0.8,1.4c5,8.6,3.7,19.5-3.3,26.6l-42.8,43.2
		l-19.4-32.5l-19.4-32.5L1423,668.2z"/>
	<path class="st0" d="M1364.8,685.4c-1.6,1,5.7,16.3,16.4,34.2s20.7,31.7,22.4,30.7s-5.7-16.3-16.4-34.2S1366.4,684.4,1364.8,685.4z
		"/>
	<path class="st1" d="M1443.2,677.5h16.3c17.1,0,31,13.9,31,31v218.7h-7.3V708.4c0-13.1-10.6-23.7-23.7-23.7h-16.3
		c-2,0-3.6-1.6-3.6-3.6S1441.3,677.5,1443.2,677.5L1443.2,677.5z"/>
	<path class="st1" d="M483.3,1482c-0.8,0-1.6-0.1-2.4-0.3c-5-1.3-8-6.5-6.7-11.5c0,0,0,0,0,0l87.6-329.2c1.3-5,6.5-8,11.5-6.7
		s8,6.5,6.7,11.5L492.4,1475C491.3,1479.1,487.6,1482,483.3,1482z"/>
	<path class="st1" d="M858.8,1482c-4.3,0-8-2.9-9.1-7l-87.6-329.2c-1.3-5,1.6-10.2,6.7-11.5s10.2,1.6,11.5,6.7l87.6,329.2
		c1.3,5-1.6,10.1-6.6,11.5c0,0,0,0,0,0C860.5,1481.9,859.6,1482,858.8,1482z"/>
	<path class="st1" d="M627.3,1482c-0.8,0-1.6-0.1-2.4-0.3c-5-1.3-8-6.5-6.7-11.5c0,0,0,0,0,0l87.6-329.2c1.3-5,6.5-8,11.5-6.7
		s8,6.5,6.7,11.5L636.3,1475C635.2,1479.1,631.5,1482,627.3,1482z"/>
	<path class="st1" d="M1002.8,1482c-4.3,0-8-2.9-9.1-7L906,1145.8c-1.1-5.1,2-10.1,7.1-11.2c4.8-1.1,9.7,1.7,11.1,6.5l87.6,329.2
		c1.3,5-1.6,10.2-6.7,11.5c0,0,0,0,0,0C1004.4,1481.9,1003.6,1482,1002.8,1482z"/>
	<path class="st2" d="M916,940.1c-33.4-35.3-105.8-28.7-133-56.7S638,733.5,529.6,728.7c-116.1-5.1-107.4,66.5-107.4,66.5l3.6,57.9
		l5.9,55.7c0,0,64.1,122.7,86.9,149.2s240.8,94.3,267.4,96.5c9.3,0.8,28.4,5.3,50.7,8.8l127.9-118.8
		C959.9,1017.5,943.7,969.4,916,940.1z"/>
	<path class="st3" d="M964.5,1044.4l-137.8,78.9l9.9,39.9c40.9,6.5,93.1,11.9,112.6-15.5c16.9-23.6,14.8-36,15.2-80.9
		C964.5,1063.5,965.5,1049.9,964.5,1044.4z"/>
	<path class="st4" d="M466.3,952.9l-43-139.6c0,0-0.2,24.5,3.2,62.3c3.4,37,8.7,85.2,15.8,130.8l50.8-25.4
		C482.1,973.8,472.9,964.2,466.3,952.9z"/>
	<path class="st4" d="M873.6,1128.8c-11.1-2-26.4-5.2-35.9-15.2l-51.6,62.5c17.5,0.2,34,0.4,48.7,0.6
		c107.6,1.7,115.4-32.5,115.4-32.5S923.5,1137.7,873.6,1128.8z"/>
	<path class="st5" d="M880.8,824.5c-8.1-5.2-20.2-14.5-34.4-25.9c-6.3,16.7-23.9,51.4-52.9,71.9c20.2,16.1,41.7,33.1,58.4,39.6
		c42.9,16.7,266.3,37.7,275.9,14.4S919.8,849.5,880.8,824.5z"/>
	<path class="st6" d="M846.3,798.6C793.3,755.9,712,683.1,712,683.1s-7.9,57.8,12.3,111.2c8.7,22.9,38.2,54.7,69.7,79.8
		C823,853.7,840,815.3,846.3,798.6z"/>
	<path class="st2" d="M925.6,1139.7c0,0-202.1,20.2-197-25.6s127.2-71.6,190.7-50.7S973.2,1129,925.6,1139.7z"/>
	<path class="st7" d="M1092.9,1455.2c-6.2-12.5-13.1-28.6-17.5-46.1c-8.6,5.4-27.6,4-44.3,9.3c3.3,6.9,19.4,38,21.8,51.2
		c1.5,8.2,1.4,20.1,4.7,23.2l0,0c3.7,3.6,7.8,6.9,11.5,8.7c10.2,4.9,88.1,28.8,97.8,7.2c5.5-12.4-27.4-24.4-53.1-34.5
		C1104.6,1470.7,1097.2,1463.9,1092.9,1455.2z"/>
	<path class="st1" d="M1113.7,1474.2c-2.4-0.9-4.6-2.1-6.8-3.4c-11,3.9-6.6,13.2-7.9,14.9c-1.4,1.9-9.5-0.4-20.4-2.5
		c-8.6-1.6-20.3-5.5-24.9-7c0.8,7,1.3,14.3,3.8,16.7l0,0c3.7,3.6,7.8,6.9,11.5,8.7c10.2,4.9,88.1,28.8,97.8,7.2
		C1172.4,1496.2,1139.5,1484.2,1113.7,1474.2z"/>
	<path class="st7" d="M1253.7,1296.9c-9.4-10.3-20.5-23.8-29.6-39.5c-6.7,7.6-25.4,11.5-40,21.2c5.1,5.7,29.2,31.1,35.1,43.2
		c3.7,7.5,6.9,18.9,10.9,21l0,0c4.6,2.4,9.4,4.5,13.5,5.2c11.1,1.9,92.6,3.4,95.9-20.1c1.9-13.5-33-15.9-60.6-18.5
		C1269.2,1308.6,1260.2,1304.1,1253.7,1296.9z"/>
	<path class="st8" d="M908.9,961.7c46.7-3.4,87.3-4.4,100.4,0.8c26.4,10.4,76.6,86.7,130.3,163.3s109,146.1,109,146.1l-50.5,33
		l-231.7-225.5c0,0-14.1,7.6-36.2,17c-6.2-12.9-11.6-26.1-16.2-39.6C905.5,1032.1,907.3,985.3,908.9,961.7z"/>
	<path class="st8" d="M722.4,981.5c0,0,103-13.7,186.5-19.8c-1.6,23.6-3.4,70.4,5,94.9c4.6,13.5,10,26.7,16.2,39.6
		c-39.8,16.9-105.7,39.6-163.4,34.9c-89.8-7.3-118.8-2-140.3-37.1c-15.6-25.5-25-118.5-25-118.5L722.4,981.5z"/>
	<path class="st8" d="M907.4,1105.7c0,0,22,100.5,31.8,133.3c33,110.7,90.8,205.8,90.8,205.8s44.7-3.4,65-8.8
		c14.4-3.8-72.4-308.6-81-335.2S929.5,1029.3,907.4,1105.7z"/>
	<path class="st0" d="M604.7,1031.9c0,0-68-161-77.5-283.2c-8.5-109.3,152.8-97.6,188.4-62.4s64.5,145.4,82.7,192.2
		c18.5,47.7,39.5,69.1,44.2,89.1S604.7,1031.9,604.7,1031.9z"/>
	<path class="st9" d="M1017.3,1127.3c-0.5,0-1-0.2-1.3-0.6l-9.6-11.1c-9.5-11.1-39.2-54.4-40.4-56.3c-0.5-0.8-0.3-1.8,0.4-2.3
		c0.8-0.5,1.8-0.3,2.3,0.4l0,0c0.3,0.4,30.8,45.1,40.2,56l9.6,11.1c0.6,0.7,0.5,1.8-0.2,2.4
		C1018.1,1127.1,1017.7,1127.3,1017.3,1127.3z"/>
	<path class="st9" d="M936.3,1069.1c-0.9,0-1.7-0.7-1.7-1.7c0-0.8,0.5-1.4,1.2-1.6c8.4-2.4,34-2.7,35.1-2.7l0,0
		c0.9,0,1.7,0.8,1.7,1.7c0,0.9-0.8,1.7-1.7,1.7l0,0c-0.3,0-26.2,0.3-34.2,2.6C936.6,1069,936.4,1069,936.3,1069.1z"/>
	<path class="st1" d="M1278.9,1309.4c-2.5-0.2-5-0.7-7.5-1.4c-9.5,6.8-2.7,14.4-3.4,16.5c-0.9,2.2-9.3,2.2-20.3,3.3
		c-8.7,0.8-21.1,0.3-25.9,0.1c2.7,6.5,5.3,13.4,8.2,15l0,0c4.6,2.4,9.4,4.5,13.5,5.2c11.1,1.9,92.6,3.4,95.9-20.1
		C1341.4,1314.4,1306.4,1312,1278.9,1309.4z"/>
	<path class="st4" d="M793.3,1065.8c-18-37.9-44.7-66.4-86.6-66.4H566.6c-25.5,0-52.2-4.7-73.5-18.5l-50.8,25.4
		c10.3,66,24.2,126.3,41.2,138c40,27.8,192.3,30.5,302.5,31.8l45.9-32.1C818.5,1130,801.6,1083.4,793.3,1065.8z"/>
	<path class="st10" d="M664.4,567c-4.3-9.7-18.1-22.5-29.6-14.6c-13.8,9.5-14.2,19.3-14.2,19.3s-0.5,0.3-1.3,0.8
		c-2.8,0.5-9.4,2-12,5.8c-3.5,4.9-3.8,10.8-1.7,9.1s2.5-5.8,4.4-6.9c0.3-0.2,0.7-0.3,1.1-0.4c-0.6,0.9-1,2-1.1,3.1
		c-0.7,25.7,9.3,25.3,11.2,30c2.1,5,9.2,10.1,10.8,10.1c2.6-0.1,20.4-29.7,22.5-29.5s2.5-6.9,2.4-11.3S667.8,574.9,664.4,567z"/>
	<path class="st7" d="M643.4,683.6c-23.4,2-32.7-19.5-31.4-26c0,0,5-15.2,6.4-20.9c1.7-6.9,3.8-25.6,3.8-25.6l3.8-0.5l17.9,16
		l0.5,6.7l0.4,5.3l1.3,15.8C646.2,654.4,651,683,643.4,683.6z"/>
	<path class="st7" d="M668,623.5L668,623.5c-0.3,0.6-0.6,1.2-1,1.8c-2.5,3.3-7.5,5.3-15.4,5.8l0,0c-0.3,0-0.6,0-0.9,0.1l-2,0.1
		c-0.8,0-1.7,0-2.5,0c-3.2,0.6-6.4,0.3-9.4-0.9c-7.9-2.9-15.5-10.2-15.4-17.3l0.3-2l2.9-21.5c1.7-10.7,7.6-13.1,16.3-16.5
		c8.8-3.5,10.8,1.5,14.9,7.8c4,6.1,10.5,21.1,13,34.9C669.2,618.3,669,621,668,623.5z"/>
	<path class="st10" d="M621.5,601.2l10.4-2.8l-0.3-1.3l-11.8,2.7l0.7,1C620.7,601.1,621.1,601.2,621.5,601.2z"/>
	<path class="st11" d="M635.8,643.8c2.9,2.4,6.3,4.1,10,5.1l-0.8-10.3l-0.4-5.3v-0.5l-19-8.8C625.5,623.9,627.3,637.1,635.8,643.8z"
		/>
	<path class="st10" d="M632.3,589.4c2.6-2.6,4.9-4.6,8.9-4.3c1.1,0.1,1.3,1.5-0.1,2c-3.8,1.4-5,1.7-7.9,3.9
		C631.9,592,630.8,590.9,632.3,589.4z"/>
	<path class="st10" d="M657.5,584c-1.6-0.9-3.5-0.6-5.1-0.3c-1.1,0.2-1.6,1.4-0.2,1.7c3.9,0.7,3.8,0.3,5.7,0.9
		C659.2,586.7,659.4,585,657.5,584z"/>
	<path class="st0" d="M642.6,677.1c0,0-16.3-6.4-23.8-14.4c-1.9-2-3.4-4.4-4.2-7c-0.3-1-1.4-1.5-2.4-1.2c-0.3,0.1-0.5,0.2-0.7,0.4
		L599,667.3c0,0,5.6,6.3,11.8,12.3s17.3,14.5,17.3,14.5l14.2-10l15.3,7.6c0,0,0-17.9-0.7-21.1s-10-12.3-10-12.3s-0.4,10.2-0.9,12.7
		C645.2,673.2,644.1,675.3,642.6,677.1z"/>
	<path class="st10" d="M642.7,607.4c-3,0.6-6.7-0.1-8-1.4c-1.8-1.9-5-6.2-3.6-8.5c1.1-1.9,10.5-6.9,13.8-7c0.6-0.1,1.1,0.2,1.5,0.6
		c0.4,0.5,4.6,6.2,2.2,11.9C647.5,605.3,645.3,607,642.7,607.4L642.7,607.4z M645.3,591.9L645.3,591.9c0,0-0.3-0.2-1.6,0.2
		c-3.9,1-10.8,5-11.5,6.1s1.2,4.6,3.4,6.9c0.8,0.8,3.8,1.6,6.8,1l0,0c2.2-0.3,4-1.6,4.9-3.6C649.5,597.3,645.4,591.9,645.3,591.9
		L645.3,591.9z"/>
	<path class="st10" d="M662.6,600.9c-2.1,0.4-4.2-0.4-5.6-2.1c-0.7-1.1-4.2-7.2-3.3-9.6c0.7-1.8,6-3.3,8.7-3.4
		c1.6-0.1,2.6,0.3,2.9,1c1.6,3.1,2,6.6,1.3,10c-0.3,2-1.8,3.6-3.8,4.1L662.6,600.9z M654.9,589.7c-0.5,1.3,1.6,6,3.2,8.4
		c1.1,1.2,2.7,1.8,4.3,1.5c1.5-0.2,2.5-1.3,2.8-3c0.7-3,0.2-6.2-1.2-9v-0.1c0-0.1-0.4-0.3-1.7-0.3c-0.6,0-1.3,0.1-1.9,0.2
		C657.8,587.8,655.1,589,654.9,589.7z"/>
	<path class="st10" d="M647.6,594.2c1.9-1.4,4.3-2.1,6.7-2l0.1-1.3c-2.8-0.2-5.5,0.7-7.7,2.4L647.6,594.2z"/>
	<path class="st10" d="M658.7,591.8c0.4,1.2,1.3,1.9,2.1,1.6s1-1.4,0.6-2.6s-1.3-1.9-2.1-1.6S658.3,590.7,658.7,591.8z"/>
	<path class="st10" d="M643,597.4c0.4,1.2,1.3,1.9,2.1,1.6s1-1.4,0.6-2.6s-1.3-1.9-2.1-1.6S642.5,596.3,643,597.4z"/>
	<path class="st7" d="M621.8,602c-1.7-2.7-4.8-6.4-7.6-1.9c-4.1,6.5,4,19.8,11.4,16.7C631,614.6,622.6,603.4,621.8,602z"/>
	<path class="st10" d="M622.4,595.4c0,0,2.7,11,5.4,14.1s8.3,2.4,12.8,1.2s10.9-4.5,14.9-5.8s9.1-1.9,10.9-0.3s3.3,8.8,4.9,11.8
		s6.5,16.7,2.7,20.2s-19.1,6.3-25.5,5.1c-11.4-2-17.3-12.1-21.4-14.8s-3.8-11.1-3.4-15.5s-3.8-13.4-2.6-15S622.4,595.4,622.4,595.4z
		"/>
	<path class="st12" d="M664,607.7c0,0-6.5,1.7-16.9,5c0,0,6.2,5.3,13,3.5S664,607.7,664,607.7z"/>
	<path class="st11" d="M653.1,605.8c-0.1,0.2,0.5,0.5,1.3,0.4c1.1-0.1,2.2-0.5,3-1.3c0,0,0,0,0.1-0.1c0.5-0.5,1-1.2,1.2-1.9
		c0.3-0.7,0.3-1.4,0.2-2.1c-0.1-0.2-0.2-0.3-0.3-0.3c-0.1,0-0.1,0-0.2,0.1c-0.3,0.5-0.6,0.9-0.8,1.4c-0.3,0.5-0.7,1-1.1,1.5
		l-0.2,0.2c-0.6,0.6-1.4,1.1-2.2,1.5C653.5,605.4,653.1,605.6,653.1,605.8z"/>
	<rect x="787.2" y="917.5" class="st10" width="229.7" height="13.4"/>
	<path class="st10" d="M932.5,651.9h390.6c6.1-0.2,11.1,4.6,11.3,10.7c0,0.7,0,1.5-0.2,2.2l-28.5,213.1c-1.1,7.3-7.3,12.7-14.6,12.9
		H900.6c-6.1,0.2-11.1-4.6-11.3-10.7c0-0.7,0-1.5,0.2-2.2l28.5-213.1C919.1,657.5,925.2,652.1,932.5,651.9z"/>
	<path class="st1" d="M951.6,651.9h390.6c6.1-0.2,11.1,4.6,11.3,10.7c0,0.7,0,1.5-0.2,2.2l-28.5,213.1c-1.1,7.3-7.3,12.7-14.6,12.9
		H919.6c-6.1,0.2-11.1-4.6-11.3-10.7c0-0.7,0-1.5,0.2-2.2L937,664.8C938.1,657.5,944.3,652.1,951.6,651.9z"/>
	<path class="st10" d="M1133,756.8h27.7c4.3-0.1,7.9,3.3,8,7.6c0,0.5,0,1-0.1,1.5l-20.2,150.5c-0.8,5.1-5.1,9-10.3,9.1h-27.7
		c-4.3,0.1-7.9-3.3-8-7.6c0-0.5,0-1,0.1-1.5l20.1-150.5C1123.4,760.7,1127.8,756.9,1133,756.8z"/>
	<circle class="st10" cx="1144.2" cy="774.8" r="34.6"/>
	<rect x="1037.4" y="917.2" class="st10" width="179.6" height="13.5"/>
	<path class="st13" d="M1592.6,1464.3c0,0,0.6-151.7-8.3-245.8s-33.3-147.8-66.8-192s-84.7-93.2-95.2-99.5s-45.8-24.2-45.8-24.2
		s-9.4,52.5-5.6,64.7s9.4,37.1,9.4,37.1s38.6-18.5,37.1-14.8s-19.8,22.5-24.5,29.3c-4.7,6.8,10.4,42.9,10.4,42.9
		s52.8-24.8,52.6-21.7s-44.3,34.7-41.8,37.3s16.6,41.4,22.4,40.4s47-22.8,47-22.8s-35.3,31.6-33.7,38.7s26.1,66.2,35.3,67.6
		s71-32.9,76-23.4s11.8,77.9,12.5,104.1s11.5,160.5,7.9,177.6S1592.6,1464.3,1592.6,1464.3z"/>
	<path class="st13" d="M1598.6,1342.7c0,0,29.9-239.5,42.2-299.1s31.6-92.3,56.2-118.3s60.7-53.8,67.9-57.1s31-12.3,31-12.3
		s2.4,34.2-1,41.8s-8.6,23.1-8.6,23.1s-11.6,3.8-9.1,8.5s-9.7,26.7-9.7,26.7s-6.2,7.8-8,9.2s-13.5,25.4-17.2,24.3
		s-28.5-17.9-28.5-17.9s20.4,22.7,18.9,27.1s-21.3,40.6-27.3,40.8s-43.2-26-47-20.3s-13,49.1-15.3,65.8s-35.8,252.7-34.7,263.9
		S1598.6,1342.7,1598.6,1342.7z"/>
	<path class="st13" d="M1589.4,1360.7c0,0,44.7-140.2,67.6-178.8s35.5-56,42.3-64s-14.3-20.9,17.5-58s104.7-88.5,137.7-67.9
		s-54.2,77.6-57.5,81.6s-16.9-4.4-17-1.6s10,1.6,7.2,8.5s-38.5,46.5-50,45.1s-29.2-0.7-29.2-0.7s-38.6,47.7-54.3,85
		s-49.4,161.9-51.6,162S1586.9,1368.4,1589.4,1360.7z"/>
	<path class="st13" d="M1549.2,708.8c0,0-41.5,53.4-35.6,109.2s5.7,66.5,6.4,66.7s20.5,1.9,17.3,10.6s-23.3,19.2-18.2,25.6
		s11.7,86.1,32.3,105.6s19.9,4.2,35.5,37s-7.1,270.7-7.1,270.7l26.1,4.9c0,0-1.4-259.4,2.1-268.8s13.8-20.5,21.6-36.4
		s7.7-47.1,7.7-47.1s-32.7,0.6-24.5-8.1c5-5.3,11.3-9.2,18.3-11.3l-7.6-55.5c0,0-37.8,12.1-31.6,3.9s29.7-19.8,29.7-19.8
		s-19.8-75.1-21.7-84.4c0,0-45.6,9.8-36.9,6.6s31.7-18.2,31.7-18.2s-10-45.2-14.1-57.2S1549.2,708.8,1549.2,708.8z"/>
	<polygon class="st14" points="1594.3,1330.9 1541.4,1330.9 1557,1485.3 1594.3,1485.3 1631.6,1485.3 1647.2,1330.9 	"/>
	<rect x="1534.4" y="1317.1" class="st14" width="119.8" height="19.6"/>
	<polygon class="st8" points="1542.6,1342.8 1645.3,1349.4 1646.6,1336.7 1542,1336.7 	"/>
	<path class="st2" d="M746.1,770.8c0,0-5.5-11.1-17.2-9.7s-10,15.9-6.9,23.5s14.3,25.8,25.5,24.1c8.6-1.3,4.7-12.2,1.8-11.8
		s-3.4,3.3-4.6,3.3s-12.5-9.3-15.4-16.9c-3.1-7.9-2.5-13.5,1.5-14.5s11.9,5.2,12,8.3s4.4,6.7,6.7,1.7S746.1,770.8,746.1,770.8z"/>
	<path class="st4" d="M800.1,744.5l-66.8,9.8l11,74.5l0,0c0.5,3,15.5,3.3,34.2,0.6s33-7.4,32.6-10.4L800.1,744.5z"/>
	<path class="st15" d="M800.1,744.4c0.5,3-14.1,7.7-32.6,10.4s-33.8,2.5-34.2-0.6s14.1-7.7,32.6-10.4S799.7,741.3,800.1,744.4z"/>
	<path class="st12" d="M733.4,754.2c0.4,3,15.8,3.3,34.2,0.6s33-7.4,32.6-10.4c-0.2-1.4-3.7-2.2-9.3-2.4c-8.3-0.1-16.7,0.5-24.9,1.8
		c-7.8,1.1-15.5,2.8-23,5C736.8,750.7,733.1,752.7,733.4,754.2z M735.8,753.8c2.2-1.3,4.5-2.3,6.9-3l1.9-0.6
		c14.2-3.9,28.8-6.1,43.6-6.4c1.3,0,2.4,0,3.4,0.1c2,0,4,0.3,6,0.8c-1,0.7-3.3,2-8.8,3.6c-5.5,1.6-11,2.8-16.6,3.8
		c-1.6,0.3-3.3,0.5-5,0.8c-2.6,0.4-5.2,0.7-7.8,1c-4.7,0.5-9.5,0.8-14.2,0.9C739.5,754.8,736.9,754.2,735.8,753.8z"/>
	<path class="st16" d="M766.2,745.7c-7.3,1-14.5,2.5-21.6,4.6c-5.5,1.6-7.8,2.9-8.8,3.6c1.1,0.4,3.7,0.9,9.5,0.9
		c14.7-0.3,29.4-2.5,43.6-6.4c5.5-1.6,7.8-2.9,8.8-3.6c-1.1-0.4-3.7-0.9-9.5-0.9C780.8,743.9,773.5,744.5,766.2,745.7z"/>
	<path class="st17" d="M766.7,749.3c-7.3,1-14.5,2.6-21.6,4.6c-1,0.3-1.9,0.6-2.7,0.9c0.8,0,1.8,0,2.8,0c14.7-0.3,29.4-2.5,43.6-6.4
		c1-0.3,1.9-0.6,2.7-0.9c-0.8,0-1.8,0-2.8,0C781.4,747.5,774,748.2,766.7,749.3z"/>
	<path class="st7" d="M486.9,825.7c27.5,13.9,65,6.8,77,5.5c-0.8,4.8-1.7,18.9-1.6,18.9c4.7-3,144.3-76.3,158.8-56.3
		c14.7,20.3-116.5,190.4-197,151.2C482.4,924.6,475.7,876.3,486.9,825.7z"/>
	<path class="st7" d="M700.2,814.2c0,0-4.5-10.5-4.1-17.8s10.2-27,20.6-26c4.6,0.5,16.6-5.8,20.7-2.8s2.5,9.9,2.5,9.9
		s3.7-0.4,1.7,5.6l-2,6.1c0,0,4.2,3.5,3.2,8.4S732,810,723.9,812.2S700.2,814.2,700.2,814.2z"/>
	<path class="st0" d="M576.1,703.6c-22.9-23.2-44-16.5-63.3,27.2c0,0-15.5,40.3-27.2,82.7c-1.3,4.7-2.5,9.3-3.5,14
		c27.5,13.9,75.7,13.4,87.7,12.2c0.5-3.3,1.3-7.4,2.2-12.2C578.7,792,592.9,720.6,576.1,703.6z"/>
	<path class="st11" d="M519.8,902.2c0.7-0.1,1.3-0.6,1.5-1.4c5-20.8,41.1-48.1,41.5-48.3c0.8-0.6,1-1.7,0.4-2.5
		c-0.6-0.8-1.7-1-2.5-0.4l0,0c-1.5,1.1-37.5,28.4-42.8,50.4c-0.2,1,0.4,1.9,1.3,2.2c0,0,0,0,0,0
		C519.4,902.2,519.6,902.2,519.8,902.2z"/>
	<path class="st1" d="M1497,1484.4c-0.1,4.5-3.4,8.2-7.6,8.2h-7.9c-4,0-7.3-3.4-7.5-7.8v-0.4l-64.8-520h-10.6l64.9,521.4
		c0.8,10.4,8.6,18.5,18,18.5h7.9c10,0,18.1-9,18.1-20.1v-0.4l-33-519.4H1464L1497,1484.4z"/>
	<path class="st1" d="M531.3,1484.4c0.1,4.5,3.4,8.2,7.5,8.2h7.9c4,0,7.3-3.4,7.5-7.8v-0.4l64.8-520h10.6l-65,521.4
		c-0.7,10.4-8.6,18.5-18,18.5h-7.9c-10,0-18.1-9-18.1-20.1v-0.4l33-519.4h10.5L531.3,1484.4z"/>
	<path class="st1" d="M755.2,1484.4c0.1,4.5,3.4,8.2,7.5,8.2h7.9c4,0,7.3-3.4,7.5-7.8v-0.4l64.8-520h10.6l-64.9,521.4
		c-0.7,10.4-8.6,18.5-18,18.5h-7.9c-10,0-18.1-9-18.1-20.1v-0.4l33-519.4h10.5L755.2,1484.4z"/>
	<rect x="520.8" y="928.2" class="st8" width="435.3" height="39.4"/>
	<rect x="744.7" y="928.2" class="st14" width="762.8" height="39.4"/>
	
		<ellipse transform="matrix(0.7071 -0.7071 0.7071 0.7071 133.6385 1124.6858)" class="st14" cx="1424.4" cy="401" rx="111.3" ry="111.3"/>
	
		<ellipse transform="matrix(0.7071 -0.7071 0.7071 0.7071 133.6385 1124.6858)" class="st12" cx="1424.4" cy="401" rx="93.9" ry="93.9"/>
	<path class="st1" d="M1429.9,356.9l-4.9-14.3l-5.1,14.3h2.5l-2.1,39.1c-0.1,2.4,1.9,4.4,4.3,4.5c0,0,0.1,0,0.1,0l0,0
		c2.4,0,4.3-2,4.3-4.4l-1.7-39.1L1429.9,356.9z"/>
	<circle class="st1" cx="1424.5" cy="401" r="7.9"/>
	<path class="st1" d="M1365.9,437l-6.3,8.7l10.4-2.9l-1-1.5l58.1-38.8c1.4-1,1.8-2.9,0.9-4.3c0,0,0,0,0-0.1l0,0
		c-1-1.4-2.9-1.8-4.3-0.8c0,0,0,0-0.1,0l-56.6,41L1365.9,437z"/>
	<path class="st1" d="M1424.9,331c-1,0-1.9-0.8-1.9-1.8c0,0,0,0,0,0v-9.8c-0.1-1,0.7-1.9,1.7-2c1-0.1,1.9,0.7,2,1.7
		c0,0.1,0,0.2,0,0.3v9.8C1426.7,330.2,1425.9,331,1424.9,331z"/>
	<path class="st1" d="M1374.4,351.7c-0.5,0-1-0.2-1.3-0.5l-6.9-6.9c-0.7-0.7-0.7-1.9,0-2.6s1.9-0.7,2.6,0l7,6.9
		c0.7,0.7,0.7,1.9,0,2.6C1375.4,351.5,1374.9,351.7,1374.4,351.7z"/>
	<path class="st1" d="M1353.4,402h-9.8c-1-0.1-1.8-1-1.7-2c0.1-0.9,0.8-1.7,1.7-1.7h9.8c1,0.1,1.8,1,1.7,2
		C1355,401.2,1354.3,401.9,1353.4,402z"/>
	<path class="st1" d="M1367.1,459.4c-1,0-1.9-0.8-1.9-1.8c0-0.5,0.2-1,0.5-1.3l7-6.9c0.7-0.7,1.9-0.8,2.6-0.1
		c0.7,0.7,0.8,1.9,0.1,2.6c0,0-0.1,0.1-0.1,0.1l-7,7C1368.1,459.2,1367.6,459.4,1367.1,459.4z"/>
	<path class="st1" d="M1424.4,483.3c-1,0-1.9-0.8-1.9-1.9v-9.8c0.1-1,1-1.8,2-1.7c0.9,0.1,1.7,0.8,1.7,1.7v9.8
		C1426.3,482.5,1425.4,483.3,1424.4,483.3C1424.4,483.3,1424.4,483.3,1424.4,483.3z"/>
	<path class="st1" d="M1481.8,459.8c-0.5,0-1-0.2-1.3-0.5l-6.9-6.9c-0.7-0.7-0.7-1.9,0-2.6s1.9-0.7,2.6,0l6.9,6.9
		c0.7,0.7,0.7,1.9,0,2.6C1482.8,459.6,1482.3,459.8,1481.8,459.8L1481.8,459.8z"/>
	<path class="st1" d="M1505.7,402.5h-9.8c-1,0.1-1.9-0.7-2-1.7c-0.1-1,0.7-1.9,1.7-2c0.1,0,0.2,0,0.3,0h9.8c1-0.1,1.9,0.7,2,1.7
		c0.1,1-0.7,1.9-1.7,2C1505.9,402.5,1505.8,402.5,1505.7,402.5z"/>
	<path class="st1" d="M1475.2,352c-1,0-1.9-0.8-1.9-1.8c0-0.5,0.2-1,0.5-1.3l6.9-7c0.7-0.7,1.9-0.7,2.6,0s0.7,1.9,0,2.6l-6.9,7
		C1476.2,351.9,1475.7,352,1475.2,352z"/>
	<path class="st18" d="M992.5,350.4c1.8-4.8,3.3-9.8,4.4-14.8c1.9-8.5,2.8-17.1,2.8-25.8c0-5.2-0.3-10.5-1-15.6
		c-0.5-3.4-1.1-6.8-1.8-10.2c-0.4-1.7-0.8-3.3-1.2-5c-0.9-3.3-1.9-6.6-3.2-9.8c-0.4-1.1-0.9-2.2-1.3-3.3c-0.8-2-1.6-3.9-2.5-5.8
		c-2.8-5.8-6.1-11.4-9.9-16.6c-1.9-2.6-3.9-5.1-6-7.5c-3.9-4.5-8.3-8.6-13-12.2c-1.5-1.1-2.9-2.2-4.4-3.3c-3.8-2.6-7.7-4.9-11.8-6.9
		c-2.8-1.3-5.7-2.5-8.6-3.6c-1.5-0.5-2.9-1-4.4-1.4c-1.7-0.5-3.5-0.9-5.2-1.3c-18-3.9-36.7-1.7-53.3,6.3c-4.1,2-8.1,4.3-11.8,6.9
		c-1.5,1-3,2.1-4.4,3.3c-4.7,3.7-9.1,7.8-13,12.2c-1.5,1.7-2.9,3.5-4.3,5.3c-1.5,2-3,4-4.4,6.1c-0.9,1.3-1.7,2.7-2.5,4.1
		c-2.2,3.8-4.2,7.6-6,11.6c-0.9,2-1.7,4-2.5,6c-1.8,4.8-3.2,9.7-4.3,14.8c-0.8,3.4-1.4,6.8-1.8,10.2c-0.7,5.2-1,10.4-1,15.6
		c0,8.7,0.9,17.3,2.8,25.8c1.1,5,2.6,10,4.4,14.8c2.3,6.1,5.1,12,8.4,17.6c0.8,1.4,1.7,2.8,2.5,4.1c2.6,4,5.6,7.8,8.7,11.4
		c1.6,1.8,3.2,3.5,4.9,5.2s3.1,3,4.8,4.4l1.1,0.9c5.6,4.7,11.8,8.7,18.4,11.9c5.6,2.7,11.4,4.8,17.5,6.1c1.5,0.3,3,0.6,4.5,0.9
		c4.6,0.8,9.2,1.2,13.8,1.2c6.5,0,12.9-0.8,19.2-2.3c5.7-1.4,11.3-3.4,16.6-5.9c4.1-2,8.1-4.3,11.8-6.9c2.3-1.6,4.5-3.3,6.6-5
		c3.9-3.2,7.5-6.7,10.8-10.5c2.1-2.4,4.1-4.9,6-7.5c3.8-5.2,7.1-10.8,9.9-16.6C990,356.6,991.3,353.5,992.5,350.4z"/>
	<path class="st19" d="M998.7,294.2c-0.5-3.4-1.1-6.8-1.8-10.2c-0.4-1.7-0.8-3.3-1.2-5c-0.9-3.3-2-6.6-3.2-9.8
		c-0.4-1.1-0.9-2.2-1.3-3.3c-0.8-2-1.6-3.9-2.5-5.8c-2.8-5.8-6.1-11.4-9.9-16.6c-1.9-2.6-3.9-5.1-6-7.5c-3.9-4.5-8.3-8.6-13-12.2
		c-1.5-1.1-2.9-2.2-4.4-3.3c-3.8-2.6-7.7-4.9-11.8-6.9c-2.8-1.3-5.7-2.5-8.6-3.6c-1.5-0.5-2.9-1-4.4-1.4c-1.7-0.5-3.5-0.9-5.2-1.3
		c-5.8-1.3-11.6-1.9-17.5-1.9c-1.1,0-2.2,0-3.3,0.1c4.8,0.2,9.6,0.8,14.3,1.8c1.8,0.4,3.5,0.8,5.2,1.3c1.5,0.4,3,0.9,4.4,1.4
		c2.9,1,5.8,2.2,8.6,3.6c4.1,2,8.1,4.3,11.8,6.9c1.5,1,3,2.1,4.4,3.3c4.7,3.7,9.1,7.8,13,12.2c2.1,2.4,4.1,4.9,6,7.5
		c3.8,5.2,7.1,10.8,9.9,16.6c0.9,1.9,1.7,3.8,2.5,5.8c0.4,1.1,0.9,2.2,1.3,3.3c1.2,3.2,2.2,6.5,3.2,9.8c0.5,1.6,0.9,3.3,1.2,5
		c0.8,3.4,1.3,6.8,1.8,10.2c0.7,5.2,1,10.4,1,15.6c0,8.7-0.9,17.3-2.8,25.8c-1.1,5-2.6,10-4.3,14.8c-1.2,3.1-2.4,6.1-3.8,9.1
		c-2.8,5.8-6.1,11.4-9.9,16.6c-1.9,2.6-3.9,5.1-6,7.5c-3.3,3.8-6.9,7.3-10.8,10.5c-2.2,1.8-4.3,3.5-6.6,5c-3.8,2.6-7.7,4.9-11.8,6.9
		c-5.3,2.5-10.8,4.5-16.5,5.9c-5.3,1.3-10.6,2-16.1,2.2c1.1,0,2.2,0.1,3.3,0.1c6.5,0,12.9-0.8,19.2-2.3c5.7-1.4,11.3-3.4,16.6-5.9
		c4.1-2,8.1-4.3,11.8-6.9c2.3-1.6,4.5-3.3,6.6-5c3.9-3.2,7.5-6.7,10.8-10.5c2.1-2.4,4.1-4.9,6-7.5c3.8-5.2,7.1-10.8,9.9-16.6
		c1.4-2.9,2.7-6,3.8-9.1c1.8-4.8,3.3-9.8,4.4-14.8c1.9-8.5,2.8-17.1,2.8-25.8C999.7,304.7,999.4,299.4,998.7,294.2z"/>
	<path class="st20" d="M907.8,197.1c54.9,0,99.3,50.5,99.3,112.8s-44.5,112.8-99.3,112.8s-99.3-50.5-99.3-112.8
		S852.9,197.1,907.8,197.1z M972.8,383.6c8.5-9.8,15.2-21,19.7-33.2c9.6-26.2,9.6-55,0-81.2c-4.5-12.2-11.2-23.4-19.7-33.2
		c-8.1-9.3-18.1-17-29.2-22.4c-22.6-10.9-48.9-10.9-71.5,0c-11.1,5.4-21.1,13-29.2,22.4c-8.5,9.8-15.2,21-19.7,33.2
		c-9.6,26.2-9.6,55,0,81.2c4.5,12.2,11.2,23.4,19.7,33.2c8.1,9.4,18,17,29.2,22.4c22.6,10.9,48.9,10.9,71.5,0
		C954.7,400.6,964.6,393,972.8,383.6L972.8,383.6z"/>
	<path class="st19" d="M826.8,244.6c0.9-1.5,1.9-2.9,2.9-4.3c2-2.8,4-5.6,6.2-8.2c1.6-2,3.3-3.9,5.1-5.7c1.2-1.2,2.4-2.4,3.6-3.6
		c0.6-0.6,1.2-1.1,1.9-1.7c1.3-1.1,2.5-2.2,3.8-3.2c2.6-2.1,5.3-4,8.1-5.9c1.4-0.9,2.8-1.8,4.2-2.6c0.7-0.4,1.4-0.8,2.2-1.2
		c1.5-0.8,2.9-1.5,4.4-2.3s3-1.4,4.5-2c10.8-4.5,22.4-6.8,34.2-6.8h-22.2c-54.9,0-99.3,50.5-99.3,112.8
		c-0.1,23.1,6.2,45.7,18.3,65.3c0.9,1.5,1.9,2.9,2.9,4.3c2.9,4.2,6.1,8.2,9.6,12c1.2,1.2,2.3,2.5,3.5,3.6c1.8,1.8,3.7,3.5,5.6,5.1
		c1.3,1.1,2.6,2.1,3.9,3.1c2,1.5,4,3,6.1,4.3c5.5,3.6,11.4,6.6,17.6,9c0.8,0.3,1.5,0.6,2.3,0.9c9.5,3.4,19.5,5.1,29.5,5.1h22.2
		c-54.9,0-99.3-50.5-99.3-112.8c-0.1-21.3,5.3-42.2,15.7-60.8C825,247.5,825.9,246,826.8,244.6z"/>
	<path class="st4" d="M727.7,424.6l-11-11.7l101.6-95.4c1.5-1.4,3.5-2.2,5.5-2.2h43.9l44.5-28.4c1.6-1,3.6-1.5,5.5-1.2l49.7,7.5
		l79.9-76.3l11.1,11.6l-82.7,79c-1.8,1.7-4.3,2.5-6.8,2.1l-50.6-7.6l-44,28c-1.3,0.8-2.8,1.3-4.3,1.3h-43L727.7,424.6z"/>
	<polygon class="st4" points="1034.6,211.3 1071.9,200.8 1066.4,240 	"/>
</g>
</svg>
