<?xml version="1.0" encoding="utf-8"?>
<!-- Generator: Adobe Illustrator 24.1.2, SVG Export Plug-In . SVG Version: 6.00 Build 0)  -->
<svg version="1.1" id="Layer_1" xmlns="http://www.w3.org/2000/svg" xmlns:xlink="http://www.w3.org/1999/xlink" x="0px" y="0px"
	 viewBox="0 0 285.6 68" style="enable-background:new 0 0 285.6 68;" xml:space="preserve">
<style type="text/css">
	.st0{opacity:0;fill:none;}
	.st1{clip-path:url(#SVGID_2_);}
	.st2{fill:none;stroke:#05478A;stroke-width:4;stroke-miterlimit:10;}
	.st3{fill:#05478A;}
</style>
<rect x="220.6" y="0" class="st0" width="62" height="68"/>
<g>
	<defs>
		<rect id="SVGID_1_" x="214.6" y="0" width="68" height="68"/>
	</defs>
	<clipPath id="SVGID_2_">
		<use xlink:href="#SVGID_1_"  style="overflow:visible;"/>
	</clipPath>
	<g class="st1">
		<path class="st2" d="M223.6,51.5l9.5,4.8L223.6,51.5z"/>
		<path class="st2" d="M223.6,51.5l21.5,11L223.6,51.5z"/>
		<path class="st2" d="M222.3,50.9c-1-0.6-1.9-1.5-2.4-2.5c-0.6-1-0.9-2.1-0.9-3.2L218.9,22"/>
		<path class="st2" d="M223.6,51.5l-1.2-0.6C222.7,51.1,223.1,51.3,223.6,51.5L223.6,51.5z"/>
		<path class="st2" d="M244.8,4.5l-2,1L244.8,4.5C244.8,4.4,244.8,4.4,244.8,4.5z"/>
		<path class="st2" d="M256.3,9.5c-0.7-4.8-6.6-7.6-11.4-5.1l-2.1,1.1l-20.1,10.6c-1.2,0.6-2.1,1.5-2.8,2.5c-0.7,1-1,2.2-1,3.4
			l0.1,23.1c0,1.1,0.3,2.2,0.9,3.2c0.6,1,1.4,1.8,2.4,2.5l1.2,0.6"/>
		<path class="st2" d="M252.2,62.9c0.2-0.1,0.5-0.2,0.7-0.3l22.1-11.6c0,0,0,0,0.1,0L252.2,62.9z"/>
		<path class="st2" d="M245.5,62.7l-0.5-0.2C245.2,62.6,245.4,62.6,245.5,62.7z"/>
		<path class="st2" d="M245.1,62.5l0.5,0.2c1,0.5,2.2,0.8,3.3,0.8c1.2,0,2.3-0.2,3.4-0.6l22.9-12c1.1-0.6,2.1-1.5,2.7-2.5
			s1-2.2,1-3.4l-0.1-23.2c0-5.3-6.5-8.7-11.6-6l-0.1,0c0,0,0,0,0,0"/>
		<path class="st2" d="M267.1,15.9c0-1.1-0.3-2.3-0.9-3.3c-0.6-1-1.5-1.9-2.6-2.5c-1.1-0.6-2.3-1-3.6-1.1c-1.3-0.1-2.6,0.1-3.7,0.6"
			/>
		<path class="st2" d="M267.3,24.3c0-0.4-0.2-7.8-0.2-7.8c0-0.2,0-0.4,0-0.5c-0.1,0-0.2,0.1-0.3,0.1l-7.2,3.8l-14.9,7.8
			c-1.1,0.6-1.9,1.3-2.6,2.3c-0.7,0.9-1,2-1.1,3.1l0.1,15.7c0,0.9,0.3,1.7,0.7,2.4c0.5,0.7,1.2,1.4,2,1.8c0.8,0.4,1.8,0.7,2.7,0.7
			c1,0,1.9-0.2,2.7-0.6l15.1-7.9l0.4-0.2c0.8-0.4,1.5-1,1.9-1.8s0.7-1.6,0.7-2.4L267.3,24.3z"/>
		<path class="st2" d="M256.5,18c0-0.4-0.2-7.8-0.2-7.8c0-0.2,0-0.4,0-0.5c-0.1,0-0.2,0.1-0.3,0.1l-7.2,3.8l-14.9,7.8
			c-1.1,0.6-1.9,1.3-2.6,2.3c-0.7,0.9-1,2-1.2,3.1l0.1,15.7c0,0.9,0.3,1.7,0.7,2.4c0.5,0.7,1.2,1.4,2,1.8c0.8,0.4,1.8,0.7,2.7,0.7
			c1,0,1.9-0.2,2.7-0.6l15.2-8l0.4-0.2c0.8-0.4,1.5-1,2-1.8c0.5-0.7,0.7-1.6,0.7-2.4L256.5,18z"/>
	</g>
</g>
<g>
	<path class="st3" d="M18.6,30.2c-1.7,0.4-3.1,0.2-4.3-0.5s-1.8-1.8-2.1-3.3c-0.3-1.5,0-3.3,0.7-5.2l1.7,0.7
		c-0.6,1.5-0.8,2.8-0.7,3.9c0.1,1.1,0.6,1.8,1.3,2.3c0.7,0.4,1.7,0.5,3,0.3c0.1,0,0.1,0,0.2,0c0.1,0,0.1,0,0.2-0.1
		c0.8-0.2,1.4-0.4,1.9-0.6c0.4-0.2,0.8-0.4,1-0.7c0.2-0.3,0.3-0.6,0.2-1.1c0-0.3-0.4-0.5-1-0.8c-0.6-0.3-1.3-0.5-2.1-0.7l0.6-1.9
		l0.1,0c0.8,0.3,1.7,0.8,2.7,1.4c1,0.6,1.5,1.2,1.5,1.9c0.1,0.8,0,1.5-0.3,2c-0.3,0.6-0.8,1-1.5,1.3c-0.6,0.3-1.5,0.6-2.5,0.9
		c-0.1,0-0.2,0-0.2,0.1C18.8,30.2,18.7,30.2,18.6,30.2z M24.7,25.7c-0.6,0-1.1,0-1.6-0.1c-0.5-0.1-1-0.2-1.5-0.3
		c-0.5-0.1-1.2-0.3-2-0.6c-0.2-0.1-0.3-0.1-0.5-0.2c-0.2,0-0.3-0.1-0.5-0.2l0.6-1.9c0,0,0.1,0,0.1,0s0.1,0,0.1,0
		c1.4,0.4,2.5,0.7,3.3,0.9c0.8,0.2,1.4,0.3,2.1,0.3V25.7z"/>
	<path class="st3" d="M24.5,23.8h1.7c0.5,0,0.9-0.1,1.2-0.2c0.3-0.1,0.5-0.4,0.6-0.7c0.1-0.3,0.1-0.8-0.1-1.3l-0.8-2.8l1.7-0.5
		l0.8,2.8c0.3,1,0.3,1.8,0,2.5c-0.2,0.7-0.7,1.2-1.3,1.6c-0.6,0.4-1.4,0.6-2.2,0.6h-1.7V23.8z M27.1,16.8c-0.4,0-0.7-0.1-0.9-0.4
		c-0.2-0.2-0.4-0.5-0.4-0.9c0-0.3,0.1-0.6,0.4-0.9c0.2-0.3,0.6-0.4,0.9-0.4c0.3,0,0.6,0.1,0.9,0.4c0.3,0.3,0.4,0.6,0.4,0.9
		c0,0.4-0.1,0.7-0.4,0.9C27.7,16.7,27.4,16.8,27.1,16.8z"/>
	<path class="st3" d="M36.1,25.7c-0.9,0-1.5-0.1-2-0.4s-0.9-0.7-1.1-1.2c-0.2-0.6-0.4-1.3-0.4-2.3L32.1,13l1.8-0.1l0.4,8.8
		c0,0.1,0,0.1,0,0.1c0,0,0,0.1,0,0.1c0,0.5,0.1,0.9,0.2,1.1c0.1,0.2,0.3,0.4,0.5,0.5c0.2,0.1,0.6,0.1,1.1,0.1h0.2v2H36.1z"/>
	<path class="st3" d="M36.1,23.8h3c0.5,0,0.9-0.1,1.2-0.2c0.3-0.1,0.5-0.4,0.6-0.7c0.1-0.3,0.1-0.8-0.1-1.3l-0.7-2.8l1.7-0.5
		l0.8,2.9c0.3,0.9,0.3,1.8,0,2.4c-0.3,0.7-0.7,1.2-1.3,1.6s-1.4,0.5-2.2,0.5h-3V23.8z M38,16.7c-0.3,0-0.6-0.1-0.8-0.3
		c-0.2-0.2-0.3-0.5-0.3-0.8c0-0.3,0.1-0.6,0.3-0.8s0.5-0.3,0.8-0.3c0.3,0,0.6,0.1,0.8,0.3s0.3,0.5,0.3,0.8c0,0.3-0.1,0.6-0.3,0.8
		C38.6,16.6,38.3,16.7,38,16.7z M39.8,14c-0.3,0-0.5-0.1-0.7-0.3s-0.3-0.4-0.3-0.6c0-0.3,0.1-0.5,0.3-0.7s0.4-0.3,0.7-0.3
		c0.3,0,0.5,0.1,0.6,0.3s0.3,0.4,0.3,0.7c0,0.3-0.1,0.5-0.3,0.6S40.1,14,39.8,14z M41.7,16.7c-0.3,0-0.6-0.1-0.8-0.3
		c-0.2-0.2-0.3-0.5-0.3-0.8c0-0.3,0.1-0.6,0.3-0.8s0.5-0.3,0.8-0.3c0.3,0,0.6,0.1,0.8,0.3s0.3,0.5,0.3,0.8c0,0.3-0.1,0.6-0.3,0.8
		C42.2,16.6,42,16.7,41.7,16.7z"/>
	<path class="st3" d="M52.9,25.8c-0.6,0-1.2-0.2-1.7-0.5c-0.5-0.3-1-0.7-1.3-1.3c-0.3-0.5-0.5-1.1-0.5-1.8c0-0.4,0.1-0.8,0.2-1.1
		c0.1-0.4,0.3-0.7,0.6-1.1c0.2-0.3,0.5-0.7,0.9-1.1l1.3-1.3l1.2,1.3l-1.2,1.1c0,0-0.1,0.1-0.1,0.1c0,0-0.1,0.1-0.1,0.1
		c-0.4,0.4-0.6,0.7-0.8,1c-0.2,0.3-0.2,0.6-0.2,0.9c0,0.3,0.1,0.5,0.2,0.8c0.2,0.3,0.4,0.5,0.6,0.6c0.3,0.1,0.6,0.2,0.9,0.2
		c0.3,0,0.6-0.1,0.9-0.2c0.3-0.1,0.5-0.3,0.6-0.6c0.2-0.2,0.2-0.5,0.2-0.8c0-0.3-0.1-0.6-0.2-0.9c-0.1-0.3-0.4-0.6-0.8-1
		c-0.1-0.1-0.1-0.1-0.2-0.2c-0.1-0.1-0.1-0.1-0.1-0.2L51,17.8l1.3-1.4l2.2,2.2c0.1,0.1,0.1,0.1,0.2,0.1c0.1,0,0.1,0.1,0.1,0.2
		c0.4,0.4,0.7,0.8,0.9,1.1c0.2,0.3,0.4,0.7,0.5,1c0.1,0.4,0.2,0.8,0.2,1.2c0,0.6-0.2,1.2-0.5,1.8c-0.3,0.5-0.7,1-1.3,1.3
		C54.1,25.6,53.5,25.8,52.9,25.8z"/>
	<path class="st3" d="M58.9,13l1.8-0.1l0.5,12.8l-1.7,0.1L58.9,13z"/>
	<path class="st3" d="M62.4,28.7c0.1,0,0.2-0.1,0.3-0.1c0.1,0,0.2-0.1,0.3-0.1c0.9-0.2,1.6-0.4,2-0.6c0.5-0.2,0.8-0.5,1-0.8
		c0.2-0.3,0.3-0.8,0.2-1.4l-0.8-5.5l1.7-0.3l0.7,5.5c0.1,1,0,1.8-0.3,2.5S67,29,66.3,29.4c-0.7,0.4-1.6,0.7-2.7,1
		c-0.1,0.1-0.3,0.1-0.4,0.1s-0.3,0.1-0.4,0.1L62.4,28.7z M69,25.7c-0.6,0-1.1-0.1-1.5-0.4c-0.4-0.3-0.7-0.8-1-1.4
		c-0.3-0.7-0.5-1.6-0.7-2.8l0-0.3l1.7-0.3l0,0.1c0.1,1,0.2,1.7,0.3,2.1c0.1,0.4,0.2,0.7,0.4,0.9c0.2,0.2,0.4,0.2,0.8,0.2h0.1v2H69z"
		/>
	<path class="st3" d="M68.9,23.8h0.3c0.4,0,0.8-0.1,1.1-0.3c0.3-0.2,0.5-0.4,0.7-0.7l1.4-2.6c0.3-0.5,0.6-0.9,1-1.2
		c0.4-0.3,0.9-0.4,1.4-0.5s1,0.1,1.5,0.4c0.6,0.3,1,0.8,1.3,1.4c0.3,0.6,0.4,1.3,0.4,2.1c0,0.8-0.2,1.5-0.6,2.2
		c-0.2,0.4-0.5,0.6-0.8,0.9c-0.3,0.2-0.7,0.4-1.1,0.4c-0.4,0-0.8-0.1-1.2-0.3l-3-1.5l0.8-1.7l3.2,1.6c0.1,0.1,0.2,0.1,0.3,0.1
		c0.1,0,0.2,0,0.2-0.1c0.1-0.1,0.1-0.1,0.1-0.2c0.2-0.4,0.4-0.9,0.4-1.3s0-0.8-0.1-1.2c-0.1-0.3-0.4-0.6-0.7-0.8
		c-0.2-0.1-0.5-0.2-0.8-0.2c-0.3,0-0.5,0.1-0.7,0.3s-0.4,0.4-0.6,0.7l-1.2,2.3c-0.3,0.6-0.8,1.2-1.4,1.5c-0.6,0.4-1.2,0.6-1.9,0.6
		h-0.3V23.8z M79.9,25.7c-0.7,0-1.3-0.2-1.8-0.5c-0.5-0.3-0.9-0.7-1.1-1.3c-0.2-0.5-0.4-1.2-0.4-1.9l1.5,0c0,0.4,0.1,0.7,0.2,1
		c0.1,0.3,0.3,0.4,0.6,0.6c0.3,0.1,0.6,0.2,1,0.2V25.7z"/>
	<path class="st3" d="M82.6,24c-0.6-0.3-1-0.7-1.4-1.2c-0.3-0.5-0.5-1.1-0.6-1.7c-0.1-0.6,0.1-1.2,0.3-1.8c0.3-0.6,0.7-1,1.1-1.4
		c0.5-0.3,1-0.5,1.6-0.6c0.6-0.1,1.2,0.1,1.7,0.3c0.6,0.3,1,0.6,1.3,1.2c0.3,0.5,0.5,1.1,0.6,1.7s0,1.2-0.3,1.8
		c-0.5,1-1.3,1.8-2.4,2.4c-1.1,0.6-2.4,0.9-3.9,0.9h-1.1v-2h1.1c0.9,0,1.7-0.1,2.3-0.2s1.1-0.4,1.5-0.7c0.4-0.3,0.7-0.7,0.9-1.1
		c0.2-0.4,0.2-0.8,0-1.2c-0.1-0.4-0.4-0.7-0.8-0.9c-0.3-0.1-0.6-0.2-0.8-0.2c-0.3,0-0.5,0.1-0.8,0.2c-0.2,0.1-0.4,0.3-0.5,0.6
		c-0.2,0.4-0.2,0.8-0.1,1.2s0.4,0.7,0.9,0.9l4.3,2.1c0.4,0.2,0.7,0.2,1.1,0.1c0.4-0.1,0.7-0.4,0.8-0.7c0.2-0.4,0.2-0.7,0-1.1
		c-0.1-0.4-0.4-0.7-0.8-0.9l-7-3.6l0.8-1.7l6.9,3.6c0.5,0.3,1,0.7,1.3,1.1c0.3,0.5,0.5,1,0.6,1.6s0,1.1-0.3,1.7
		c-0.3,0.5-0.6,1-1.1,1.3c-0.5,0.3-1,0.5-1.5,0.6c-0.6,0.1-1.1,0-1.6-0.3L82.6,24z"/>
	<path class="st3" d="M101.5,24.4c-0.4,0.1-0.9,0-1.4-0.2c-0.5-0.2-0.9-0.5-1.2-0.8c-0.4-0.4-0.6-0.8-0.8-1.2
		c-0.2-0.6-0.2-1.2-0.1-1.8c0.1-0.6,0.4-1.1,0.8-1.6c0.4-0.4,0.8-0.8,1.4-0.9l3.4-1.1l0.5,1.7l-3.4,1.2c-0.4,0.1-0.7,0.4-0.9,0.7
		c-0.2,0.3-0.2,0.7-0.1,1.1c0.1,0.3,0.3,0.6,0.6,0.8c0.3,0.2,0.6,0.3,1,0.2L104,22l0.3,1.9c-0.6,0.1-1.1,0.2-1.6,0.3
		C102.2,24.3,101.8,24.3,101.5,24.4z M107,25.7c-0.7,0-1.4-0.2-2-0.5c-0.6-0.4-1.1-0.8-1.4-1.4c-0.3-0.6-0.5-1.3-0.5-2v-5.6h1.8v5.6
		c0,0.4,0.1,0.7,0.3,1c0.2,0.3,0.4,0.5,0.8,0.7c0.3,0.2,0.7,0.3,1.1,0.3h0.4v2H107z"/>
	<path class="st3" d="M107.2,23.8h1.4c0.6,0,1-0.1,1.2-0.3c0.2-0.2,0.4-0.5,0.3-0.9l-0.2-2.3l1.7-0.2l0.2,2.3c0.1,0.7,0,1.3-0.3,1.8
		c-0.3,0.5-0.6,0.9-1.2,1.2c-0.5,0.3-1.1,0.4-1.9,0.4h-1.4V23.8z M109.7,18.3c-0.4,0-0.7-0.1-0.9-0.4s-0.4-0.5-0.4-0.9
		c0-0.3,0.1-0.6,0.4-0.9c0.2-0.3,0.6-0.4,0.9-0.4c0.3,0,0.6,0.1,0.9,0.4c0.3,0.3,0.4,0.6,0.4,0.9c0,0.4-0.1,0.7-0.4,0.9
		C110.3,18.2,110,18.3,109.7,18.3z M113.5,25.7c-1,0-1.8-0.3-2.4-0.8c-0.6-0.5-0.9-1.3-0.9-2.4l1.7-0.2c0,0.4,0.1,0.7,0.2,0.9
		c0.1,0.2,0.3,0.3,0.5,0.4c0.2,0.1,0.5,0.1,0.9,0.1V25.7z"/>
	<path class="st3" d="M113.3,23.8h3.3c0.6,0,1-0.1,1.2-0.3s0.3-0.5,0.3-0.9l-0.2-2.3l1.8-0.2l0.2,2.3c0.1,0.7-0.1,1.3-0.3,1.8
		s-0.6,0.9-1.1,1.2c-0.5,0.3-1.1,0.4-1.9,0.4h-3.3V23.8z M115.1,29.6c-0.3,0-0.6-0.1-0.8-0.3c-0.2-0.2-0.3-0.5-0.3-0.8
		c0-0.3,0.1-0.6,0.3-0.8s0.5-0.3,0.8-0.3c0.3,0,0.6,0.1,0.8,0.3s0.3,0.5,0.3,0.8c0,0.3-0.1,0.6-0.3,0.8
		C115.6,29.5,115.4,29.6,115.1,29.6z M118.5,29.6c-0.3,0-0.6-0.1-0.8-0.3c-0.2-0.2-0.3-0.5-0.3-0.8c0-0.3,0.1-0.6,0.3-0.8
		s0.5-0.3,0.8-0.3c0.3,0,0.6,0.1,0.8,0.3s0.3,0.5,0.3,0.8c0,0.3-0.1,0.6-0.3,0.8C119.1,29.5,118.8,29.6,118.5,29.6z M121.5,25.7
		c-1,0-1.8-0.3-2.4-0.8c-0.6-0.5-0.9-1.4-1-2.4l1.8-0.2c0,0.4,0.1,0.7,0.2,0.9c0.1,0.2,0.3,0.3,0.5,0.4c0.2,0.1,0.5,0.1,0.9,0.1
		V25.7z"/>
	<path class="st3" d="M121.3,23.8L121.3,23.8c1,0,1.8-0.1,2.7-0.2c0.9-0.1,1.8-0.3,2.7-0.6l5.2-1.4l-0.1,0.5l-4.5-2.2
		c-0.6-0.3-1.2-0.4-1.7-0.2c-0.6,0.2-1,0.5-1.4,1.1l-0.4,0.6l-1.5-1l0.4-0.6c0.4-0.7,0.9-1.2,1.5-1.5c0.6-0.4,1.2-0.5,1.9-0.6
		s1.4,0.2,2,0.5l5.1,2.7l-0.3,2.2l-5.7,1.7c-1,0.3-2,0.5-3,0.6c-1,0.1-1.9,0.2-2.9,0.2h-0.1V23.8z M127.6,29.6
		c-0.4,0-0.7-0.1-0.9-0.4c-0.2-0.2-0.4-0.5-0.4-0.9c0-0.3,0.1-0.6,0.4-0.9c0.2-0.3,0.6-0.4,0.9-0.4c0.3,0,0.6,0.1,0.9,0.4
		s0.4,0.6,0.4,0.9c0,0.4-0.1,0.7-0.4,0.9C128.2,29.5,127.9,29.6,127.6,29.6z M133.6,25.7c-0.6,0-1.1-0.1-1.6-0.4
		c-0.5-0.3-0.9-0.7-1.2-1.2c-0.3-0.5-0.4-1-0.4-1.7h1.7c0,0.2,0.1,0.4,0.2,0.6s0.3,0.4,0.5,0.5c0.2,0.1,0.5,0.2,0.8,0.2h1.3v2H133.6
		z"/>
	<path class="st3" d="M134.7,23.8h1.4c0.6,0,1-0.1,1.2-0.3c0.2-0.2,0.4-0.5,0.3-0.9l-0.2-2.3l1.7-0.2l0.2,2.3c0.1,0.7,0,1.3-0.3,1.8
		c-0.3,0.5-0.6,0.9-1.2,1.2c-0.5,0.3-1.1,0.4-1.9,0.4h-1.4V23.8z M137.2,18.3c-0.4,0-0.7-0.1-0.9-0.4s-0.4-0.5-0.4-0.9
		c0-0.3,0.1-0.6,0.4-0.9c0.2-0.3,0.6-0.4,0.9-0.4c0.3,0,0.6,0.1,0.9,0.4c0.3,0.3,0.4,0.6,0.4,0.9c0,0.4-0.1,0.7-0.4,0.9
		C137.8,18.2,137.5,18.3,137.2,18.3z M141,25.7c-1,0-1.8-0.3-2.4-0.8c-0.6-0.5-0.9-1.3-0.9-2.4l1.7-0.2c0,0.4,0.1,0.7,0.2,0.9
		c0.1,0.2,0.3,0.3,0.5,0.4c0.2,0.1,0.5,0.1,0.9,0.1V25.7z"/>
	<path class="st3" d="M140.8,23.8h4.4c0.2,0,0.3,0,0.5,0c0.1,0,0.2-0.1,0.3-0.2c0.1-0.1,0.2-0.2,0.3-0.4s0.1-0.3,0.1-0.5
		s-0.1-0.4-0.2-0.5l-4.6-5.9l0.4-1.5l7.1-2.5l0.6,1.8l-6.3,2.2l0.1-0.5l3.9,5.3c0.3,0.4,0.5,0.9,0.7,1.4s0.1,0.9,0,1.4
		c-0.1,0.4-0.3,0.8-0.6,1.1c-0.2,0.3-0.6,0.6-0.9,0.7c-0.4,0.2-0.9,0.3-1.4,0.3h-4.3V23.8z M140.9,23.8L140.9,23.8l0.1,2h-0.1V23.8z
		 M142.1,11.8L147,10l0.4,1.2l-4.9,1.7L142.1,11.8z"/>
	<path class="st3" d="M164.1,25.7c-1.6,0-2.7,0-3.5,0s-1.4-0.1-1.8-0.1c-0.4-0.1-0.8-0.2-1.1-0.3h0c-0.8-0.4-1.3-0.9-1.6-1.7
		c-0.3-0.7-0.3-1.6,0-2.6l0.7-2.7l1.7,0.5l-0.7,2.8c-0.1,0.5-0.1,0.9,0,1.2c0.1,0.3,0.4,0.5,0.7,0.7h0h0c0.2,0.1,0.5,0.2,0.8,0.2
		c0.3,0.1,0.8,0.1,1.6,0.1c0.8,0,1.9,0,3.3,0V25.7z M162.3,19.3c-0.3,0-0.6-0.1-0.8-0.3c-0.2-0.2-0.3-0.5-0.3-0.8
		c0-0.3,0.1-0.6,0.3-0.8s0.5-0.3,0.8-0.3c0.3,0,0.6,0.1,0.8,0.3s0.3,0.5,0.3,0.8c0,0.3-0.1,0.6-0.3,0.8
		C162.9,19.2,162.6,19.3,162.3,19.3z M164.1,23.8h4.8c0.6,0,1-0.1,1.2-0.3c0.2-0.2,0.4-0.5,0.3-0.9l-0.2-2.3L172,20l0.2,2.3
		c0.1,0.7,0,1.3-0.3,1.8s-0.6,0.9-1.2,1.2c-0.5,0.3-1.1,0.4-1.9,0.4h-4.8V23.8z M165.8,19.3c-0.3,0-0.6-0.1-0.8-0.3
		c-0.2-0.2-0.3-0.5-0.3-0.8c0-0.3,0.1-0.6,0.3-0.8s0.5-0.3,0.8-0.3c0.3,0,0.6,0.1,0.8,0.3s0.3,0.5,0.3,0.8c0,0.3-0.1,0.6-0.3,0.8
		C166.3,19.2,166.1,19.3,165.8,19.3z M173.8,25.7c-1,0-1.8-0.3-2.4-0.8c-0.6-0.5-0.9-1.3-0.9-2.4l1.7-0.2c0,0.4,0.1,0.7,0.2,0.9
		c0.1,0.2,0.3,0.3,0.5,0.4c0.2,0.1,0.5,0.1,0.9,0.1V25.7z"/>
	<path class="st3" d="M173.6,23.8h4.4c0.2,0,0.3,0,0.5,0c0.1,0,0.2-0.1,0.3-0.2c0.1-0.1,0.2-0.2,0.3-0.4s0.1-0.3,0.1-0.5
		s-0.1-0.4-0.2-0.5l-4.6-5.9l0.4-1.5l7.1-2.5l0.6,1.8l-6.3,2.2l0.1-0.5l3.9,5.3c0.3,0.4,0.5,0.9,0.7,1.4s0.1,0.9,0,1.4
		c-0.1,0.4-0.3,0.8-0.6,1.1c-0.2,0.3-0.6,0.6-0.9,0.7c-0.4,0.2-0.9,0.3-1.4,0.3h-4.3V23.8z M173.7,23.8L173.7,23.8l0.1,2h-0.1V23.8z
		"/>
	<path class="st3" d="M183,28.7c0.1,0,0.2-0.1,0.3-0.1c0.1,0,0.2-0.1,0.3-0.1c0.9-0.2,1.6-0.4,2-0.6c0.5-0.2,0.8-0.5,1-0.8
		c0.2-0.3,0.3-0.8,0.2-1.4l-0.8-5.5l1.7-0.3l0.7,5.5c0.1,1,0,1.8-0.3,2.5s-0.8,1.1-1.5,1.5c-0.7,0.4-1.6,0.7-2.7,1
		c-0.1,0.1-0.3,0.1-0.4,0.1s-0.3,0.1-0.4,0.1L183,28.7z M189.6,25.7c-0.6,0-1.1-0.1-1.5-0.4c-0.4-0.3-0.7-0.8-1-1.4
		c-0.3-0.7-0.5-1.6-0.7-2.8l0-0.3l1.7-0.3l0,0.1c0.1,1,0.2,1.7,0.3,2.1c0.1,0.4,0.2,0.7,0.4,0.9c0.2,0.2,0.4,0.2,0.8,0.2h0.1v2
		H189.6z"/>
	<path class="st3" d="M189.5,23.8h0.9c0.7,0,1.1-0.1,1.3-0.4s0.3-0.6,0.3-1v-2.4h1.7v2.4c0,0.6-0.1,1.1-0.4,1.6s-0.6,0.9-1.1,1.2
		c-0.5,0.3-1.1,0.5-1.9,0.5h-0.9V23.8z M195.3,25.7c-0.6,0-1.2-0.2-1.7-0.5c-0.5-0.3-0.9-0.7-1.1-1.2c-0.3-0.5-0.4-1-0.4-1.6h1.7
		c0,0.4,0.1,0.7,0.4,1c0.3,0.2,0.7,0.4,1.2,0.4c0,0,0.1,0,0.1,0s0.1,0,0.1,0c0.6,0,1-0.2,1.2-0.4c0.2-0.2,0.3-0.6,0.3-0.9v-2.4h1.7
		v2.4c0,0.6-0.1,1.1-0.4,1.6c-0.2,0.5-0.6,0.9-1.1,1.2C196.7,25.6,196.1,25.7,195.3,25.7z M196,18.1c-0.3,0-0.6-0.1-0.8-0.3
		s-0.3-0.5-0.3-0.8c0-0.3,0.1-0.6,0.3-0.8c0.2-0.2,0.5-0.3,0.8-0.3c0.3,0,0.6,0.1,0.8,0.3c0.2,0.2,0.3,0.5,0.3,0.8
		c0,0.3-0.1,0.6-0.3,0.8S196.4,18.1,196,18.1z M197.9,15.3c-0.3,0-0.5-0.1-0.7-0.3c-0.2-0.2-0.3-0.4-0.3-0.6c0-0.3,0.1-0.5,0.3-0.7
		c0.2-0.2,0.4-0.3,0.7-0.3c0.3,0,0.5,0.1,0.6,0.3c0.2,0.2,0.3,0.4,0.3,0.7c0,0.3-0.1,0.5-0.3,0.6C198.3,15.3,198.1,15.3,197.9,15.3z
		 M200.2,25.7c-0.7,0-1.2-0.1-1.7-0.4c-0.5-0.3-0.8-0.7-1.1-1.2S197,23,197,22.4h1.6c0,0.4,0.1,0.7,0.4,1s0.7,0.4,1.2,0.4
		c0.4,0,0.8-0.1,1-0.2c0.3-0.1,0.5-0.4,0.6-0.7c0.1-0.3,0.1-0.8-0.1-1.3l-0.8-2.8l1.7-0.5l0.8,2.8c0.3,0.9,0.3,1.8,0,2.5
		c-0.2,0.7-0.6,1.3-1.2,1.6C201.6,25.6,200.9,25.7,200.2,25.7z M199.7,18.1c-0.3,0-0.6-0.1-0.8-0.3s-0.3-0.5-0.3-0.8
		c0-0.3,0.1-0.6,0.3-0.8c0.2-0.2,0.5-0.3,0.8-0.3c0.3,0,0.6,0.1,0.8,0.3c0.2,0.2,0.3,0.5,0.3,0.8c0,0.3-0.1,0.6-0.3,0.8
		S200,18.1,199.7,18.1z"/>
</g>
<g>
	<path class="st3" d="M12.5,41.7h2.1v10h4.9v1.8h-7V41.7z"/>
	<path class="st3" d="M21.6,49.1c0-2.9,2-4.6,4.2-4.6c2.2,0,4.2,1.7,4.2,4.6c0,2.9-2,4.6-4.2,4.6C23.6,53.7,21.6,52,21.6,49.1z
		 M27.9,49.1c0-1.8-0.8-3-2.1-3c-1.3,0-2.1,1.2-2.1,3s0.8,2.9,2.1,2.9C27.1,52,27.9,50.9,27.9,49.1z"/>
	<path class="st3" d="M33,44.7h1.7l0.2,1.6h0.1c0.6-1.2,1.6-1.8,2.5-1.8c0.4,0,0.7,0.1,1,0.2l-0.4,1.8c-0.3-0.1-0.5-0.1-0.9-0.1
		c-0.7,0-1.6,0.5-2.1,1.8v5.4H33V44.7z"/>
	<path class="st3" d="M40.1,49.1c0-2.9,2-4.6,4.1-4.6c2.4,0,3.7,1.7,3.7,4.2c0,0.4,0,0.8-0.1,1h-5.6c0.2,1.6,1.2,2.5,2.6,2.5
		c0.8,0,1.4-0.2,2.1-0.6l0.7,1.3c-0.8,0.6-1.9,1-3,1C42,53.7,40.1,52,40.1,49.1z M46,48.3c0-1.4-0.6-2.2-1.8-2.2
		c-1,0-1.9,0.8-2.1,2.2H46z"/>
	<path class="st3" d="M50.7,44.7h1.7l0.2,1.2h0.1c0.7-0.8,1.6-1.4,2.7-1.4c1.3,0,2,0.6,2.4,1.6c0.8-0.9,1.7-1.6,2.8-1.6
		c1.9,0,2.7,1.3,2.7,3.5v5.5h-2.1v-5.3c0-1.5-0.4-2-1.4-2c-0.6,0-1.2,0.4-1.9,1.1v6.2H56v-5.3c0-1.5-0.4-2-1.4-2
		c-0.5,0-1.2,0.4-1.9,1.1v6.2h-2.1V44.7z"/>
	<path class="st3" d="M71.1,42c0-0.7,0.5-1.2,1.3-1.2c0.7,0,1.3,0.5,1.3,1.2c0,0.7-0.5,1.2-1.3,1.2C71.6,43.1,71.1,42.6,71.1,42z
		 M71.3,44.7h2.1v8.8h-2.1V44.7z"/>
	<path class="st3" d="M76.9,44.7h1.7l0.2,0.9h0.1c0.7-0.6,1.7-1.2,2.7-1.2c2.2,0,3.5,1.8,3.5,4.5c0,3-1.8,4.8-3.8,4.8
		c-0.8,0-1.6-0.4-2.3-1l0.1,1.5V57h-2.1V44.7z M82.9,49c0-1.8-0.6-2.8-1.9-2.8c-0.6,0-1.2,0.3-1.9,1v4.1c0.6,0.5,1.3,0.7,1.8,0.7
		C82,52,82.9,51,82.9,49z"/>
	<path class="st3" d="M87.1,52.5l1-1.3c0.8,0.6,1.5,1,2.4,1c1,0,1.4-0.5,1.4-1.1c0-0.7-1-1.1-1.9-1.4c-1.2-0.4-2.5-1.1-2.5-2.6
		c0-1.5,1.2-2.6,3.2-2.6c1.2,0,2.2,0.5,2.9,1.1l-1,1.3c-0.6-0.5-1.2-0.8-1.9-0.8c-0.9,0-1.3,0.4-1.3,1c0,0.7,0.9,1,1.9,1.3
		c1.2,0.4,2.5,1,2.5,2.7c0,1.5-1.2,2.7-3.4,2.7C89.3,53.7,88,53.2,87.1,52.5z"/>
	<path class="st3" d="M96.6,50.2v-5.5h2.1V50c0,1.5,0.4,2,1.4,2c0.8,0,1.3-0.4,2-1.2v-6.1h2.1v8.8h-1.7l-0.2-1.3h-0.1
		c-0.8,0.9-1.6,1.5-2.8,1.5C97.4,53.7,96.6,52.5,96.6,50.2z"/>
	<path class="st3" d="M107.6,44.7h1.7l0.2,1.2h0.1c0.7-0.8,1.6-1.4,2.7-1.4c1.3,0,2,0.6,2.4,1.6c0.8-0.9,1.7-1.6,2.8-1.6
		c1.9,0,2.7,1.3,2.7,3.5v5.5h-2.1v-5.3c0-1.5-0.4-2-1.4-2c-0.6,0-1.2,0.4-1.9,1.1v6.2h-2.1v-5.3c0-1.5-0.4-2-1.4-2
		c-0.5,0-1.2,0.4-1.9,1.1v6.2h-2.1V44.7z"/>
	<path class="st3" d="M127.7,49.1c0-2.9,1.8-4.6,3.7-4.6c1,0,1.6,0.4,2.3,1l-0.1-1.4v-3.2h2.1v12.7H134l-0.2-1h-0.1
		c-0.7,0.7-1.6,1.2-2.5,1.2C129.1,53.7,127.7,52,127.7,49.1z M133.7,51v-4.1c-0.6-0.5-1.2-0.7-1.8-0.7c-1.1,0-2.1,1.1-2.1,2.9
		c0,1.9,0.7,2.9,2,2.9C132.5,52,133.1,51.7,133.7,51z"/>
	<path class="st3" d="M138.7,49.1c0-2.9,2-4.6,4.2-4.6c2.2,0,4.2,1.7,4.2,4.6c0,2.9-2,4.6-4.2,4.6C140.7,53.7,138.7,52,138.7,49.1z
		 M145,49.1c0-1.8-0.8-3-2.1-3c-1.3,0-2.1,1.2-2.1,3s0.8,2.9,2.1,2.9C144.2,52,145,50.9,145,49.1z"/>
	<path class="st3" d="M150.1,51.2V40.8h2.1v10.6c0,0.5,0.2,0.7,0.4,0.7c0.1,0,0.2,0,0.3,0l0.3,1.5c-0.3,0.1-0.6,0.2-1.1,0.2
		C150.6,53.7,150.1,52.8,150.1,51.2z"/>
	<path class="st3" d="M155.3,49.1c0-2.9,2-4.6,4.2-4.6c2.2,0,4.2,1.7,4.2,4.6c0,2.9-2,4.6-4.2,4.6C157.3,53.7,155.3,52,155.3,49.1z
		 M161.6,49.1c0-1.8-0.8-3-2.1-3c-1.3,0-2.1,1.2-2.1,3s0.8,2.9,2.1,2.9C160.8,52,161.6,50.9,161.6,49.1z"/>
	<path class="st3" d="M166.7,44.7h1.7l0.2,1.6h0.1c0.6-1.2,1.6-1.8,2.5-1.8c0.4,0,0.7,0.1,1,0.2l-0.4,1.8c-0.3-0.1-0.5-0.1-0.9-0.1
		c-0.7,0-1.6,0.5-2.1,1.8v5.4h-2.1V44.7z"/>
	<path class="st3" d="M178.7,52.3c0-0.8,0.6-1.4,1.3-1.4s1.3,0.6,1.3,1.4c0,0.8-0.6,1.4-1.3,1.4S178.7,53.1,178.7,52.3z"/>
	<path class="st3" d="M184.3,47.7c0-3.9,2.4-6.1,5.4-6.1c1.5,0,2.7,0.7,3.4,1.5l-1.1,1.3c-0.6-0.6-1.3-1-2.2-1
		c-1.9,0-3.3,1.6-3.3,4.3c0,2.7,1.3,4.3,3.2,4.3c1,0,1.9-0.5,2.5-1.2l1.1,1.3c-1,1.1-2.2,1.7-3.7,1.7
		C186.6,53.7,184.3,51.6,184.3,47.7z"/>
	<path class="st3" d="M195.4,49.1c0-2.9,2-4.6,4.2-4.6c2.2,0,4.2,1.7,4.2,4.6c0,2.9-2,4.6-4.2,4.6C197.4,53.7,195.4,52,195.4,49.1z
		 M201.7,49.1c0-1.8-0.8-3-2.1-3c-1.3,0-2.1,1.2-2.1,3s0.8,2.9,2.1,2.9C200.9,52,201.7,50.9,201.7,49.1z"/>
</g>
</svg>
