<?xml version="1.0" encoding="utf-8"?>
<!-- Generator: Adobe Illustrator 24.1.2, SVG Export Plug-In . SVG Version: 6.00 Build 0)  -->
<svg version="1.1" id="Layer_1" xmlns="http://www.w3.org/2000/svg" xmlns:xlink="http://www.w3.org/1999/xlink" x="0px" y="0px"
	 viewBox="0 0 68 68" style="enable-background:new 0 0 68 68;" xml:space="preserve">
<style type="text/css">
	.st0{fill:none;}
	.st1{fill:#FFFFFF;}
</style>
<rect x="3" class="st0" width="62" height="68"/>
<path class="st1" d="M65.6,49.6c1.6-2.4,0.3-25,0.7-27.8c0.2-5.9-6.6-10.2-12.1-8.7c-1.4-4.4-6.6-6.8-10.9-6
	c-2.6-6-10.8-7.1-15.9-3.4l0,0L7.2,14.3c-2.8,1.6-4.9,4.3-4.8,7.7l0,0l0.1,23.1c0,3,1.8,5.9,4.4,7.5l0,0L7,52.7l0,0
	c2,0.9,10,5.2,12.1,6.1c5.2,2.1,13.7,9.1,19.6,5.9l0,0c0.2-0.1,0.5-0.2,0.7-0.3L51.5,58l12.8-6.9L65.6,49.6z M39.9,18v2.3
	c-15,8-16.3,5.8-15.4,23.8c-2.1,1.7-6.5,1.9-6.9-1.6c0.2-1.5-0.8-16.7,0.7-17.6c3.7-3.7,17.1-9.2,21.5-12
	C39.8,15.3,39.9,17.8,39.9,18z M28.4,33.2c0-4.1,9-6.5,11.5-8.4C40.1,40,41.2,34.5,28.5,42L28.4,33.2z M39.8,40.6
	c6.4-2.1,3.7-13.1,4.1-17.9c1.3-0.7,5.3-2.8,6.6-3.5c0.3,4.5,0.1,17.2,0.1,21.6c0,0.6-0.2,1.1-0.5,1.5c0.6,0.6-16.1,8.6-16.5,9
	c-3.5,1.5-5.8-1.3-5.2-4.8L39.8,40.6z M45.3,11c2.1,0.2,4.6,1.5,5.1,3.8l-6.5,3.4c0-0.6-0.1-4.8-0.2-7.1C44.2,11,44.8,11,45.3,11z
	 M33,61.3l-12.4-6.2l-1.2-0.6C17.1,52.9,8.2,49.9,7,47.2C6,47,6.5,22.9,6.3,21.9c0-0.6,0.2-1.6,0.7-2.3C6.8,18.4,28.1,8,29.1,7.3
	c3.3-2.3,8.3-2.6,10.3,1.3l-21.1,11c-2.6,1.3-4.5,4.2-4.8,6.8c-0.1,0.2,0.1,15.8,0.1,16.1c0,5.2,6.3,8.5,10.9,6.1
	c-0.2,5.4,6.3,8.7,11,6.2l15.1-7.9l0.4-0.2c2.3-1.2,3.7-3.4,3.7-6c-0.1-5.6,0.1-17.7-0.2-23.6c3.2-1.2,7.8,1.1,7.7,4.6
	c-0.3,1.3,0.8,25-0.5,25.4c0.6,1.2-23.8,13-24.8,13.8C35.6,61.5,34.3,61.7,33,61.3z"/>
</svg>
